<mxfile host="65bd71144e">
    <diagram id="x3NG2YOtGmDMVYTB2dma" name="第 1 页">
        <mxGraphModel dx="3003" dy="2918" grid="1" gridSize="10" guides="1" tooltips="1" connect="1" arrows="1" fold="1" page="1" pageScale="1" pageWidth="827" pageHeight="1169" math="0" shadow="0">
            <root>
                <mxCell id="0"/>
                <mxCell id="1" parent="0"/>
                <mxCell id="2" value="&lt;div style=&quot;text-align: left;&quot;&gt;&lt;span style=&quot;font-size: 24px;&quot;&gt;&amp;nbsp; &amp;nbsp; 1、执行`npm run serve`，会按照package.json文件中的配置，在项目根目录下的`node_module/.bin/`目录中查找对应的可执行文件，然后执行`vue-cli-service serve`命令。&lt;/span&gt;&lt;/div&gt;&lt;div style=&quot;text-align: left;&quot;&gt;&lt;span style=&quot;font-size: 24px;&quot;&gt;&amp;nbsp; &amp;nbsp; 2、`vue-cli-service serve`命令实际上是通过Node运行一个JS文件`node_module/@vue/cli-service/bin/vue-cli-service.js`，这个文件会读取项目中的配置文件和依赖项，并启动一个基于webpack的开发服务器。在启动开发服务器时，会执行以下步骤：&lt;/span&gt;&lt;/div&gt;&lt;div style=&quot;text-align: left;&quot;&gt;&lt;span style=&quot;font-size: 24px;&quot;&gt;&amp;nbsp; &amp;nbsp; 一、`vue-cli-service`会加载根目录下的`vue.config.js`，这个文件可以用来配置webpack和开发服务器的行为。&lt;/span&gt;&lt;/div&gt;&lt;div style=&quot;text-align: left;&quot;&gt;&lt;span style=&quot;font-size: 24px;&quot;&gt;&amp;nbsp; &amp;nbsp; 二、`vue-cli-service`会启动webpack编译，在开发模式下，webpack启用热更新功能，当代码变化时，实时编译刷新页面，当生产环境时，会将js、css、图片等文件打包成静态文件到dist文件夹。&lt;/span&gt;&lt;/div&gt;&lt;div style=&quot;text-align: left;&quot;&gt;&lt;span style=&quot;font-size: 24px;&quot;&gt;&amp;nbsp; &amp;nbsp; 三、`vue-cli-service`会启动一个基于webpack的服务器，并监听指定端口(8080)。&lt;/span&gt;&lt;/div&gt;" style="text;strokeColor=none;align=center;fillColor=none;html=1;verticalAlign=middle;whiteSpace=wrap;rounded=0;fontSize=14;fontColor=#FF3333;labelBackgroundColor=#FFFF00;" parent="1" vertex="1">
                    <mxGeometry x="990" y="-890" width="641" height="480" as="geometry"/>
                </mxCell>
                <mxCell id="3" value="" style="shape=image;verticalLabelPosition=bottom;labelBackgroundColor=default;verticalAlign=top;aspect=fixed;imageAspect=0;image=data:image/png,iVBORw0KGgoAAAANSUhEUgAAA7oAAAMXCAYAAAAUhildAAAAAXNSR0IArs4c6QAAAARnQU1BAACxjwv8YQUAAAAJcEhZcwAADsMAAA7DAcdvqGQAAP+lSURBVHhe7P1hr3VZde+J5SPkC+Qr9GfolqK8SKe7FSXdui9olKjV90UqKJZl2cGybCNBYqMGBAnBXCGwwdCX1HVzQTSIgC8glzFcVKAyTWhR8Q2RJcsSsoIcmTe8OOnfKf7FqFFjrrX2PvucevZ+fkv6ae8155hjjDnmXHPOcdY5z/M/+p/+z/7XdyIiIiIiIiK3gomuiIiIiIiI3BQmuiIiIiIiInJTmOiKiIiIiIjITWGiKyIiIiIiIjeFia6IiIiIiIjcFCa6IiIiIiIiclOY6IqIiIiIiMhNYaIrIiIiIiIiN4WJroiIiIiIiNwUJroiIiIiIiJyU9xkovvv/8f/bCx/DJ7SloiIiIiIiOxzU4nuf/Af/md3/947/vnd/+S/+o27//Gnfu9JwBY2/4P/+X82+iQiIiIiIiJPy00lurxdnZLRp8A3uyIiIiIiIs8GN/ery1MS+hRMvoiIiIiIiMjTY6J7ISZfRERERERE5Ol5rhPdf+9zH7j7g1e+fvcXf///vvv0/+v7d/+7b31ulDvC5IuIiIiIyLXy9v/N/2EsvxT/y//V//buhf/97+zy2H7IbfLcJrokuLn+P/+//+99spvvJMBTmy0mX0RERERErhESzH/1r/7N3Sc+8flHSTQ/9H/503v9R0F+0iOy4rlMdJPk8ha3lpPg1oukF5CvchOTLyIiIiIi1wgJLsllmGTOhTe5JK9bCXQSbb4fkRfpPJeJLldPcv8X/49P3Ce1XElu82vNXHxW+c7ky2Pwmc9+4e5LX/nmG8re9e4P3H3n5R/cf9byFW97+wt3X/36tw7Li5wC8+sbL3337uVXfnTWHHvhHe+8n8/oQNckswfPyEPsv/Tt71/k+UAHutA51cuvYMxY36a6S8O4rNZMfHjI3Nsjz0f62u/hqWKBncfs62PC2LGPrXynbx/88MfHutUzjvy1xuNZ4CmfYWC8eI6zvvb7vfV3NQ/oA33J/Tn9og0wl671vJUkM79aTNI7yZ1LTWJXdBm+U1ZlRLZ4bhLd/D1urvx6Mp81mZ1+bZm/3eXaerM7+fIY9AUYWEBPSXRpn82cjeGVH766pG4aInswp5hb8OLnvnzW/GF+0o5E9ZxDE21o//kvfu3sQys6jrTF1+m5yQF776Alv4JYHhnvvTVrouvlvq+jkPmb8eswnszLycYW9Tnoh3E+uY9NfMiaXuVCn3P4+1u//Z572VpemeZy4rjq64q0q+SHSqv4HBnXUyEuJBBT37BHPN77vo+8oTzQtic4iXktuzamsenUObUar4mMcbcZTo3fau3cI3Mpz2qdW3yv84F+sg/VdpVpHgCydX04ujZVaAP48olPvnjvQ5417G49r1vsjcMl4Q3ue/5P/7f770eS0lP5P77zD3eTZxNdeSjPTaJb/waXizLe4nJRxvfI8r3/w1QkucjVssrky2PQF2A4ZYPpG4HIpcjmXecn860erPagbeSZz2zqpxzEsZeDQA5C/XmpxMZ0oFixpa+D/iOJLn6jm8+pPn157Gd3ikeN/zTGnRy2Txk3QOeq/xX01jjQpt9X/6re1Xin/ao+cyo6J92V7lOFNtU/9E7rN23R0fVXm4lFEt0p5shWe5Bx7P2c6PZ7/NGVZAHqfF/14VJM+vFvNV6h+sw9n9O4h6xJVQd2qOuxrVA3tX0ok7+9z9hczYmAPDK13USXS9yr/aNMY8P9tE5u9aH7BMR7Gg/aIzvpzzyIrcnnyt7cCv25w4etuQLx4bGel1Pg14NJKvNrwkk4SXwDiWpvdwrRM9UFE115KM9FopsklwSWX1nOryGTzOY75O1u/xVm6pIU14S4MvlySVgg+4LLG6uthbkvluioB5SH8hu/+ft3P/3pP9zHhU/uJzm5Lr705T+/H1Muvk8yHeYac246kFC2qqtM85MDBQeLvbZA+36YyYFsNe/RPx2wVvTDy4rEY2I6KO35eTSGDyFrTLWR+KfPOYhtxWDP19SfQtV1TvushdN4oy9xp1/db9rQ5z5mgHxfZ4GyaSwTv8nHPRLzajO+byW6yKctZK5F79QGaDPNVeSrXxA54Huvn2J0Div9e2RdSOz4ngSH/qCTzz5esbfyH33R3ev22l6C2o9eR9ne2obMam5X9uQoTwyn+j1oP/nK/WpeE9dprPfAz/RjFT9012cm8yb30zNwlNV8gfT3MefMHvk15f43uZST2NZEN3+/W9ufAu1NdOWxuflEN792nAS1J7rc119rTmJby0h4o6e/6Q2TL49BX4CBRbpuQjnI9IW5tqPuUovp97731/exOZoUybPPH/zhh+7+6ec/3/0BRjb8Pic7mZPTJp/NPTr4rAebvc0/uqEfVAM6J9urA9aK6fnbgn5Uu/1ZraCbWNa+B2xu9e+hZBwn27Wuj9XElq7UT31BZx/jjO1KV2Vq35nGO/589GOfHv3aGrOVTcqOjFf6t+d3pdqM7zXRjU7GAOr8S118o08c/Ot4oqO3q8Rm+oZMkoUe33P6dwrorb7vlccffpUUP/OJv7TJvI1cTYomEqupf5StYngpauxzj82M/QQ+pz3tkN/qI+zJ0dc6JwDZOhe2WMmmP9XnFcgcjTf2GNsalzrWff7UZ+4oU0z2SH9PtXUpSFpJJMNeQsnb3of83e4RGzXR9R+jknO4+UQ3yWrue6Kbt7fIQX2LCyS8keGa/oYXJl8eg74AQ98k9g4XbAh7G7jIFplj2chzXw8OlczZHDAyN/mkvh++qkxAR5+3tKP9aq5XIlufn9iKn0dI+/g+kQNXP3xhj/vah5BDTn++++GHz36AmvT2vvU2oY9lrw8kUysfK4lzHdNe323Fh96ml0f3ORA3YtIP1PGHv/ekX30uTW3CJA/TGE2gE9113PbAZu0Xdrbe6Fao72OXGFede3omaiwyTufoOQXs9f5slYdV3ON3X2dWJHZ9rFMeH9DL+NQ5xPc+ZinLOPQ2nd6Pft9luz3kjq5/q5hMegHZ1XPTWcmudE/sjfkEemu/uJ/6Ho7OC0BXnxd7pL/EAntH+n0pklCSTHJ/ahJ6DkeS1tgID3mDLM8nN5/oktiSqNb7/qvLNXlNYgt5C1zf7tYkuDL58hjUxZwFl0Wx/6M/2WRz6KjUjYP2Rza5Uxdr+NSfvnj3i1/84u5nP/vHe3Lx9pf6/NozMn/3d3//y9pf/Qp03igCMnz++NW/eYNMt9mJjVzo+NZfffeXd6/5Ej+rzp/85G/v6/OGOvf55EIXPlZ7W6Q/9er9iC+5an3emueiH9GH3Hf+7fde/151xufEfcvGU5I5uppbq4NP5ixzGzLvj8zlPDd81nZHD2MwHaZoiw501XLohx1ksD3JQvUtZdisByzue9y63hzY6kEJ3VO8sUVb9Nbyicj2GFQm271+8j/jWmWRQXalq4JPe33ATh/v6k/6V+1NbcLK5jRGE8jVOTrR9VSb8T2J7tQeVr5s2Z/aZJwm+T225sy54P+kd1UeGEvGlH+sin5OPtJ36hLrFdTX5xMYF/RlHvHJ+NQ51Ofa9AzwvberpB+x3e9pn3Hs9gA5yqrvE1tyxGw1V1bPTWclO/k8EbmM44quB9/r2E3jFCirsaXtZAOIB78hstK1Iv1AN76gq87Jx6QnrXzfS3T5teOHJJ60za8vV7oM4EuScJFTeC7e6G4lutynLlAfOdonEe66KpMvjwEbVxZTfu2KxTQLazaa1QadRXRv8a2b41R/hJ5Q5aKMOpIrkqzpIjmbEsN6Hfk16S0bXKcmuv2ivNpbseVHElBsTVf86oluvSKDP4kvOnvf9mxUn58XTjmMreBAsjqM9Gdpzx719bCbZ7nqn55P2vFc87l6/qO7H/a6zS3qQWyqhxzQup1a3/1HX9a1qjt96bpi4whVX/raZao/NZaxxf3v/N577+V626P0mKVvvEnm31uodYE2vR33GavEMokuP/Ts8wvZ6OCz+rQ15tRV2e5HiE7k06aP12NR+3akPBCfmrRMrJ6jzvRM8L3OqcyhOi5pl1jRpvscmZUPvR/9nnbxo9uDPtdXrOTQlbGnbnq2OrRJu3PAxuQH/q3+G5/Jf+JBbOIzfdjza7INtO1jN9nco4937oHvXf6SnJvo9sT0FKa/+612+z+IJXION5/okqRyJaHN21kSVspWiS5vc/N2N29xo2v6B6kmXy4Ji2gW276gpi6L8LRBU049m+Deokm7ukmfQ5KsvPmsyR4JV73vbxvhL//y3963JXlLOd+TrCUJPcJkK/RkkLIktrGR+56UHk0Q69vpvAXG7o9f/Zv77z02qzJIwjvZjl/4W2UpP8XGKUwHg8xP5lGv6weFzMsuN7E6ZDwE9PXE4BTyrBGHHEr4nnpiUZ/DHMhW9qIvz1/iU3VOzydy6OUzfkwxhKoLIl/9XBHZvgZV0D/ZqfXVf+xmbHv/c991dR0r0F19ncZ70kWblFG/GrM+vmEao07VS6KLb7W+jmktrzbjexLd/J0x5dQnfpOPITJpswW29+bTSo6yLncK8bPrPUq1z/e99eRI7AL6MpZ5Rmq7OtYpixx1e31b+YCOvUQ3/a720n41xzqTXPSt/EP26Nq6kp187tRxQs/0QyNiUMcfkEc28YoM9iafKauxrdQ4hy35Felvjyf3xHkrDg/lnESXt7EP/ZeXO9Uuia+/qiwP5eYTXSBR5UrCCiStJLQksnyv5ZQlmZ0S3aonTL48Bn1BrRsBsHnn17HqYkkb7pFZLeQBOdqzgUz1R9hLIJNkIYMs9bVsSnRJ3JLMnZKYRW9NNMMpiW7upzZ7TG+o036qq1fta01eq36o/fzIH/3xG/p8io1TYD7VuVLn5zRXT934IXN8OkhQXg+ER8mzEf/Rxeck20lboC+8RUj/azziH2WRP/r85RBOn7s89f35RBY5Pie7W6AHfV3nRHT3sahglzit7FMeW+jpCUf8wQ4JHN+7rtg4QvUVO/1AXf1JGfWZq1N9QHedD2Eao0r6mLbYqfMo9VOcKav9Q67+jS46027qL/W1/R69f6vYU449xrPXdR2XYiv+U+wg/uMn34lb93diazyjk09s9zkdO3Uc8ixR1+fDUeo8ne6JQeJQ7aX9arwmep/Qiy2Y/Ea2z70VK9nJ506PLX5Veb5335El3u969/vfEC9kp76HridM8+2cMU1/pzZTPy7JOYnuEZlTqTofQ788fzwXiW7+xWSumsSSuJK05leUgfpVogtc07+8PPnyGPQFlfu6yAdkqOubQL+foN3Wpn6Eo4kuV96Upg28VYluTQhj4xKJLr6nn5B+oLvGYq9fW4lurY/PsXmKjVNgPtW5Uudnn6vMuXqoOEI2/qPzEd3IH7URH3MooT+TXMhzxffaJt9zIKJseo6OPH+1z3zGXuC+60BvDkHxpcZ+D9rH71UdduPblu4tXalnHsCWHupI/hLjWsd9j+0EPlcbxKcfqPd0reoT5+4bTGPf6/sYVl+n+oAM9XyPbzXRpQ19nH7gObHVf2z1/nX5zAnKe3wToz0fzmEv/nXcA7LMzfxry1kn+Kw/aIBTfI8sOqHbxm5PUvhOWfynTY3rERJ7+gT1DWXq4n8dp7RHjrLq10SX45N4oXMVI2TqXNgCn6a+Tz5P9dU+ZasYBOqYA1W21kPGdGW7gv5pvlE2la9Y+fsU5NeEj/5jVNRV+UuRv8kF9E8yIqfwXCW6eVvLxa8s500u37mS0OZXl/leE92qh/vK5MtjUBdUFmc2ymlRRIZyqBsIizYLKQtqbxN6m3M4JdHtF3JJOPl+bqK7ZSMJ4NabztiofnN/aqKb5HO64kf6NV3UrXR0H2p/8BFfU7dnI3Kn0A8odX7W77B1qMhcrofBbPpH5yIyHL6qfr5vHbbynND2yKEm8nxHNgfM6neeH3zv+lK31x/sdL0hdqM7caqykYmvwPfarhObtR596M04xlbuJ7p/U/0pYzqNS2wcofo6zYc9f1ZjRrvVWro1zolp7xNkjKZxD/Qn4xrfa6KbcvRs9QuQW9nain3VmzlBeY9vdMTfCv3Ymkd7YG8r/l137Q9t+lrUx2zL9wnkMud6zDLm0RXdVTYy1W/qkOk+RJa6KYZVf+g+AXqIYY3DxEpuK0bIbq29YUtHnVu9Dug7bdFRy9NuFZ9Q50Fivcf0vOA7dqoOyrivc7Taq+1D/J5i8RTkb2SP8hi/VkzCnSTXt7lyCZ6rRJfkNW9xufL2tv+dLmU90eWea/qbXph8eQyyoGZBXC3ikYO6aPaFdwL5afM4haOJLjJb/+ryYye6UBNA5ONPbDw00YXoqFf1AaI3F9+TqB5NdCG2+KzlsGXjHKbDQeZk5iCfqdubV5FljvZD3x717xzzfMTudDiph44ctuhPlen052kiuibfKTvybCWuK9kaU/qZ57r2ke85DEdu67mH3gZqTHpcO8jG99quQvmRGEDsdV1HdWQO5n7qH6x0UUZdH8v4tZoLlE86V+1iB1/4YQ0ydSxDj0fi0BNd/EUXZbSpOiB6VvWAfeq7H9iosQuUr+Lb+9v7cSppvxX/6fkLtJ8SDtrEp4zJykYnfV/FtMYNOe57DNKvKtd93AN/aTvN++4b5ZTt2VjJbcUI2SOJLm27XyHxmObJql3iTB2+nTMPAP3U5c11rwfa1fnebfX1Yy8m6e8Uz6eCN7QkmHs89r+A/Nj65fnhuUh0SW65apJKGQlwElpIAsyVt7Ykurzh5eIzsp3Jl0vCwpfFlIWcexbQfpAKWTD7RpnNdbXQAovy1uZwCWqi+5BES95amE91HjIvM3fq91PI4SBzfZLp1Ocj1LkfnVVffYaqzT1oFx0TVS/32Ezbcw6ut0afM51+eDxnjCZo+4EPfexNB83qz2Sjr5cZz6150OdA6Gtr1mn01fLqR52zfK/+xPea6KIntvGj6uBz6hP0uMPUx9hM39IHytFR45t+dD1d7hRir/rQwd7W2oMO7G89iyvfn1Uy1lv9RqaO/TTmK6a1KzHih4zondp1oidtp7kYMtaZv4H2lFd/0v/uZ+b8NF+mecB3dCSO8aHGNTJbczDEPu1hq01sXcucE7kGnotEF0hiSVqnv68lqa3JbJJc4Mpb3dqmM/nyLMKi2zeWLK7ZiKBvLJfGRPf2YbPeOnTtkcPE3lzEzpGDAfOcQwafOWRFd79fQX88hDy/MD/6QXqCOXLkQHtkrWXO5aCcuZ5nI+VVX3/mUrflz1NDH7qfR8hzutd2Tz8xWSW6tCOO0PfKW4P+08e9+bySy3gQ71q+x9FxzNzdekawzVjtzW9855mpz2+dBxn3lR58oP7I899JW9jqS/p7ajxFZM1zk+iSvOZvcfkk4SV5TYJbf105pK6WrZh8ERERERERkafnuUl0gWS3Jrf16klufo25l6+YfBEREREREZGn57lKdCdIZHmby1X/Hpdr+jXnFZMvIiIiIiIi8vQ894ku8KaXpJZfaYa9v8edmHwRERERERGRp8dE90JMvoiIiIiIiMjTY6J7ISZfRERERERE5Om5qUT33/+P/9mYhD4F2J58EhERERERkaflphLd/+A//M/u/r13/PO7/8l/9RtjMvoYYAub2J58EhERERERkafl5n51GZ7y7apvckVERERERJ4tbjLRFRERERERkecXE10RERERERG5KUx0RURERERE5KYw0RURERGRkQ9++ON333n5B3cvvOOdY72IyLOKie6V8La3v3D31a9/6+5d7/7AWH8KD9X1mc9+4e4bL333Xs9Ufyro+9JXvjnWPYvga/eXWBATDgS1/AhH+49M1z+VXXKudCZfscMh6Ki9x/RPJM/iy6/86Kw5xmGe+XzJNe4h68M58Iwe6f+WX0/tszy7ZC6c8kwwB/teAefMq7Rh/5nqO+heJeYrv0TkNjHRvSJYvOtGw/0rP3x1k2lBpyx69nRMm0VPdLMJTe2PbExHE71LgJ3Jz4nJ9xyC+yadGPTyIxztP4dWDq/VL8p6komul779/bvf+u33vF52KSZfJx+2oP1D5p/IijyH8OLnvnzW/GF+0q4/a51p7q6Sy4esD6eCz/j/+S9+7fXnbJKDPb8oX/Upa+HUf2JYyys+09fJKet83ydr23OehbTZeh4rzL9JFr/YG1d92Jq3gA/8kHYqz3OG3V6/x1OsCyLPKya6VwYLMUx1R2ARrovyUaZDzd4i3TebvU1k4hxft+g+rVjJ0dfpoHZk875E/6fDBn6iO98n/y5FtRUmn1bQ/tJjKgJZo+r8PPV5oG3kmc8kbqtnmvI6l7eegyPrwyWgv0k2Y7M/r5XuF5/TOlSJ/sQ7bbmvScTUZ77XmL0V4MMqeX8rSTwZw6n+sYn9acyPUOdZH+e6b0zzYo+02YsNOrd8W9XnmY8evmPvXe9+//1nrevg06qvwPd+n36cEwsROQ0T3SsjC/DWwruCBbYuyOfSF/YVdUEPHC44DFX/+8bwkD7ugZ1po5vovqc95TC1maib2CX7f8SHS22gU9x4Y7R1MOrxQ8cl5l/4jd/8/buf/vQf7rj45H6Sk+viS1/+8/sx5eL7JNPJszDN9xxu956FaX7yvK6SXcqqPLI8D7xJrs/BRH3eLwU6+4Ed3/Bxeu76M00/8X3rGU0f+cQO3xMb7muiW2XTvsfsrQAfnsVE91ki82aa97V+msepy/qf+zrXOhmPI7ITsTXNL+rwk7LpT2Zo058bvqPn3ER38nGLVZxF5OGY6D4nsJDWTYnFOJvDqfSFfQX2JhuU140FmfhGGXXZZGq7S7DyqTPJsUFOh95soPjNQW9v07pU/2u7Dj6h49Ib6GSTuOBzDhCxXeN3yfnX+d73/vqkpEieff7gDz90908///nuDzCYVxwUV89ByJysz13IMxcdfNbnJvV9viKDzqyD/TmoPNbzCNFdfenQp6nv3a/aJ773NrWPiUvacp9Et8aMe9bNZ+VQj30T3X2YM6s1uo99hTLGOW25r3Ozz7nKqi7lkz/Vz24LqIsMnykPtMk873O1M9mnrNvsbPVZRB4XE90rhQVzWogn+uJM21M3ejaISTewgK/eYkwbQ/Sljs9sQLX8MdjqR6f6kY2K8r5ZcU+imzjwprPWT5zS/2q72q/tOo+1sU42mUf1LXVs936Ec+afSCVzDPjen5FO5mwOspmbfFJfn5MuE9BR5y1tup3U9+f4sZ7H+LB61iqRrc/vll/IVdlOkp3e/0988sX7z1P7Sh/QR/uqs/et202SUmVoU3XUfuBXHUegvsodsZF5EpmPfuzT97HsMYvusIpLbNb+7rXtPuR5SH36mjFZ6ZlAZur3Vl2NG/3I/Kp92ppzq7pJTyBGKaddjwF17M+h665tiOdrP6x57U1ufaNb7VQoS3u+J8anMsVDRB6Oie6VUDe8vthubQKdbEQsqn2TXJFFfNKRMmzjY+5P4SFtT2W1WXW6HN/ZAKc3tsjmkMMnm2k9RO1xtP897lvtMicuvXlWm/QRf/o/+rM1Hy8x/47wqT998e4Xv/jF3c9+9o/35OLtL/X5tWdk/u7v/v6Xtb/6Fei8UQRk+Pzxq3/zBplusxMbudDxrb/67i/vXvMlfladP/nJ397X5w117vPJhS58rPa2SH/q1fsRX3LV+rw1z0U/og+57/zb773+veqMz4n7lo2nJHN0Nbdy4M2cruXMWeY2c7i2z/PAJ3XTM3HJ5xEfYuPIs5Tnls+0W/lF3WsH/vU6hkye5dynzZY/q5jTn14fPVlLYrOuLfSntqn9q23Sf/xFZ/pGeb0/YgMd+NplKIudxHbqzzQPul0+az9iM237PWB7alN9QG/t74r4X/u4VQ7YD9TjB7LxB9K++r1Xt2cz5bRDDvnUU4cM3+kz8al9r20of20OrxNdIKaVbrOz6peIPD4muldGXdQDi2c2NxZUZOrGEihDrm6EE+ifFu5sGNFTF+3UVXnY2hyOQtuu91zwZ7IxUe3ylva97/vImzarbJLEJHXQY3GJ/ve4Uz7FHB5rY6394C0BiT3f63yJ7Ro/eOj8O4WeUOWijDqSK5Ks6SI5mxLDeh35NektG1ynJrr9orzaW7HlRxJQbE1X/OqJbr0igz+JLzp73/ZsVJ+vgTz7maf1EN2fv37/rBC/8gzzQ7o831vwjPb1iPua6E4/KOgxq6BzSsAoz5pB4pH4zvVzIkk7ypDhM3ZYP7vNPRuJWV97qUMm5dhJmypH/RSDtMfWSo71lnV3z4foqH1dyWwx9YF2k//c4w+yfK70x3d0H61L+aSz2qLdNF9rnHqfan+IE/MWGZ4F/ucC6mqfoOqr7WvZ5McEsmknIpfHRPfK6BvItAHwvS7EwALOhsci3jeuDu37wp1y9NIWHXUzmmzGt75pVWiXBX9L7lL0+K2Y5Hp/ahxqHd+PvtU9pf897rXtij2dRyEe0dnHOXU5UCUWNX6XmH+nkCQrbz5rskfCVe/720b4y7/8t/dtSd5Szvcka0lCjzDZCj0ZpCyJbWzkvielRxPE+nY6b4Gx++NX/+b+e4/NqgyS8E624xf+VlnKT7FxCszvzMs+P6fn481JzWvzsstN9LbYrvOUOuZ2ZGp9nolLPY8PJf6kb9Wv3o/Q18S+HnH/0ER3Whto02Mf2/E/7SbZTmTSvq9nYWUj5TUWkJhuzb8wxaDrxc/aZor9ng9bsettV6Ar/h6JL2Su9D5sQZv4P9VvUWPWY0td4gE9RtSnTeYtP9imvPtDWdc3cUQGkEF2qhORy2Cie2X0hXFa2LM4U5eytKMsG3bqOsh1nSlHTzbKLP7RzWeVj1z1o5I2+WRz2dtAH0rsTXWVSa7HFRmY6o7GOXb43Ot/j2faVVuU4Qff+xy4BLGZ++oTcAjKm29kI5d+Vl9T10kf+vw7hb0EMkkWMshSX8umRJfELcncKYlZ9NZEM5yS6OZ+arPH9IY67ae6etW+1uS16ofaz4/80R+/oc+n2DgF5lOdK3V+TnM1iVjKjpA5XnVBt41e5KI/zyCffX24BPEr6/Ap5Nmc/KKfva+9bzDZTxIEfK91ocasgk/oQ28tx7euN/e9XZWtOirI4Adt8vfAtf97NtLvxDAklnX+rfo6sac38aN+TzZ2p3is2q6o9vdiG4jBSn/01Zjv1aV80llt0S59Tz1103zOD2Jq/TT2IXYmfR1kMl57IDvpEJHLYKJ7ZdRFncV8enOYxTobc61jI5jKK+jvmwVgm3J+nQcddTOKzb6IT3oAXdkssnFkM5s2wIcQvd23o8TP6h8+EwN+zY3PqU1kplif0/8cUHo994nzauwuRXyt91Mf0398q/X9fuISfTia6HLlTWnawFuV6NaEMDYukejie/oJ6Qe6ayz2+rWV6Nb6+Bybp9g4hTr3ua/zs89V5typiW6euWk+dtvoRXbSjwyytOl1l2TLh4nuF+2yjhO/yBHHGktIbNK2xheSSNQ2PWYV7E0JBuVZM/je29f6+N/jTF3aUFft0K96v2cjbVbxSHm3s0faY4t7fk059kLsZtxWPkTH5EOXOQKy2duOtMOvlVx872O0Rdrs2UbnNHY9TpVaT5ymeQvp06Qv5fV+y2aIzqlORC6Die6VURdGPrP5rOiLKBtB3bAnaNM3i2w06OQTHadsVCGbbN0EsJf72Jk2CTYhNm18OMf2Q4lv/ONLfTNMXfeLflCeWD6k/2mLDcjYIhv5PnZVd6jyp1L1ZTziRwUZyrs/+H3O/DuVUxLdfiGXhJPv5ya6WzaSAG696YyN6jf3pya6ST6nK36kX9NF3UpH96H2Bx/xNXV7NiJ3Csyn1Xyv34E5t0p0M5drUpDnbTUXsV3XWuhJRaA9emizqsPfXncK6Ok/+OT76uAOW37hT/q198xegtir8c64JDaMZ/UlY1TL9mToax2nxCB2j9jI2Ncxox1lmXPRO+mi/Nd+/XffUJ86dKbfU1t+8wfd8aGOXfe997Xqqb6viI30KX51nR3kV/oTl+r3Hmmz5zM6kUM+ZbSJ/xPU9f7R5wl0Tfp6GfdT+wlkqy442l8R2cdE94rIIsyCmoWwbmqTPAefuuizEWy1ARbXvlmg67VD4q/eYJ6yUUEW/96O8mnjqLLpL/fxZasPe6Cn+xKbfFbZUH04pS48pP+QAwrlkae+HjpoV8eOe+g6tvzcIr5GT/e7y0G1j91z5t+pHE10kdn6V5cfO9GFmgAiH39i46GJLkRHvaoPEL25+J5E9WiiC7HFZy2HLRvnwHzieahkTmYO8pm6vXkVWeZo1tpJDrBd9fEM0i7PYmXrudtqdwr1Tx/qWgGrxGRr3UK+HvrrcxxoF931e9rXfvV4ddCfGG3ZZUxShxzytKu665hDHcfuJ/CdMvQQuyM20iZy+Zf3+5ypuiD9SexjM2NW+7tqG7oPPb5TXyc7lfg16QvoXfkE+L2nHx1T/UTarHSG6lelj0nosSBOq7NF+gRdX+/vJDPR2wX8wK86biJyHia6VwKLIQs2CzmLYzbHSXYL2u+1RX9fpPvCvdpQJqJvtWmuNoVsQtTVzXFrM9oi+vBp5QtgD5l+QNjaoLfq4KH9576OXezhZ7WJrmqHtpSl/tzYoSPjib1upxPfewxrH6p8BZ+neFySmug+JNGStxbmU52H9Vmq309h9WydCm3zzMDqeel9OIf6fIb67KVPvT9Tefzuzy6xrGV5xrHNfXTVmPO99o371ZigZ29teFYgBvx9by1L/xOPU+nxfGpin7Hv82RF+kyb6jdjvOrHNOf2OBpbdNb5BrTJnKt9DFWecWWO1/oKuqC2ic5P/defe5PuU6jPxdQPETkPE90rgYWvbgx8nxbLib6AshjXw8S0+FdbadfLLkXdiLaofT7Vl7Q9pV02vbTJZjvp2Krb42j/Q2xNG2Efyz7Wp9q6NMTnnPl3aUx0b5+HzvX+/D8W+IivU90RaHukPc8Za0aePezWNQId3G/FjJggzydyfQ0iVjUZrvLcI7v6F+mx39eGZ5Gsv7Wf8FD/0fUU8+0aScyPzPOHwBjsvdGljnGu+9W0Fz+Eh64JIvIrTHRFRETkLeVaEt2AvzXZeYjv+aHDpRMmEZHnHRNdERERERERuSlMdEVEREREROSmMNEVERERERGRm8JEV0RERERERG4KE10RERERERG5KUx0RURERERE5KYw0RUREREREZGbwkRXREREREREbgoTXREREREREbkpTHRFRERERETkpjDRFRERERERkZvCRFdEROQMvvSVb9595rNfGOvktvnghz9+952Xf3D3wjveOdY/a7zt7S/cfeOl7zpfReS5wkT3innXuz9w99K3v381Gy1wOGCzZdOd6m8dxozDEZ+9jgPI8xwbkafkEgf/UxLd1XpNe/RQztrw0EQk+qa6zimyW4kdOo7qORf099icmmwix5gfld8i8+eUNXsVp+iiP73uUmR+rWxkLqx83IK5/fIrP7p75Yevvk63g85nafxE5PnARPeKOWdDqmRzrZvTRN2csDfJTEy+sbHVgwH3U9vQN8aH2D/a31A3avyYZI5Q/chhIvfhKQ46Im8Vpz57/bnPIX2S7XDgnn6Q1IlP3VZnb41a0f1YJbroZ02gHJ/4fsrhv7NaYyaSoOzFANA5yeEn/Zpifuq4d6q9yT6xOxqr+JLYoGuyGZClTddToc/Yn/rewUdks8bXtvHtMdf/qb+1j9QnNvhR6/CxJ7KVaQx+67ff84b7Z3H8ROT2MdG9EtgQpsX8CGwMMJVXG2wce5tDdE11lZVc30C3Njra943xofaPkA0V36b6Cv4d2ahXB4XEYlXfD8si10ieqf48d47KreA5XCVdnYfYQj92aJ9P9E2yIW36WtHXxA7+9XUBVn5T3te+1fqyRdae1d4TG6v6owlMZSsW2Ot9Rv6onXP2BPSif+rfEaq93rc6TpmLyET+kkz6+zyZ5k1Yzd1TQPdTj5+IiInulcKCv3U4WrG1mU0bUefoZtPl+N4PAWxwn/jki8uNjjbdn653xVG5iVMOHfh3ZKOeDgr14IOv3R5t0M1nLQ+/8Zu/f/fTn/7DHRef3E9yl+IP/vBDd//085/fw/dJ5lngHD+/972/vo9jrqfoY2yeMnY/+cnf3rf50pf/fKyvnCK7xcpP9Obas5Fnam99OSq3gueL56w+M9HZ1589Vj7wrNbnFjnskRhOawYyk/7IZh147/s+8qZkdNKX/kx1gD997ZvWn6PEP+ymLDYo++rXv/WmNYo2RxOYSreVvtaYwIuf+/Jm4l5jEx09JqcSPau4b9lJXebUql+V/KCh6zqHxJW4xX/8ZOyOxPHc+bPq51sxfpXsEVysk5OMiNwGJrpXCJsNh4i+4bIRrA5noR+CuJ82msAGw0YTedoe2XBWcpRVnfRhsht6fx5qf6+/lR7fCfQ9NNH96Mc+/aY4p81WohuSiDw0odnjnATyreAcP5860c0PKX7xi1/cfepPXxxlJp460d3zM7HeS9ZzWO3Pc2dLjud5ek47PUGIzv4879mq5ZFFf9XT5eLjpLOuAdO6h37sTO0+/8WvvX5P+yTzezGhPjqmRCVrULVLWY3hJEP/0vfYqNCmrovoWiU2tf1kK8ReLet2+Ox7I21qO/TU+lOYfAiT7UAZfU1b7ms/+eT+XL+2qH7xwxS+8wPmzCFkYn8V+63x26L251kYvw5r5KlrsIhcFya6VwiL/rQhbW3CgXrkVveVyQ6y04Y20fVOm2nf6CpTfx5i/yjx88hmin8cAOjDNCZhOmiinzb8VH3q69TmreScBPKt4CF+PlUfOVhxwDrlbS5c6i3tUc71s5NnanpOJ/qzcBSelXqAh9XznPLJVp7HyPCM85xOvm5Rda+e59XakLbdz711Abm+9qVN1tvEh896D7TFHna5zzqVe8AG8Qg9tr3NZAe6r5OtMK2RXZ6YYKf7E2hP/Sp2e6B31X5VF58yH/AVn2tfUrby+yEQN8aeccKX+FPjnrL6A44KZVtz7gjPwviJyPOHie6VwYbDZjRtBNNG0qG+bnD1vm8y1PVDB7K1/YpJDr05AEYvZauNi/a9Pw+xf5RTDh34x3jwk3LanHJQQH/iMG3wDzlcJEH52c/+8Z5cvLmscv1NZq9PYsVFsjMlgVWG65QkLD9RRyfXf/fD//7+HupP2R/i55S8Rl/XM8mGvN3M1X2EHotJBlb294j+aqf6mnGvVx+PPR2Vc/3s5Jnqz3PnqNwKnhWemfoMrp7nLVvT2sP93poyPccha3fWwMjQBj/ynCOHjtqHqheQx3++d58mP7OW8A8E1T53f6eYVHspqzYmf3ubSQa6r5OtgFz8Qg59vOmu8nvxjw/UZxy26HGc4rNVDugI1PfxhrSf/H4I6CXB5beGPv3Zz79+dujPCH4Rm1UfkD13LwrPwvjtkfWzr4dZB1kzpz1iWif7WvzQHxaKyHmY6F4R2QxZ7NkQWMSnxb1SNxFgo6mLf73vmwx1vT2yRzaPSY57Nkt0svlyv7dh9U130jvR5dAz6T9Cj0EFvRmP3NOm+83mXA+5k+66kXOfw8A5h4sp4eGqiVc2536xmW/VZ4PviV+9jia7Ndnq154fR/08ejCBSbaW9+tIPPsBJ3HrNo6wildsTOO+SnT7lXiGh/jZydrVn4vOJMdz3J+bo9A2Ovvhecsn2vVy7icbE7EVGymfnmfuk3j0NaBS18r4NvWB73XtA/QlUaGeNrSlDtnIT/ZXa3S10deqbmPVr+4remq7CnLYZR0lcaNt9wP72En8A3Zpt9Id0FX1TfS+Qu9v4B59yPKJXK2vcrTvfl8a9BOz6kdiQxn1fO/jxP0lEt1nYfz2yDqedbPvCf2+tsl+Qtvp6nuBiDw+JrpXRDaGvsmGrY00UF83gnqPzhy4Utc3lqMbSZfLRsnfBkUnP83lH6WgP3nTsLfRn2t/i8R1L3YTtOnjkc26xm46KNDXKb4po3411nsk4clmnKSFi004m3VN1NIGvvq1b75BftKZzbxu3lPZFiRX6PvIH/3xfRu+Y4dP6i7hZ3TkHpl+MAmTbJWvyWAv45MrftD/9CFtIDGquo4SG2kbf7lit8uuyvuhrI/ZQ/zsMJ+Z13vP2FG5wPPCs7u1bkQncqfQfeB+b03Jsz/5s0oW4h+6pySjMsnwHZspm/ysa01fV5BPXf0+tU1Zt1H7kPrapvsYup5uK3qnMal16c8Uf74jQ+yr7gl86bGbQCa60L83bkAb/I8/Rzjiy1ESmxrDlNW41L5Fjr5l7tJ+8rWS8ahjBM/K+G2R/SPrYdbBrJfTHpG9gE/a9D1pKqtrN1ffc0TkMpjoXglsNGymLOLZFLoMdXUjmaC+bgT1vh9GqOsbC7LZtPaodvgObFpVJ/fpT6+Lrdqnc+1DNtHUZzNFf94w1822yqyg7TQe2cTjQz0oRKb3F6hHDvmp/ih9s6asJj5TfTZjyv/yL//tmzbzvsFnc5+uqncLfEJfEl3gO2XUXcLPfo9MPZjEl6ltyhO76aqJYJfDR/qQ+iqTA88pTG1X+o6WTzGe5B5Cnoc8e3vUZx6y/lFXkwqeL35gxic2IldlYrs/yynvtgB9vZz7PM8rsnZM6wb+9DUgoLv6vAL7U3y4T9nkZ11Luo98ct9/rXlqm7LJRu1fr6cOG71/XW6yFZCrvlWdlL/2/f1v6Fsde2RWugM2er8morfPxy26/5Xq51T/ULDb5w0+4zvxqnMy86OW13HZiyN6p3n+LI3fHqx9Wbvrd+r29pPUr66sp12u7zkichlMdK8EFm8We6gbUJepG8kE9Wx4gJ4cElNXdU8by9GNpMvxq0rorRsm5bU/2dTi32TnXPsQG7nPhpwYZOOvB5f+n953esxWxFaV67Ho7NVvMSUvNXHJJls38LSBc9/ongo+oW+V6F7Cz+jIfRJlrqOJbg4y+FTlK9j9u7/7+9djMela6T9KxjB+RB9X+t9l98oTrzqOD/Wzk2d7b31ayfVnN88GP6BClvusaZHdeyaP+hSQy9q0B/709tMaEB9o09eRvoahk7Up/zVL1qgOfva1r5b1fqMH2/mv3rreaR2abFR6PTrxuccJeh+7rYBcfM59l03f0INsre/3E+is/myBvvSh+rWi+1+pfk/1DwGbfb7E3qqvzEPmQvzlM7J834ojdo4kutx3PTUO3c6eXUDnqk+nkL2N9Zy1sa77fW3s+0m972uviDw9JrpXBhtAPxCFvpH0Ojbk1QEJvdm0YbWhHN1IVnLYqbp7f3Igory2Cw+1D+lr7BKzyGJ/OuytoO1qPCrT5t9j0Tmysa+Ykpee4CR561c29VX9tMH3q9rdAlvoWyW6yDymn7Td0sFFvHK4mS78SLynq8YiB6j4PlF1xb9Au+mKjS0/YjM6Mg+muXLEz1NgDjOXV+tT2JOjvK5PPLeR7WvJHkd9CsjtrT3Yxodp/eprQPoS+3XN6r71dRG5xID7yuQn99GV+96e+knntE5NNirU1fqj6+rWmlj7gByx63GmHe0p7z6s+lfpbSZiO3IZm9XeGpCvY1Cpfk/1EJmVji3qvOxj0e8Tu9q++r4XR/TsJbqJYe/vU4zfEfqekbVyqqtX1uusn9NVdYnI42Oie2WwAbApTYe5upEcJRtg36TRVQ9htfzIRrKSw/+6WaU/9dfmKJtsw0Psow+9fbOkvMomJnubKtB2NR4VYkuMsV9Z2aCMuiN9nTiS6EJP8LYSK3SR7CWBnGS4TkmOkEXfVqILD/WzJoCU//jVv7n/Hj1df70Sr+mAU/2YDjfIJ/5pjx/4k3ad6uuqn7W/q372K/FM2/Srz5Wjfp5C5vP0TFdWcjwHPC/9eeC+yuY5O/LcHPXpUiQByFoH9dnPuoM/fEeWNulT9bPWpyzQ99r/LdmwFYusx51VjGs/pvotaNPjEjLWUzy6HG+90YPvKd/SHXrsQuJDv1c6apwm3+J/L4for/526Ddx3RrHFbXvsRVfVvfxpc+fqov7DnLI066Wv5Xjdw7ZE+oaHuo6O+0nXYbrkuupiBzHRPfKYOFns+PXbbOp7jEt/DmMsOGsNs7pwIKuycbEZBf/62bFfeSrnZRjv26Y59rne7WLrcitYpANeepHQE/3cWLa/GssgO/V/yN6n3WSNNXred3wkwhPB6dnicfwc5rfW2QtSLv+LEdu9Yxk/ahrSie6t2Sg2jsVdNc1bmstAfpCn5DFt1/79d/d9bG2gb6e0Ra7Xe4I+F7Xqa5zsg9dfsXUFntVJvFPv7jfimPWbfSiP+X4vOXXNB+qf92vFdFDm6oLn+t9JW22bEzjcIT0oerGjxqfHhtkU09djTf3GasVVfdbOX4iIia6V0bdgKb6x2Zvkworub5Zb+mjj/S11m/JV47KPRQ21bdyPJ51THQFjh5Cn/Kw+jwcjFmX9t7mPi8wznXvgSRVSdCSjNV2zwrsZ+fM1VW/2bfSVz7rD2LzbHzsj//l/d/B15hM+ipd16W49vETkbcGE10RERERERG5KUx0RURERERE5KYw0RUREREREZGbwkRXREREREREbgoTXREREREREbkpTHRFRERERETkpjDRFRERERERkZvCRFdERERERERuChNdERERERERuSlMdEVEREREROSmMNEVERERERGRm8JEV0RERERERG4KE10RERERERG5KUx0ReQQ73r3B+5efuVHd9946bt3b3v7C6PMFh/88MfvXvnhq3ef+ewXxnoRERERkUthoisiuyTJffFzX75PdL/0lW+OciteeMc7777z8g/uXvr29+/1oG+SExERERG5BCa6IrJJ3sTyyT1vc09JdpPkRp43utxT3mVFRERERC6Bie4N8b3v/fVdvf7p5z+/+4M//NAo+5Of/O29zJe+/Odj/bXwqT998e4Xv/jF3U9/+g93v/Gbvz/KyGtkfhAv4jbJVJLQrpJSEte9hDVJbv91ZZNdEREREXlMTHRvCBNdE909Ei/Gf6oPJLH1Le6K/Erz9Ha3vgkmoSVprokt5f4as4iIiIg8Bia6NwjJLUnuVqIrMpHENW9gc0/COpFEGPkkras3wVUmZXnji/w5/8CViIiIiMiEie6V0d/act9lVolu3ubV65w3ut0Hrq4nb4xzpZ63rrx9zYWP3/qr7/7y7u7u1Vf/3ev1VWd8T5+6/umNbuKQq8cDVn4eZYppf1uKznqlfi8WxDn+1XFOv7CLfcq6H2/VG+6eKHcon97+TkmwiIiIiMi5mOheET0py9UTqyRCPbG7RKLbk7ZcsdWTt3rRdquei4QuftZ+pe/xt8eiJ3ZTX7mSHO75GT1bJM7TFR3TDwW48P9ILGKj9i86k/yuxqTHRERERETkecFE90pI4pZEjbIkQbwFrAlNypN8przSE8dKT86SUNW6WvbjV//mdZ+SdNUkayrjk3uuqqvWpa9TshcSl16X/vGZMuz87Gf/ePeRP/rjw35uMdlGR/oTv6cxq2W0RQdXjwXUsYpsxra2pb7rS9mp5G90+68p59eSe13/1WPe0HaZFf7asoiIiIhcGhPdKyFJWE3cViSZSjI0yZyb6E71XNEz1eWqCWFP2Kp+SH/RV793uSnZjO6aTHaO+rlH7NcrYzTV5ZoS3VUsoge99Tt1GevVNY3vEUh08+vHSW5ropu/zQW+n5Os0o5Et+oSEREREbkEJrpXQhKcmiAlybn0G90t0EdSFr09qUxSupcs7iV36QNvYGEll7h0e+lfEkIgud16o3sO6K8xTALNZ/pQx2xiLxa1ns+qL3Vc5ya1E4+d6CbJjQ0RERERkUtiontFJHnrV5K5rbeUJEFJCqerJoQrkrhNV5K0mnj1i/I/+uifLOvxv9qr/en+rWKRJHDV19Tv+Ul9tTex8oErSedqTPDjq1/75uFYJDHn6v7Vun6dm/xeKtHNrzDX+iNJbn51+tQEWkREREQETHSvjJ441YRolVRxXSLRhUnH9CayJ4HRv5Vg9uQutpKc1rq9RBeZnpif4ucRVn3pyWVPRI/8UKDHovZlSl77uEwxO4W9v9H96Mc+ff+Zuq2kNW2Qe+nb339d1yQLNXGuCbeIiIiIyFFMdEXkTZzyRvco+a+H+v+v2zHRFREREZGHYqIrIod5SKIbSFy3kt3Y4M1vEt5JTkRERERkhYmuiIiIiIiI3BQmuiIiIiIiInJTmOiKiIiIiIjITWGiKyIiIiIiIjeFia6IiIiIiIjcFCa6IiIiIiIiclOY6IqIiIiIiMhNYaIrIiIiIiIiN4WJroiIiIiIiNwUJroiIiIiIiJyU5joioiIiIiIyE1hoisiIiIiIiI3hYmuiIiIiIiI3BQmuiIiIiIiInJTmOiKiIiIiIjITWGiKyIiIiIiIjeFia6IiIiIiIjcFCa6IiIiIiIiclOY6IqIiIiIiMhNYaIrIiIiIiIiN4WJroiIiIiIiNwUJroiIiIiIiJyU5joioiIiIiIyE1hoisiIiIiIiI3hYmuiIiIiIiI3BQmuiIiIiIiInJTmOiKiIiIiIjITWGiKyIiIiIiIjeFia6IiIiIiIjcFCa6IiIiIiIiclOY6IqIiIiIiMhNYaIrIiIiIiIiN4WJroiIiMhzype+8s17pjoRkWvGRFdEbop3vfsDdy+/8qO7b7z03bu3vf2FUWaLD37443ev/PDVu8989gtj/R60P9f2NUGcP//Fr411RyBOR2JMHIkn8lP98wJx+OrXv3Uf96n+FC6p6xIwD3hmnxV/njeyZh5d8154xzvvvvPyD8ZnEl0vffv79zK9TkTkqTHRFZGbIQe2Fz/35fvk6NS3FDnAcVA79+AdHXu2OVSSUIe8VallE1sJX2wfPbAmiZzsdHrynrax1fszgW85AMfXvQQ2dp73RBeIQR0H7qc4V6Z5SFn07OmoY/YY5JnF1t4zI48Hz29/xlcwZ+q8qG1NdEXkWcJEV0RughzY+eQ+CdLRw3MSr8hzeNs65CNXE4KjVP35zif3Vf85pA9HdSVGe/LEdDoEc6jF3t4PBBKrjE3oB+aJ+NjbViKz+uFEkqktHUehL1MsjhA/M+7nQNuHtGesz/X/0tRnLt/PGSP6tDePLk38nZ7th3Juf7bmBnGtvp5KHRdsZM3oz6eJrog8S5joXhlf+vKf3+Xi+yTzrPO97/31L3vw2vVPP//53R/84YdG2Z/85G/vZa61r+FTf/ri3S9+8Yu7n/70H+5+4zd/f5SR18j8IF7EbZKp5KC1OhhyKNs7NObQ2hO+rQNnPewdBfkcRPMd3RwM95LFI6z6sSKxmw62nVVy1OPAgTcxiz+rtvWQjJ7JbmcajzoH+JXcbutZSXQvAX3Hfo/BEd5q3ysZs+oP43POb1Iw/6Z58VhkPtV5n7n+lH50GF+Y6ip7yejW80IdfcwYRXZ6VsOzMudE5PnDRPcKISkkObzWpMlE10R3j8SL8Z/qQ5KjvQQmh7HpEEjb6ODg15OI1eEbXRx0c2DvPqS+lnEfH/Kddpc6COaw3e2uiO978qf4+Fu//Z57fTnk9ricyiq+lcjARz/26Tf1J+P/UF+AMTsai2cJ+p65B8To6Dy5NJmnUxzxc3retqAfT5lgruYAPr/2t8/vf0P5U4FfdYxXEKetH64xBqt4or+OD/d1HlHuG10ReVYw0ZW3jCTsW4muyASHKQ5bOWDlPslVJwkO8jmkJTnqB7oqkzLqVwdziK7U574eADvU5WDKd3ycfO9sHejj59QOuv/xc5Lt9LadvTGAxLXKVr3841Y17hAfM4YTkYmurif2qo4eqymu1U/IePVYMH6RgdW4x090pKzb6LpXHJ0v0P2hbcailj8F6W+NQY9p+rY15hX6V8cvcU7/a18zVl13t7ka0+g+Ok5dT+03tvDtE5988f4zfej9yT1yVVd86nMZqp0J6lcyq7rEKPEE7NZ5xHcTXRF5VjDRvRHyBqwnjXl7ypux6a3i9Ma0/no0195btYn+1pb7LrNKdONnvc55o9t94Op60v9cqSc+xCkXPn7rr777y7u7u1df/Xev11edfRy6/umNbuKQq8cDVn4eZYppH1d01iv1e7EgzvGvjnP6hV3sU9b9mOLxFHAY47CWg2KH8umgR3k9NE/1HIA55PHZD9OV2Eib6dCc+l6+Igfeo21yaN+Tpx/Vx8SPQ2/K+wGXz/rWqN93vUCC2mPBd8q2YhmZ6kv9F6Hjb3Tkvvab73VsVzK1z5QxRjUp2RqD+Jm51WV7P2pb2iSJ6brTbrLZiU1ikT5G74rJn3NI/PpY0rduI34mVlugN2OQWNR2e/W9rMpz3+cPn0dig76qp/cpeqoMdPuJW7U1zU/01n5tQXts8HmkPL6TbOc5xv9uj3ITXRF5VjDRvSGS2CUJSqKRxClJRk0ukqCkzZQccvWkaIvo7FfX0f1L+ZSUnZrY9aQtV2z15K1etN2q5yJO8bP2q8ezx6IndlNfuSijbs/P6NkicZ6u6Nga9yOxiI3av+jkk/vVmPSYXBOrQ10Ozv1AX+GAyiFxS5b6epDdI4fRU9o8BHzO4ZtY7CVN1NcDdG3P/RSLI7GMTNVFDNImvuWeuFbZqiMH9y2ZlKN3SgqwTflqXsRG9wtow78azq+Ap6wyzQnaxx42kOm2IfNj8q2C/tr3+D2N6RFo+9V/85dv0FmZYh1WsaxUGeJGXKs88alzr+us44AP733fR94Qf+SQr3GfYlJtTGP7Wvn778vQySftukz3j/uqeyVHHDO3jtDl06faz4BtfniErf4Dqy5noisizwomujdET2STWCTR6PWU1cQsyUqSLOqnsp6w1EQvNiYdvAWsCU3Kge8pr/TEsdKTs/Sz1tWyH7/6N2/qQ43FVMYn91xVV61LX9Of2j4kLr0u/asxxM7PfvaPdx/5oz8+7OcWk210pD/TGE9ltEUHV48F1LGKbMa2tqW+60vZqXBIqwfNHBqnQyj0wzQHui6zYjqIc5jjUMwhtB4OKecA2g+wFeRzyESufs/hlTLkODxStjpchtidDqqVyE393CO+oQdfE5d+wOWzHoj7fW9fy6qNjCXlkelEpurik/ihB5s1kUEu8a5QRt2v/frv7sqgB31TjKD2IXTbud9q06FtHd/oqGV1boXEgDHYs0P79HGqvzQ1plP9Hvjb+9RjWxPFOh/SfrJPedoD97W+Ep2xg+5qc2Il0/sz9Q96e+LYx30L9KE3/ToyDrTJc4x8jc8WibWIyFNiontjkGwkOanfqZsSnpqcpH66qh5k61WTtNTVshVJppIMTTLVv15HslWvnnz1eq7omepy1fj0hK3qh/QXffV7l5tiH901tp2jfu4xjW3G6Oi478UietBbv1OXsV5d0/gegYNWDmk52HKgqt8jy/e9Q9wE7Y4c1KovHAI5QG4dcpHNoRQ5/hEbDpH4mPKqk+8pX9EPrkeoB1fup9itqDGlPYfufsCt9EP9akzoZ+wf8ScyXRe28ve62EZHZKdYUkb8fuf33rspEzvomxKQFVu20ZU4bemkbR1f2vV+x06NWdod8Rm5rvMxqTGd6vfA3/QJ+E4c038++9zDJiRWNaaU055P7qOzykxkniXO3WZnJVP7M92H3j59qjJ7xGf6e2QM8KH/wKpCOfXdVxGRtwIT3Rsjydbf/d3fvyHRgCQfSZBq8kG73Nfk5lRio+qI3ku/0d0CffQzentSmTjtJYt7yV36wBtYWMn12Kc8/avjRHK79Ub3HNBfY5gEms/0YW/c92JR6/ms+lLHdepYbsGhLofPeriv3yPL91MP07ThANgPuDn4UncqObCiM4fS+Ma/GNwPrrGdA2ntUyd+dX+3QLbGJbHb8j1ta0z7AZfPeiDu9719yjrp01a/4/Oki78pzD/2Ex3EtctGR8ZkSyblR8ak0m3QN8a8yqCT/tY4VeqcQN9r/8rvG2XjVx8vwNepvNLnxGMzxfoU8Dd9mvpHWX2uUoZcPlNHu5RHNmXYwUf8neKXuNO2fq8ytEs/qet+Qe1P7o/I4Vfm1lHwhdjzfE82Otgy0RWRa8FE98aoCQVXTSqS0ExX5FZvEPeSoEqSt34lmdt6S4kfSQqnqyaEK7b6mSStx6lelP/RR/9kWY//1V7tT/dvFYvEc9XX1O/5SX21N7HygevIuH/1a988HAv05er+1bp+xY9T6Yd+DmwcHuv3yPJ9dZhGBwe9Wo88ZdF/lKPtYjOQ8GC/HlRr/3K/6gNwuMyBfKrvJE71gDvFbkWNaT/g9gPxdEBejUn6kdhs9Rni8ySXOvSkT/hAn2uc+F7jsJLp/jAmU/ySgNT61GWM+UTflh8d2kQ+/mxRdQMxqMnRBG2mWD4W9Olce5kriWmPX2LeY5pyYpS2gAyyNW6JM5/5vtJX+4HeGuv4mjLGYhprbNR2sVl1T36eGkfk0ZvnYrLTwScTXRG5Fkx0b5AkLVMi1BMR3vxy1USjJySrN3hb9MSpJkSrpIoL2w9NdGHSMfWjJ4HRv5Vg9uQutpKc1rq9RBeZnpif4ucRVn3pyeVq3E+JRe1L1w99XKaYnUIOahUObTl0JnlMXT0UdtIGOQ5q0TXJrog//LosB1W+1wNrBV+Qz/2UgFBffeYQiczqkElb6rf6WUEuccJX7CUOR/qOfHzuB1w+uecfVkI3oDcH6Pg6HfRPJT5X/RX6gv3ap9iPb+lHbYdf+BeZjFm3Q3lkoI4r39PH+Fnru43Jjy5L++jak+eNb/V1mmedzIsplo/BFNMtesz2xiPrQO935Ppc7/rxr8tmTlWQqXqg+1LHHh2ZG71N9TX3kV/Zq36v4lllJn8BH6mffMMnE10RuRZMdEXkaskBlO8c6jjccRis33ubPXIQ3EsGAjLIrg6X+DcdGimvh95O+jAdRqvNU4kf6K19jL2pTYX27//Qx+5lgUT2aKxC/Kf/SRimft4aifHWuK/IPCJetD815oH2e23Rf46P54It4tKfHXmN/qyeQ56zU/RkLaxrF21NdEXkWjDRFZGbIwnFOYlu2Dpc5gB4ysERGWRzoEf/lEyco/tUHnoYpX19U1h93gO5j//J//3+rXfaJzaTfKceuq+N9POcpJ65XOdzEpcj1HlGuz6vpvg/5Nk5FRPdbS6R6IqIPI+Y6IqIiDwyJCskkCYsciomuiIi52GiKyIiIiIiIjeFia6IiIiIiIjcFCa6IiIiIiIiclOY6IqIiIiIiMhNYaIrIiIiIiIiN4WJroiIiIiIiNwUJroiIiIiIiJyU5joioiIiIiIyE1hoisiIiIiIiI3hYmuiIiIiIiI3BQmuiIiIiIiInJTmOiKiIjIc8fb3v7C3Ze+8s27F97xzrH+M5/9wt03XvruvdxU/1h88MMfv/vOyz9Y+iUiIscw0RUREZHnEhJdEtqpjkTzpW9//+5d7/7AWL8Fes9NVkmsSbBPSbKxB708ukiee90W6Hr5lR9t9n3vBwVA/Sq+t0pifrTfWz/YWI2riBzDRFdERESeS0jkSGZXyRrJyqmJGonLKz989Z5zkzz8Ivk5kmTjO7JJZmvbcxJdfKb957/4tc1kO7q3ZLYSXeoSp1PYspdYTO0qiUf6MMlMHBnP6Dw69qsY0Zdzf9AiIq9hoisiIiLPLXlrRrIxJTedrTedlFOPrppwdrmjCdkK/I0ukraa/GE79Um6jia6tE3/0rba6tSkLn2f/K2sfIXal4xJ6qp87HbdXR7Zo/5P9eGoHByVpa/df4i/q3rmzeoHMyLyRkx0r4wvffnP73LxfZK5JJ/60xfvfvGLX9z99Kf/cPcbv/n7o8yzwKl+/sEffujun37+819G8rXre9/761H2kvzkJ397b4vPqf5Z4VQ/T4lnZIHvk8y1kDg99rNY4xtbp9i+lJ+MKdezvh50nJ+Pv1dswVxhzrBGs1ZPMivq2B1dj06FBO2rX//WfYIy1R8lyWtNrEh29hKTJEarZDT1U8LWk6rcTwlSWCXq6O++Rh/wvcqHrfihcyvho672qya6vQ4mfSsb8X0VV4jMlo8wyaVsivEW0VH7Gp3U0R/KiGkfJ9qY6Iocx0T3CsnG/xSHTRPdy7E6QOcQmOutjvXKzy1Oiec5+p9VniqRQD9XPeifYvsSfmaenpOsvNU4P6830Q305a2ce3sJUd5m9sQMaLOXnKySNUgCPSVslG0lT/F7ahsi05OuCv6dk2Bt9Quo64lg/Djal26D+66zQn1ko3PLR5jkVv5s6ay+9v4BdZGpfgbamOiKHMdEVza51US3krdUj53oTslKDtXVNt/fynhPfp7CU8XzeWJKWJ46ibmWtWAP56dAkhESn/qGkwSjJx9APQlGf8MGJB/oSQIT3TVRoW71JhW2EphVXRLg2J4SrJSho7YN3fctIjslYEA59Xv0eFd92Ej8kal/P93vA+2r//2+Ql21l/hMfk4cie00DqH6Vvuaeup4kxu67qmNiKwx0b0hcoD7u7/7+/sDKVf/CXh/s9HfWuQn77miqx5uc+DNdcrBt74tQQefP371b96k56F+9sNstVv1wNbBd6+vvZ5rlSBOiQk2u874ilzaVN9Sj13sd/+nvvZ4pW10VlYJVPTmqvor3Z9enmvVfo/4l6v3ZWvM6FO9/rsf/vevxwV//vIv/+192+5bfMf2NOZTsrnlx5H6kLh3nxKHGo8qc8TPPR2VaVzTrpbFX2zjQ2839eeU+bkienOd0o9anmvVfo8aS67el61xv8b5uWLyg3vKt2ToQ9Xz2JA09X/wh2SkJmNJXGqCtJKFlTwyyE4J0Co5WpUD+gP19AXZmgimfU+YgDZJoOPblNyF9IfP737/h/dQPsUK+F7tQY83PkQv1ESu+95lQ/o/3WOn/oCCuqojNmr7iUmu+7clG6pvU9JKXfzrvq/aiMgaE90boh/UcuWA0g+Cuerhox/SckVHP4jlOnoIWvmQC/2X8LMfZqOzHxChy4a9vm71pR8sI1vjxCf3yNb+/Oxn/3gP/kztur/9vvd15Wc/dNa21R5MB1KuSUf3p5fnin9VZo+uI1f83RuzVT1X/ImNjGFikvopFn28V3aiY8/PSVeP594zcMTPlQ7Kqxz60NvHLLGpfid+8bff93jmvl/T3Frh/Hzr5ueKyY86HvF7urq/j8mU6AIJB0kciQXf+xvVJDM1aTpSB5RPyQq2uh1sT7LcowdZPpM8deJLT8YuxZSMpTxJffWP8vpWlvKaTEPtb9pv9aP3v9t7lhPd3neo/vU5QVt0YyMyIrLGRPeGyAEoh9QcNPoBqR5ic9DlMwePehjJgYcDzh999E/uP7lyEMkBuJZtERvYi398jx0+H+onPkUHn9VuYhG90GVh6lcvi/+xiUz8j54w2aA9/nzrr757r+fffP2le130MSCXvqM7PtR+dN29r6mPvtqmltXy6ArxoesgIf/IH/3xG2RXOsLWWKQuV5epseCeeFCGzJExix6+c00+9HGN7NSf7g9Um7UNsvzmwX/9L/+bw36mvM71ENt8cl9jV3VU2VV5/KSeK32PXMpjq1J1x98a1z4f4mdkUl91b5Xlij6ID13e+fnmca82ewxPnZ9HSfs6j3s/KEP3alweCxKIKdGFmohMCdaKJDo1YTkKbZLIYLO/LZ5I8rRKnCbO8W2iJpKrfse/WhYor/L0oSZy0f/i5778hoSv0vXXe9rXxJq6ai8+r/wLk1zKpvhuER29r0Dd5F/KqO9tRGSNie4N0Q9wOZTlsDQdevjORd108KhlHIDqIa9fRw5A8anaw9/4wedD/aRsLxbRC122yq+u+Ba79cLH6IHpkJe22OBwyWfu8QMd8Sc2at+rje5/7yuyq6vqWfm5Kl/R/elsjUWP+yTT+xO/ett+TfNp5SM2ord+n+S4qu6t/tX61VV1YRPbda6HyfZUdkr5yt6qPaQNMvV76i81P6MnV/Q5P9+6+XmU1RjxnbJ61TF/CrYSXZKKJCenJBc9OTmFtMXmkSQXsFMTsEr0TYk6fSd5TB9PIfaSiFY/a4K+ZR96YrdK/qrNTu9/vUdfTZCpq/ZqvI9Q7az6lvLJ3+7b1NfqHxDHJOtTvYisMdG9IfoBrh9oUl8PEjkI8Rn5ehjJgYtDyvRG91RiA3s55OBX7PD5UD85VPVYpD6xiF7ospCDGddWX/Gn1k+60s/4Vsvxh7/Doz5vdn/86t/cl0dvfKGMz9pv6DZ7X1Nf4zmx8hNq/FOG3ku/MdsDH/nBQPyruqY3USsSo5WPqc/ffq9il7hUe3XuVP3Irt6YrdiKZR+TxIKr6538nMqnObA3Xk81P7fosQD0Oj8fd34eJTb73MBmtbE3No/BlOjW5IdkJAnh6o1iJ+3PTUhIZqbEakVNnjqrZGzFlLhuUeXxI37vEX+SuNGe5LjKUN7HotuHahdZ/hGnxIM6ypJMcg9pG/17cT4qB0dljya6lb16EXkjJro3RD8k9ANb7vtVDx85GPWLQwqHlRywpuvIoSg+YCeHavyNXj4f08+9WHAd7evKBy7q0+fV4S0+kODySf/iE7qrbPUl/k119TrS12pn5SdkrPqVMTkSz+ifrhqvFSsfuI6O2V6sYgtd6MxV/dvyI/Hcs7PnZ/UhMY79sPcMHPEzOmIzbaKDsvha50qn9qe27XX1OnV+brHqa2Ln/HztSjz37Oz5Odma1o0QfzMelGXuTVe1cYRTkpBOT3RJIkiYelKbZPfIW9b4c2pCQuKTBI/7JH97NpFf9T2+HEl0ke3/dyvf66/+dqhPovvif/OlN8nhV0/mIH7VBJWymvwl5ty/930fuY9D+lHb97EK2I5+mMYjevbmzlE5OCp7TqJL3Va9iLwRE90boicqOdzVQ1I/8O0doPLGIAc1ZPpBqh5e9oh9DjnRg785WOWAcwk/60Hqx798Sxo9XX+9jva1+5CrHtJip/tf228dEEP1dzoEbvWV+snXanfLzy6Tq8r2unolnpmf03X0YJt5Uq/oj8zWmE3tuaZ+x989/fVKIjHJneInxNeqs5Ixr2Nf+3HEz7RN/NMmvgLfu2+dOv7TWFYff3zG/DxCn4NVf6+rV/rq/DxtfnaZrfFK/KuOacy5jsa6UpOtqX5FTZZIMGArqTw1KTqSkFQfetITkgDHz16PnZVP0X8k0f38F7/2et+TZMbuKi6UUTf5hl9pP9VPJPn76Mc+fd+mxjC29vREribANc41Finf03lUDo7K1nGtrOZNxuSIDyLyGia6cnGmw1o9YD1P5DC66n9iVQ93yJ56yH8oe37K01KTgHMO/pci87MnQSJ7TPvAlLBfgiRHJBhT/USSkdcS5Pfffx5JTI8Q3Vv6aiJ5JAmF6KVNTXaws0p+0mbPBu1rsgU1uV3pSbLW/aEMedpRlv6uEuYQfV1n2Er2pgR3JZN+1JgeYRXnSnTuyeJDjRHQJvOmzpHQ5UVkGxNduTjTAccEas3emxURkWuj7wOPua5tJXpb1F+1vWTCE11bie6zBH05Ej9iRb9qEsmb10988pe/kfDLBHer3yR3e8nuU3I0KT0qB6fIisjjYqIrIiIiIiIiN4WJroiIiIiIiNwUJroiIiIiIiJyU5joioiIiIiIyE1hoisiIiIiIiI3hYmuiIiIiIiI3BQmuiIiIiIiInJTmOiKiIiIiIjITWGiKyIiIiIiIjeFia6IiIiIiIjcFCa6IiIiIiIiclOY6IqIiIiIiMhNYaIrD+Jd7/7A3Xde/sH951QvIiIiIiLy1JjoyoP50le+eZ/svvCOd471nc989gt333jpu3dve/sLb6pDF/W9vEI72r/yw1eXeraYbHzwwx8/rGvlPzpefuVHz3zSj39f/fq3ln0lPvRlqutkLI7Kb8H8eenb33/y+DGep4wb8sRoqoMjc1guD+O3+qHb6pm9FHkOMu79Hp5qXmDnMfv6FDCGrAVH95SJa1qbnD/Hecr1FTucM47MIWTxrZZtrUkTxJy9+bHmmcjziInulZAFdwWL6ee/+LWxPIcFFutev8eRDQX92DmyGfQNvLddbWLd9yN+Tax83evDVvypS/tavpc8JRa1zcS5fV2Br2ym02EGW/Tjve/7yBvKtyBmtEHvVB9WMUz/aP/UiS62GCf86IeUFfi7Jbuaw6v+bzHpkZnVuOQ5Wz3bdQ6cQp3z/Rngk/vYxAfsUDY9K/hddePvb/32e+5la3llen6xR92qryvSrpL1axWfx5ybxGPrGTtKH5cVq2czfaT9am1y/jxs/qzqVz7Q18ecewH7+PXi5748xryDT33OZsz4rOUraJ9xmWJaOeKTiJjoXh0sgCQpJCJ7P/ljoayLIfd1c2Nh7vd1oc6GQj1y02J7hGoDf+tP6rtPe5tYfKkyW/71zaDHpEJd36gmetzQhc7qE997LLtv3VbX+5hMcaT/OZxU2ZB+9n5scUp/0P+UiW76wzjkOzHYkp36uMVWPMNTjvuKvbF/SjI3jzyLgM/TQTkxXdWv+ovd+lyErXGiTfUXvcyXrj996/qrTcYCmSQq05xEtsfnlDna7cdm+lafRahr9qoP54LtyccjJAbnPJ+rsZyo8ZjqK3UsK5StbNKmjufzNH96ffyY/IZVfC9J5mR8wOZq7MIU09U4TtB+z4aInI6J7pXBIviQRLdvWHtMG8reRrO1KVBXNwO+T3YrdcPrm2Qtq3LQN1CI7zDZmqj+Am1r/6Iz9fix6j9yXV/oei4JsZgO+3vU+cPn0cMebMWhsjcv+7hegsyZ6h92jiR7W2MIp44jskfi9Jgc7ftTkLHZinFles7r3ENPn0O0WR1AV+O3Gifsomuau3ukj9VmfN9KVJBPW0jMondqA7SZxhn56hdEDqa145Q5fgr4OMV5i2dpbapjWXH+vLE+/lI/Jbq8SZ3aVU6dJ0fAr6mP9B2/4mct737x23VbY9rnBzoeoy8iYqJ7NexthnXTCmw+08LcoW1feLdAdrIH2TAnfdnw0rZvcLDyhfKp3/DRj3363mbfnFcb6LSJUzZtbmEr/rRd+dd19thxP7ULj7X5rcZwVQ7E4DEOkwG9xDj6t8brIUTv5NvePIC9MQNkprYTyD7WOB/lSL+fiqwhq3nYwee+jmTuZW3ose1zrYLdafyOjlP8P2UOVJvxvSYq0Zn5RXn6m7r4Rp/qOhudvV0lNtM3ZPKs9/ie07+jYCN9ruWrMQnV36m+0/u7B3rrfFn5Cc6f0+ZPr+dzFVvYmwsPAd2rPgJ2V+skdTVmgBz6It/7DvSztqPusfon8jxionslZOPIm9z6RndaYIEFNIt2Nqpz6ItuX7yP1GWBR1985bP7zf3WIo9eNpoqE919Y0S2bqC0wX6Xy8Y69bXL0BYZ7NWDxOR3xqzGApna535fiZ0cHi7Jyu6WPzVOR4n/W/MvBweoc6fGvPtyLujuhzi+1zjH15XdrRgBdchMdROnjvPkHzqIFTHjPs9E1YtfNe61Pd+Jyyc++eL9Z2RqP6OTsqor4xe56Et91xO6P4lZtRPZjNtki/v6nAP20cEaiZ4+HlObMMnD0XFCZ3/u9+ixwM7WG7kK9TVWkBhWnXt6JmosMqbn6DnKKsarMQlZK2p/94id9Gsi8w2Ork3On19xZP7Qz7rmVHu07b6t4vsQ4kO3NRHZPpaTr8jWdSZxXflPn6c1TkTOx0T3Ssjmt5XoZiOpsNFlkV1xzsZBm2lTWJWjnwWeX0eingU//lc56rZ8oY5+VZlsHtMGmk0GchDqcvEZndX3+Iz+tM/mS/mU6FZfMma1j5ON3FcbqYv9yF+K7sdeOUz92YJ+dP9XYwV1vLjv8Xgo9G01/t3P2F7FKM/XCmRqG/RMckfoPiSGtTz607cau8jXPhJrDlSR55P2tOnxj53oQa72j+/1cIaueh89abPlDzKpj93U9TgE6uu8AXyI/hqLrTYBO338gLLq8wrkMnYrup5qM75nfZnaw8qXLftTm8R3kt9jNSbnED/qOIXVmATG8VlZm5w/x8HvrdhSx/c6rntz4VSwg//YiO3J15AY4EPaoYd7fON7/O7/kBXtaD/53/t9JKarMRSRX2GieyWwCLIZ1E1sSnTrwsd9XWRTNi2YE1m0J7KQZ5GHyV7gb1aqr70+bG1i2QjwjVhELpsH9qs89rKBIotMNpLIpBwdkSe2lOXQRV1sc582JrqnQ1vm7dQn+k3/scN97L3/Qx+7j0Ofn0eh7Vf/zV8uY0l/V3XEo/qUslWMgDpkproJZE8d5+pX4sR9/Kqx7HENtd/IEKvMvcB9DnPIId99TXm1zbOxVV8PiIEf3lH3a7/+u6/LI4Ns2k5EZhr3+IkMMYhN7HD/O7/33nu53vYo3a/0lTnOmlfrAm16O+4zZ/ANHVlfOCwzvqs5yGf1aWvuUVdlux8hOpFPG/yaZC9B4pZ52vs0Ucc3z0CfU6dA26dem3r8n8f5Q9yrf3zid+Rr36b7Z4UaG34zhj+b4Hudpxnf7n/6XOfYBO2qPhHZx0T3SmDxYzPIG1HKspkA37PBbS2CR2SABTV2ViCThZnNKonhJBuiN/Lxf4v4i25iAKlDVzaPbrtuoC/+N1/6H+7f/4YNFF+q/uiJ3qorG1HsVtCHPPqqLxkz/IieHtd63+Wpi2+RP4far3NY+XcOPU58T12PDXaI+UPsHQGbe3HGtyk2R6h9mjhnnGtsmGu0r3+Pis3Y3fI98uiYkk/u81xnzKb+TDGkTbVV/cm6EdlK7CCD7cmvCnV5zlOWmFR/qo/Ur3xADh97+ZFxqnrzw71az33GrZZXm/E9iUr/NwgSn8nHEJm02QLbdZxgajfJUdblzoG+oO/UMQm0eVbWppWvlKHX+fMrKKMv9fnlE7+jo9ev4vtWUfvF96kua9gUe8qpp48Z+6qjcmQOicgbMdG9ErL4s2j2TYTFjwWV8r1FEJksynv0RXuiLvLT5taJr1MdUDdtYtkgsmkjk5j0jTxsbaDY4Ts/ea0xo27abNIWeT5pk4NE9MWnHLjq9+jp/a/3yKEv8tRV3y7JKs7dv0qNJzJ1rqyoumhHf/js+jK+1acej8cCH0+JM/5wMJnihy58Th+PcM4413hhk09sEs/M4TwPR/QjOyWU6Sv1sVnHNNQYYo+xz31vR/1WjCKPDn6wx/fomuTxMfMoZfjb2yQ+yE/1IfHs5XtxjN9pi536hjD1q/jV5wa5ur6gM+2m/lJf2+/R+4eNSY7yzIFe13WcS/TTv9W8WI1JqDHpsVyReALtiHlsV319XFOPr3ymLKx8pQw9zp/XqP2s/vAZv7mn38QhsV7F91wS1+7fEepY1BhD7QcQA35rpY4xpD/IrOZ/QI72mRMiso+J7pXA4sdmkMW+kgWWhbIvgpTVxXeSmeiL9gr0TYv+ij291CHTy7PAE4e+UWSjwpfaZrWBYiM+9HhE1+QDUE5faxuI39XmNGZpD/jCT+3jC3V1o+O+27kEq3gBNuNPp8Yq/Z3kQtdV2/A9caAM3X2TJ26UTXP+kuDLkTgnbvhcY9f7yT0ytWwL5M8ZZ9oxv2ibGGGTQ2Gd9/jKIWsrjsj0fqU8bdP/7mvKsZ3v+DbVd52RAQ7mkzxyyK/iSX3tL2Cj+1lZ1cd2jwPsjRP1fQ5TFr+n+oBMYhbfaqJCG/o4HZQntvqPrd6/Lo+92O7xTYz2fDhK/IEj8Zmo/u/JAvXI5b624fu5a1NiQ5taDuhajUnqu53q51Qfqv+JxbXMn15f23LfqX19LPZ8mMCnjFXup/GK/+iu9f1+gnarcRGRGRPdKyELbzbgTjafvgj2Mu6n9hN10e6wOXH4jO7qHzamNtA3g042gV6eX+PqmySkrNs9soH2+FS57kdkectEP6dNiTbU9bb0i/JVwoFu6kP3qYKurRjuga3Jd8Dvle5ax2fvY6fKZ76kfxkDPhkj6Pq2/Lwk+LgVb0Am48JhsfalQ10OlNwnBivo9579icS0xghd3WaejyrHJ/exm/k3yURX9CBXx4rvmde9DUR311P7nL5QVv9Gt+vgM2WBtvU5B+Sq/s4q5rSrMahsjVP8n/zLmCRGvR7oa2Ia32uiknL0bPULkFvZoh3tu5+xGb0ZR8p7fKMj/kL6vxqjI9BuFfsanwnqMl/2ZKHKV9+r/3yeujZt9QEdq7GLD7Fdod0tz58e/9BthK3xpS7j+hDQUe3jO31YxR/wKbbTp8nP+A81ZthbzZ3Q24jIPia6V8LWQpsFtm82tS73k8xEbxcoYxNaLch105rar/QG6pCZ6qBvkrWsbpKh+sln3fihxqP6ln7kvm5CyNGGhLfqp03087nVzxCf+sGCtvjfYzH14RTSfhXjGoNKYhy7yKx0hJWuDjIZg1pOe3xNfB+Llf2jHO3ninPbZyxr28zbaWyQq89GlWFcaZe5G5mqO3OAMtpGps/d+JV62vDnBXyvNlf+VDuRrfK9b+lz1QWrMV3pP/JsTDpX7WIHX3jLjkyNU0j7PFt80q4nKuk/ZbSpOiB6VvWAfeq7H9iosQuUr+LbxyuyNak5BdqvfKfvq3Gp9rnfkg3U9/GfQGYac9p3XxP/lW3KJ12rds/L/OlzpvenkphMMd5qdwrojo46BmGln3bEOH6s5lfkoPYDvVuxB+SnOSQia0x0r4QsnnXBrbBo9oUyi/Sf/euvvGmxPoW/+Kvv3f3Ft16+/14X5j3wiTZ1wc8iX+UqffHvTBtdyvoGdGQDRU/62f2KXsrrPwxCG8qp5zugEx1VN+1WG1d86UnCJFP72vt0CtEX3ycZbE3j0+cWMonbFpOuStdL/+qhqMbzscDHrZiEo32uTP3PvKpyT9HPh1Kfh6n+rWJ6JohnxnSKd51zkae8Pmsd6qZ5QjxqTPKcoa+WVz/qePO9+hPfa6KCntjGj6qDz6lP0J8nmPoYm+lb+kB5j2/6ET25n2RPgfbYZK2t/m5BXNIuNimbZDt1bCa63q21ie+UOX9Onz97dB8mPyN37twLiUUnsQJiWX1PPCPHfY1FJ7GhT/icctqu+hb6XBGRfUx0rwQWPxbxujAGFlYWv7oRhr2F83kiG0w2rcTr1I2jbmTRsdrYMja9/FzO1Xe0ryv9lFG3up+4dN8fC3xcjZ/8iqNz6NpgPeiHzgnm89Y8yfqSA+8kE4ghcnmOoB7oKa/6esxT96zMW/qLn0f6voJ25+xXieHqfoL6HtNzcf48Gzx0TIn5kfbEq/7jWJdimv91DMPe3BCRN2KiKyIiu3DAu8VEV0RERG4TE10RERERERG5KUx0RURERERE5KYw0RUREREREZGbwkRXREREREREbgoTXREREREREbkpTHRFRERERETkpjDRFRERERERkZvCRFdERERERERuChNdERERERERuSlMdEVEREREROSmMNEVERERERGRm8JEV0RERERERG4KE90r5oMf/vjdl77yzTeVv+3tL9x946Xv3tf3usfgXe/+wN1L3/7+3QvveOdYLyIiIiIi8pSY6F4Rn/nsF96Q2JJYfuflH7wpoZ0SXdq+8sNXz6LanHQfSXS7/Zdf+dHdi5/78hvKwpS8i4iIiIiIHMVE94roiS6QcJJ4koCm7JQ3uugkWT76NnaV6JK4Tknr5APy2OST/kSGT5Jf9Fcd+Nh1iIiIiIiIrDDRvSKmRDeJZ00G34pEd++Nbm1X5enPKqk9pR8iIiIiIiLBRPeKmBJdIBGs5c9ioksdMsj2RDe6+MwbXb4D37EZPbHfy0VERERERIKJ7hWxSnQ7Namc6ivo5NeOSXa3kkfk6pvXU6AtPqGfz5rATm90kcEf7pMEBxNdERERERHZw0T3injMRPe97/vIffLI9yPtTqW+xe2J7kc/9un7+5rsfuKTL9791m+/577ehFZERERERE7BRPeKOJrokkge/XVkdFZZ7pNsdtkV068Yd5BJIttJco1M/dVl2lH++S9+7U36REREREREVpjoXhFHE92jctATXeD71q8yU/bVr3/r9Te/q0QXH5Kwdqjb8jE+rNqLiIiIiIisMNG9IqYEll/xrb9qfGqCOCW6QNJK8trtpZxEN216ohuZKfkN6E1/pre88YlfX57ai4iIiIiIrDDRvSJqopuElrIqk8RxSl4nVonuBAk1v2bcbdZEN371BLkmtNQj3/VMCTLtupyIiIiIiMgWJrpXBAlfEr/pH42inCSSt6A9YVyRNnuJbhLY1ZviJKkkskfeJtcEFnna8fe5vCkG/uEqyiITpmRYRERERESkYqJ7ReStKJ9TXU1+V29WO0cT3RWxs/JrBbL5h6fSjsSVJDf/AnRPciNjoisiIiIiIluY6F4Jqzeq+XXiKfFb/apx5ZxElzYktuHIG9xK70uS17zNxW8TWhERERERORcT3SuGhHP6FeYKMpdIdPPrxXBu8smb26qD/z+X7+lDfuW69oc2p7wpFhERERERMdEVERERERGRm8JEV0RERERERG4KE10RERERERG5KUx0RURERERE5KYw0RUREREREZGbwkRXREREREREbgoTXREREREREbkpTHRFRERERETkpjDRFRERERERkZvCRFdERERERERuChNdERERERERuSlMdEVEREREROSmMNEVERERERGRm8JEV0RERERERG4KE10RERERERG5KUx0RURERERE5KYw0RUREREREZGbwkRXREREREREbgoTXREREREREbkpTHRFRERERETkpjDRFRERERERkZvCRFdERERERERuChNdERERERERuSlMdEVEREREROSmMNEVERERERGRm8JEV0RERERERG4KE10RERERERG5KUx0RURERERE5KYw0RUREREREZGbwkRXREREREREbgoTXREREREREbkpTHRFRERERETkpjDRFRl417s/cPedl39w/znVi4iIiIjIs4uJrtxDQvfVr3/r7m1vf2GsPwJtv/HSd+8+89kvvKH8S1/55n0ZNl5+5Udvqn9WwW+S3Rfe8c6xvkO/6P8Uw8Sgl4uIiIiIyOUx0ZV7zk10SQJJBl/54asjJHdJ8pD9rd9+z708ZbSnfGoXkP38F782licB/eCHP/6m+j2OJJ3pG/qn+kpP8ntbE10RERERkafDRPcK+Y/+k//87gMf/pO7d/z6743157BKdJPA9USxJppdtid0R5I82mL/ve/7yP3n1q8Mkzz2RLe+ScVWv09iDfFn1bejVBv4+9K3v7/0yURXREREROTpMNG9QkhwP/apz10k0SX5mpI4qMlgfatZkzoSuKntEWoiyOdDEt1J/xZT0rmXjFJffe51UO8nu5UaUxERERERuRwmulfCf/HPf+Puo3/8r+4T3HDJN7o9eUzSt5fopgy6joCemgRWkKXNlAjC1G5lp5M+THUTW34mDpM+4sHfHqftFJ9TfRERERERkfMx0b1CkvQ+a4nuKpmjbZLAnjCiA115k1vf6CKTdpXqK9+nBPkI3VdsopfPWr5Vl/6gL77y2f3mfoqNiIiIiIhcHhPdK+RZSnT3Ek3afvRjn77/RFdPGI8kupON6uuKc5JL2sDRcvTTtxc/9+X7evo4/eo1dSa6IiIiIiJPg4nuFfJYiW6SUe6TmO0lutxHBvmup8v3hDGJbtrxrzJPiW7VyX1PdCnryfCKar+D3f7mdrIX+Behq6+9PlBnoisiIiIi8jSY6F4hj5HokoTVZDIJ5pFEt7ZFruqBJLOf+OSLb0oiU5c3opTxWZPSSWfniAzsJaSATBJbfOXvb2v/J6I38jWxXnHEXxEREREROR0T3SvkMRJdkrQkgCRfJGEkd/V7ZGuim/opkQMSwCrTk0x0kFRS15PJJI9Hklhkqt0tug8TyES++zWxl0BTh8xUJyIiIiIil8VE9wq5dKKbZDMJ3SmJbsoCclNSSpI3/fov9+iqb3nDVqJLWU0sV3Y7ewlpQN8pibGJroiIiIjIs4OJ7hWySnRT/gfv+xdvKN+DpK4moQ9NdJMgAsldfp232qAcvb/ze+99/Y3uBAkiOqdEt5Z1u1tsJaTxNbrxN/7VGHRMdEVEREREnh1MdK+EJLH1/9ENlFN/bqJLElaTtPqWNYluTxaTtE4JZk1AkyjyN7iUJ9mLzWor9kOSxynR7YnlJDOxSkgpq/3q9UmAkZnar/QG6tJ3ERERERF5XEx0n3NIEEngSOSS7NVkLolufZuJ7JFfXU6SG11px7+sHJ2Rid0ObZGrCWh8+rN//ZX7z6ndEf7ir7539xffevn++ylJaOKUfoGJroiIiIjIs4OJ7nPMlMQ+lJroTskd9SSJSVxh741u/EyCWtv3NiIiIiIiIia6IiIiIiIiclOY6IqIiIiIiMhNYaIrIiIiIiIiN4WJroiIiIiIiNwUJroiIiIiIiJyU5joioiIiIiIyE1hoisiIiIiIiI3hYmuiIiIiIiI3BQmuiIiIiIiInJTmOiKiIiIiIjITWGiKyIiIiIiIjeFia6IiIiIiIjcFCa6IiIiIiIiclOY6IqIiIiIiMhNYaIrIiIiIiIiN4WJroiIiIiIiNwUJroiIiIiIiJyU5joioiIiIiIyE1hoisiIiIiIiI3hYmuiIiIiIiI3BQmuiIiIiIiInJTmOiKiIiIiIjITWGiKyIiIiIiIjeFia6IiIiIiIjcFCa6IiIiIiIiclOY6IqIiIiIiMhNYaIrIiIiIiIiN4WJroiIiIiIiNwUJroiIiIiIiJyU5joioiIiIiIyE1hoisiIiIiIiI3hYmuiIiIiIiI3BQmuiIiIiKFd737A3ffefkH959T/bPE57/4taWfH/zwx+/78cI73jnWPxbXFD8RuV1MdEXkHg4kL7/yo7svfeWbY33lbW9/4e6rX//Wgw8xn/nsF+6+8dJ37/WljIMZZRzM+Oz1zwL49tK3v//cHuIYD8aF8et1HnDlVmAtPCVJnNazgK7pebkE6F2t23lWWVen+i3Qy55w7rN8LfHrEKspng+J5TlsjauIHMNEV0TuDyIcSHgzwOfeRs6Gf26iy8b9yg9fHeEQ8dGPffr+E5/gyGGJA8Gkr1IPUPRvkpmYbHNfE13ukZvaQz+8PdT+kf6GelDCXw6uk9we1Q/00P/uF3g4k1PYm8vMO9alqTzz75TnKWC3+9LJc30ksUkSFL29Lc/EEZvngK2tH7zhw6nPZF0rzn2enyJ+lPexPUr6hd7ax5Xf8bGXR36ysaLvCRPdLxE5HRNdkeecbNLZUNnE936Kzwa9SnTZnKeNfTrsIDslgatDAHVdL77Th8jgE2Vb/qOnt5tYyXE/JbpTH6f+PNT+UY4elOgHYz75X6EP9KWPQebLqh7wZdIpAswd1pT3vu8juz9E689Ff8b6utKfA75TtjVfj1Bt4G/94U/3KTbjw6VJn/lB4eTrxOp5z3qGz/k+yV5b/LqN0OcHdPuQ/vZYrGI06YCMVe3bFJ8tJr0i8mZMdK+ML335z+9y8X2Sedb53vf++pc9eO36p5///O4P/vBDo+xPfvK39zLX2tfwqT998e4Xv/jF3U9/+g93v/Gbvz/KPAR0opvrFBts/CQp/QDBBs1m2jfuyPdNF7Lx9kNDPRxE7znU5Ht1YIHV4aKCzJEEssut/P/EJ19cHgYnf861fyrTAW4i4zr5X6ljmTJ8S9JPebeXNn2OhXPn7i2T9SIX6+BU/9jxythgC5uTzArWdNb2yf8J5slDEt3pudximo/M3dU8BepXawt1de7zfbJb2XveToFY4Nu5a0XI81r7iZ91/V3xrMdvtW9M62TiUPuTsm4XfdP6z/3UX3T28sm37telxljkecJE9wrJAeJaD4Umuo83ZontkXixCW8dFth4pyQY+sZeN/S+OZ96OFgdRipdJr72g1DohzRsHkkgV3KUV53py2Qb+qHmofb3+lvpB7iJ6MPeVB+mscQ3xoIyPmuca5tpHlVOmbu3TE9yua4x0Q34vtV+79mZ5u/R54e2e/Ou0teuytY8zvOTttz3NexUXx4L/Fj1MWPR1ysg5n0d7bxV8duaQ7Uvk15Y+U2fa3n6UNc/iP1ezv0US+xN5diq87r6FRu0e9e73/+GdiKyxkRX3jKSsG8lunJ5slnXDXVFZPsBp2/sdUPvh4boOHoIQDfldbPvcv3AsjrApA5fq//Yng5FE1Oc8KnGhPoaj8rUz4faP0ofixX0g/4Qw63D7DSW+Ea7Fz/35fs67NW+Tm1kTRL+I29Bb4HMn7zJrW90V/OXuZTn4pRnqYP+qhebfa3Yq8v8Rl985bP7zX23dwnQm/7kGavxqbLcUz49i/SrJpvA97p2JdZTe3ir4rfqF/fVf2xP+8TRdZJ2tO99iP2MwxGqX5Xaz+rXVv9FZI2J7o2Qn/D3pLEemqa3ANMbU77X65wDV39ry32XWSW68bNe57zl6T5wdT3pf67U501GLnz81l9995d3d3evvvrvXq+vOvs4dP3TG5jEIVePB6z8PJVsyNkw2TynTTgk6QG+p10/WNQDRd2cIQcZZPYOBNhALoeJtO0bfD+w9HvsxwfqsMln2mODssivmORqHxKflCFf2wNl/VDzEPun0MdiBX3I+AJ96zGHOpYpw7d6+KuxX7U5SuZ9XT/yvOQtYZ7zyKS+Pkf9eU7b6DzC3nO6ZyN+/t3f/f3r61uV6c94vaibZPp60n3ge4/FHlnD6tX7MsnEx1PJ/NlKdJk7dZ2AI88Fbad5vEWfv3vl6Gd+84Me6pnv069eU3eqL0eZnjFsEadahg99LVrJwiRPzIn9FAugfKpblV8ifvGp+8999R+ddZ8I6J1862Sudt+O2g/pcy/vHPVLRNaY6N4QOUglCeoHvhxO6uEoB6e0iY5+nXKI6YexXF1H9y/l0yHq1MQO+emKrX4grBdtt+q5iFP8rP3q8eyxqLGHqa9clFG352f0PDV9w68bet+cKaOuHgKy0f/Wb7/nTQeHKg/TgbYfWPo99uMDdeioNlZ6O5NcyoDD2Wu633//WQ/ilX6oOdc+fSAhnWzskaS826h6sVfvu98Zmy3dkWGMucd3+hDdp5A1oj43WaP4nO77upL7fuUZi60tLvGcxs9+pW+rdZMra8zeerLSkVhEbouprzVWq3hynbMmMT94dpkfzBvWhCnRrXOxPxcp6/NyxVbygF10Zz7DZC/k/7DdS0qoyzNxafLM4WctT0ywy/dpDcCvGtujdeicYvJWxA+96J/6X/3HTt0nwp7tsOrHUfsBeynne5+fR1nFQ0R+hYnuDZEDSg4/HDq4cgDs9ZTlYIRsDjDToaaWRW+uHMKqjUkHb0TroSzlwPeUV6p/va4fHNPPWlfLfvzq37ypDzUWUxmf3HNVXbUufU1/avuQuPS69K/GEDs/+9k/3n3kj/74sJ9PTT/MsKHnoNAPDWzmbOo5BNS2HBB6ogu0z6/CTps58nuJbtpVe2m/OrB0ulz6wj8+Fb+Rqf8tU+//xLn2t8CXKTk9Qtpir5bTjymJrXL41seQ+rSjPrFJ/SnUNSDPXF0z+rPe15XU92esl21xznMaGynrNrMm9PUvcnymrDOtJ+l3XXtXNo6SeE86q236v+XvFpk/eaNHGZ85zPOdubM3r4/IwJHnE5k8d6tnoxO9ka8JyYpzntWJ6bkM1Z+siUehP+f4+NTxW60xfU6gu+4TIbZr2cRKLnMY/bW82w/o2YsrMunnXuxEZI2J7o3BISqHkvqduumAkgMcB5XUT1fVk0Ndrnr4S10tW9EPpJNM9a/X5UCYqx+0ej1X9Ex1uWp8ctBb+Zj+oq9+73JT7KO7xrZz1M9TqBvoKdSEi4233tcDQD8MsJmzqWez3rKfzT8y1UalH1jqfeyhI3XoqYcQfOm2V0z95g1uPdhQTzn1fK91sVUPNufaD8Q39Yl1YkDSjf4qV8djgrarwyhxjA99LKH3N2CTtqv6o+TZYS2o31OfZyTPXV9XsoZM15F16pTntD77/Znf83NLV6frpiz6qp+R6zaOsup79NbrSCwnmB/ML+Zpn3/MH+YR5fX5mUAmz8Qee88D5NmB6bnoxNepDvI8THUPZXouQ43LtJZsgc97cV/xlPHLHOp2uK/+Z43sMZhs88PMumatbEDWz/T3CFtxjT/5zFvvSVZEtjHRvTGSbOXvwOrhox+OcjDiot10UDqV2Kg6ovfSb3S3QB/9jN5+YEuc6kFxIu1WPqYPvNmBlVyPfcrTvzpOHHC33hQ9BmymfaPfosvXg0I/NGwdwjg8TElQDg6rA1I/WPA2KAeY3pZ7DijVBnVHDn1dDh38DWH3m/t6CCIG8W2yc659IJ79nvgmBvzqJ/fYxg9kkF8dqqDHbMU0luiexvBo/R71GeSzr089Mcwzk2cx9ecmYnDOcxq7Ket+Zu3oa0aXm9hbT/q1Wpf2SOx7zLFT1+QjPq/Ymh9ZS5hvPTGgrK4zk8xEX59WoC/P8BH5Pb3U5Xm8NNNzCdjMOhAZnvOjzyLtj8R04injxxxinYy9SvWffjPXkK/tq+3o6raoR98p6/lqTqJ7FVfsxJf4lbHr4ysi+5jo3hg5mOSqh5EcrKYrcjmw9KsfdLZYHbZySFzZ4MKPHOKmqx40V2z1Mwe+Hqd6Uf5HH/2TZX0/zNX+dP9WsUg8V31N/Z6f9ZB7Lmye2VgD93uHirrp1oNC/Q5bm3R01UMJZXxynzYcUJD7s3/9lddlJ/+6vtWhDr3TwaSzkuO+Hs5jN/6mzz2u4aH2ITYTp3qIi/3VGHZo+1iJLuX4uao/QhJJrj7va1298qxvrQf1ea3PWrfxkOe0r61ZP+JX/NxbK2izJ9P94Hu1MfWnr2eV6DviA1f6egp1Hk/wDDHfmHfMv7TrZdxP7SdWzyXkWYju/pxNbaCvex3q9p5HZLZ0rOjPJXbwt69/kdvrS8CXHvc93or4xcZen/BtK9Hlc9ozKEd/fojYY7KKE/5M5ejr5elDjUH84juytKn1IrKPie4NkgNVP6xBPzDy5perHlD6wbEfko5Qkz+uepjqdfXCdj2E9aseTLeYdEz96Ie26N86uPaDYWzVw2DYO5gikwNvrlP8fChs6PxaVO7ZWDmQhGlTZfNmQ66HBeRoy/euI9CuHnpCP1igiw09f6PLBj/Z7NAOffEDaEdZP1Qc0QcrOe5XiS72scehiLJuGx5iH5vErMeN7/0QR0ymg1snOrE31Ycctur4wZYN4nGkr1vUZ2RKpurz8eNX/+Zetj5H0/Pcn+Mqw2dfO/ee026jrwdZ92I3+qLnyFqxJfPXf/3/vP+sfmUt775mzeLqcajEx+rDam2cxuUIzIvVD0qYO8xh5mV/jlKX+0lmorcLWT9WczXPCDJT+5XeQB0yUx1gE9t7z+BEfOeT9nzf0oPclq8BmSMxhfjwVsXvCMRk8i++T/Ypq+tbximy6dcUb8qm+PW+cj+N2RSTlayIzJjoijynZMNm06zUjbVv1GnDZktd2tTDQ9+caYuOaWOmTT3k0i66artpww+U4wMyUz0gU/tRfd+j9i10v7lPLKd4UV77f6592tVDVw5ZkZ1ikDhO/Qhbh7XKNJY9FvhQ/Yc9vXIZVonwKT8Y6z/o5OqJ8iWpz8gEzy7zp87fzEN+w4PPqd0R/uKvvnf3F996+f771vrRyZpT16StNQqo27LB89N/UHUE9PLs8icVxAKy/jwUdG/pyzg8C/GbqP6FriPzr69RWROn/qcOXVt+ozPtkat+xB5tVzFe6Y7PW/ESkdcw0RV5DmGjZHM9cqjKZp7vl9xcsZ8kqR4Kan0Owf0g8hDQVQ/OK1Zy1e8tuUDMav1D7V+aHNywN9XL9dCT3a03thM90Z3ebl+S/ixVst5MCctTPBdPyblra/9Hk9BR47TFnj3qV0nYLcNYsB5OczIgA1PdpTh3TojIrzDRFRERERERkZvCRFdERERERERuChNdERERERERuSlMdEVEREREROSmMNEVERERERGRm8JEV0RERERERG4KE10RERERERG5KUx0RURERERE5KYw0RUREREREZGbwkRXREREREREbgoTXREREREREbkpTHRFRERERETkpjDRFRERERERkZvCRFfkgrzt7S/cfeOl79698sNX7z+5n+QuTex+5rNfGO/hS1/55hvuHwvsPGXfw7ve/YG777z8g/vPXke/j/hE/Ve//q1RxxaJ9wc//PHXy154xzvv/allIiIiIvI0mOheCRzUSZ5WcKD+/Be/NpZz4EYHB+5ev8dTJEbXTo/rqTEjqXr5lR+9QccR+tjW+55kkYglEaxygeS06iZp+63ffs+9bC2vTIljYhG7R+kxBGKCz6v49DhzTz9qGUxJ6IqapE8+VXoc42f86mMgIiIiIk+Hie6VwQGcN07vfd9Hdt88ccCuh3Hua3LCgbzf10SB7z2ZeCzwLYnNVP+UJDGakqYt0q7GLGVHEqWwinsfrwptqr/EEf09npOPUG1mniTRnRI1ZHt8kthNfe10+31uouulb3//3n/ge2LV+0D9lAhH36q+zzf0VR/OAR/RwWfsTvETERERkcfFRPfK4BD+kES3H/b36AnJY4Fvt5zo9mSHftbkrVKTzsoqEUPH0QSzkz6emugiX+OTfkbv1AZoM40z8tUviBzwvdfH3ymW6QN+YbP7Qxv6Fj+QmWL7ELoNEREREXk6THSvhL1kpiYdgcM9baZkqkLbKbF6SvD1WhNd5KYxgY9+7NP3uqZE61KJbif+nzKm1WaSxJroRmf6VedV6uIbfWMsa/zQ0dtVYjN9Q+aUN7qrRDfxj95AG3zhE9nqK3pPiR06pkR8jyPPpoiIiIich4nulZCDf97k1je6HMrrQT1wgM9hOonGOfRDf3TxmTJktpIfyvCx6q3t+U6y8IlPvviGpKH2Kzopq7qmBLn3d4pP9yf9rHYim2RmstVlaryiq/Y1so+V6GaurPyc6LHAztYb3Qr1Pb7pd9W5p2eixiJjeiSWyGCfZ2SK5yr+tNsa41PY0kWdia6IiIjI42GieyUkedlKdDk818QCjhymp0RgiykR5HtNQrCZJCnykCQNv0kCIh/fq7/RETs1ear+8r0mFOiq99GTNlv+IJP62E1d7e8Ebbtv0ZV+BnQ+VqIbP7boeqpNfKX+nH+MCrbsT20S30l+D/yeYpk+YCvjX8dgalPljvq0igFsjdfRsRQRERGR8zDRvRI4hHMwr0nIlOjWwzP3HNx7AjAd2Ce2EjtsRnd84z5tqu3JD0A2/sYvPqsM90lakUO+Jwgpr7aJz1Z9dEYG+OEBdb/267/7unwSnrRdQd/oI30gFsSH8tju/UIvcr/ze++9r69xP4XuV+wxN/hXuGtdoE1vx318xld0JNF98XNfflNSmDmXttWn6Jmgrsp2P0J0Ip82PYYhY1T1An3IPEGGvmTM0VXnZMavlk3gS9W7IuMQ/6HWH9UjIiIiIudhonslcPgm2SDpmBIMvidB2To8H5EBDuKrJARq4hCd9e8haZv26KoJSCXy6JiST+4ppx455Ce/KOv9ok21Vf3ZSmhiBxlsT351sMX4QLUXXdRXefT15DHQridGcCQ5wk76RqI7xTPjVsurTXRgJ4lu/zvj9GnyMaz6PYHtOk4wtZvkKJtimT7UWCGbMuoTJ9ozxuhIWdp0jowBoD/zBn3orX06qkdEREREzsNE90rIYXlKAjg0c4ifDvcdZHqysAKdkw7ABrZim098JFnARj3YHznUIzsllElCqI/Nya+axGAP/3Pf21G/ldBEHh38YIHv0bUln4QwscDGU/5jVPEjbbHBm93Ip34Vvzr2yCXRxXd0pt3kO/W1/R69f9iY5CjPHOh1tZ9HEl3qkUO+1ifelG3NC0Cu6+1McU4fsME9dbVeRERERC6Lie6VUA/pvY7DN4fm6XBPWT1QTzIT0TnVBWTwCX3xizYkVzXxwOaUxFaQSWLTy9M2CUT3vyYW+Y5vU33XGRnIrzt3eeSQX8UjyQ/9Xdnu/UJnT85gJQ+xg0yvS31P1CiL31N9QCZ+Yxs7NdGlDf7y6929jxPRMfmKrd6/Lo+92O6xSoziwxTLLfuresoukeiiZ5pflNP3+L+aTyIiIiLycEx0r4Qc/PtbrZDkYTq81zLup/YTewfxJIA1OSAR6G1zsK9y6U98i1+TTHRFD3I10eJ7EoveBqK766lxSV8oq3+j23XwmbKQXxGO3upbyno75KdEF7kag8pWkhX/J/8yJlPyFehr/EYHdmqim3L0rHwIyK1sreIRm9GbcaS8xyo64u8Uy66vM8WSNqvYh60xgIxDfJvo/kPareaYiIiIiJyGie6VwOGbw/yUPHBgJlGZDvepy/1eAhB6u4kkI1Vu66CPHAf5UGXwi3ZJNiJTdSdBoIy2kelJVfxKPW34FWK+V5srf6qdyFb5qW8wJTApq3ZCT6ri90o/5ejqY7dqV23zlh2Zaf6kfRKszJGe6Kb/lFW/Q/Ss6gH71Hc/sFFjEyjPnOp16e+qfooVJC59fLG15TusxgDS/663k74mrvEnfZ1+ACIiIiIip2GieyXkEN0P84HDdT+o5wD9Z//6K/efU7sjrA72T80qQXlWiH814axJTJXtCU2Sn56sVlZJFvGoMalzpZbHF8qrP33ecI9cTXTRE9v4UXXwyX3VEaYkdOpjbKZv6QPlPVbpR/RMyWHVV/sdJl9pM5VXeqxDYjDVJV6VGoP4N/VVRERERM7DRPdK4ODLAZiDcK/j0MwB++iB/lpJ/6Zk4pohwelvpScY5yRvUz3jzHgz7uicZAIxRI5P9AL2k5RSXvX1mKduy59rY0p0awxCjy33U/kpRMdD9YiIiIjIa5joytVwq4muiIiIiIhcFhNdERERERERuSlMdEVEREREROSmMNEVERERERGRm8JEV0RERERERG4KE10RERERERG5KUx0RURERERE5KYw0RUREREREZGbwkRXREREREREbgoTXREREREREbkpTHRFRERERETkpjDRFRERERERkZvCRFdERERERERuChNdERERERERuSlMdEVEREREROSmMNEVERERERGRm8JEV0RERERERG4KE10RERERERG5KUx0RURERERE5KYw0RUREREREZGbwkRXREREREREbgoTXREREREREbkpTHRFRERERETkpjDRFRERERERkZvCRFdERERERERuChNdERERERERuSlMdEVEREREROSmMNEVERERERGRm8JEV0RERERERG4KE10RERERERG5KUx0RURERERE5KYw0RUREREREZGbwkRXREREREREbgoTXRl529tfuPvGS9+9++CHPz7Wn8IL73jn3Uvf/v7du979gbFetmEMvvPyD+7jWMszRp/57BfeUC4iIiIi8rxjoitLVglWh0TrlR+++iaSgJnoPowvfeWb90x1jNHLr/xoGVva5YcVSYynsaogg2zXJSIiIiJyLZjoXhH/0X/yn9994MN/cvexT33uno/+8b+6+y/++W+MsqdAIkpCOyU9K05Jht7KRHcvEXxKkmiuktaJHjvaTuNRyQ8nsJf+17e+fJ/GL/MgibGIiIiIyLVionsl/Kf/7L+8+/DH/uXdH7zvX7xe9o5f/737hJfPKnsqpyaiJEJHEl3kpkQsPEVClUTvWhNdktIqz/eatHboJ2PJmNYyEtgaA/RUvdT1hFhERERE5Fox0b0Sfudd779PdEl4azmJL295edtby0/hsRLd0BOtp3xzeM2Jbh0X+kHMaH9qorsCP6LzqX7wICIiIiLyFJjoXgmrhPZSiS4JT3/jukUSXZKjqR6SYMKRRDe6ajlJHbJJ3JIsxj5lJGzVbm3Pd/z4xCdfvP+MTE02awJadU0Jcnyc9ITuTxLTKdFFP3YmW7RDNu2w3XVPEK/f+b333rdJWY0JdD01xiIiIiIi146J7pXAG92e0OZvdp+FN7o1GauygN76lnGV6E6JYBKyyNa2ka++JHGMPJ89kYuO2Ike5OrbUr7XBBRd9T56eiI7+YNM6mM3dbW/lfQdIsNn9XGP2MT3qi/xCelLtyciIiIico2Y6F4R/NpyTWh5m/tW/I3uBG2/+vVvvZ7gVUiqeqK5skcSF9nI1aS06up6A7JJNpGZEjvuk7QmGawJKqS82v6t337PZn1NhMN73/eR+7pf+/XffV0ema0kN9A32qSPyBNn2iYpnUh/42PuO5RTX/stIiIiInLtmOheKUlyedM71Z9CEsop8TwKCVh9a1nfOvK9JnTYIUGd7NW6JGEf/dinX0/G0BNd6J2SPIg8Oqbkk3vKqY/P1cdAWXSljDbVVvVnSrxD7CCD7cmvSuSxlzJskejmhwrcUw98xzb606br4LP6PrHVBxERERGRa8BE98rIv758qSQXSLbyq8UkS1Py00lyB7QjmUpyVPUl0aqJL/VJZlMWqjw2+EQP+kjSahJHHbK06XoCspdKdLFH33Pf21G/lSRGHh0vfu7L99+ja5LvSSnJLfK0PTfR7VC+5YOIiIiIyDViontF8H/m8n/nXur/zw012SFZImGb5AL1Se6gtuF7EjPK0N2Tv61EF2hHYotPkUEvyV0SaMrQvfdWFBl84bOXp22SwZ7wpRzb+V5jU+u7zshAft25yyOHfO73SMLf/2GtifQ3Nnv/A+XUIzfVi4iIiIhcIya6VwJvb3mLO/0XQyGJML/WPNWvqIkrnzWZm6jySdZ6gsUnSRl0fdRtvfmMziqDDvTXpDBJXJXjk/skb9ii3SQTXdGDXPWV70lcexuI7q6nJo7pC2X1b3S7Dj5TtgJdxBPZc97o1n7uUfsgIiIiInJtmOheAfnXlUl0J/KG95xEtyZC3JMs9cS0Q31N1lYgMyVMtK+JZ2dKKpMwTr4hV5O0KkO/aMcnOiNTdScGlNE2MklyIxe/Uk8b/n6Y79Xmyp9qJ7JVfupb2kQXsvh0aqLLW2Dqua/6kaO+l4uIiIiIXDMmus85SQCTdCbp2gO5rqvS9SZRTfskYs8CSQb3+vTU4E+SbeLI21y+n5Lo5n41ZsiZ6IqIiIjIrWGi+5xD8tPfRk5vFivUT0nTtfKsJroVYp5xqYlu6tMHEtr6AwYS2XrfMdEVERERkVvERFeee64h0RURERERkeOY6IqIiIiIiMhNYaIrIiIiIiIiN4WJroiIiIiIiNwUJroiIiIiIiJyU5joioiIiIiIyE1hoisiIiIiIiI3hYmuiIiIiIiI3BQmuiIiIiIiInJTmOiKiIiIiIjITWGiKyIiIiIiIjeFia6IiIiIiIjcFCa6IiIiIiIiclOY6IqIiIiIiMhNYaIrIiIiIiIiN4WJroiIiIiIiNwUJroiIiIiIiJyU5joioiIiIiIyE1hoisiIiIiIiI3hYmuiIiIiIiI3BQmuiIiIiIiInJTmOiKiIiIiIjITWGiKyIiIiIiIjeFia6IiIiIiIjcFCa6IiIiIiIiclOY6IqIiIiIiMhNYaIrIiIiIiIiN4WJroiIiIiIiNwUJroiIiIiIiJyU5joioiIiIiIyE1hoisiIiIiIiI3hYmuiIiIiIiI3BQmuiIiIiJy1Xzwwx+/+87LP7h74R3vHOtF5PnDRFdE7nnXuz9w9/IrP7r70le+OdbLdcA4vvTt77/psMe4PnRsP/PZL5ylA1/wCd+m+kuDPQ68r/zw1fvD7yRzCk/tPzEm1rXsqX0Q2SPP2fSMbdUF6r7x0nfv3vb2F95Ux/w/NWlFD/pWOidW62J0bfm/WmtPAR300+da5HEw0RWR1w8ln//i13YPJwGZ6SByZPPnYEESchQScA8Cx5jif2RMkCHONe5JbGtZ58hcAfQcObieOzfQi/6Ux68cWGubyhGfAL9OOUA/BGzVRDd96MmvyDlMz/oRmJdVT565aQ3Yqqv105zeqtuDvtGWz6m+0n2sbc9JdPF3ilul94mY9riKyOUw0RV5zslmn82Wjf1IYok87Y4emKrOaXPHDw4N3S73Rw8uD+Vo358KDkX0PQepI+B7PXztJXrQD1+rOCCXcVsdBKmfbGxR58JD50bmc/zaOrCeE6uJU8doD/qfMTni09S3yjnz6BL0uXApH1bzc49pbl0KfOlr4TQujEWVmfqROVzlLuk39tBf7e7FtD77IX5O/dyqgz43Aj70vle+8N/++Wb9HrUP+MazxTPG/ZH1rUKs6vox0W1UaN/nzIqVDhHZxkT3yvjSl//8LhffJ5lnne99769/2YPXrn/6+c/v/uAPPzTK/uQnf3svc619DZ/60xfvfvGLX9z99Kf/cPcbv/n7o8xDQCe6uU6xkY02h+rA5szmutrkadcPSrVub/PnMDEdmo4mM48F/d067D01pyQoGbMKbXlLv3VIYhzq+NcDKuVd50T1ses7lYfOjeo/91sHVtpNie4k+9hgM+OUGKYvL37uy6/7GOLr1tiGU+bRJVj5Rr+YL29FfGGaW5dg6hdzi7Wk2uN7H4c8Y3lm0q4+Q5kHlxrD/tzgd57lTtZD/Omxi1/TeG7Vpc/Udb3VN+q35nfm2WSj1ne/a13inPve/0pigb6pfvJj1Yct3zrIHJETkTdjonuFkBSSHD5W0vTYmOg+3pgltkfixQa82pyBDb0fuELdeHNo2SIHhKl94GBkovtGiC19P+VwSx/Shn7URK7HfXXY62MTkEtdZPv8ob7PmUl2ZYv7XnZkbqB7mnsf/din7+1MdVDjW/1EJ3NhalPpvj6ExBdIbrsvsYUctnucVyB36jx6CPg8PUfElz584pMvvqH8qUhsp7pzybzjc6suYzjJ8cOoT3/286/Hh3Hne5Wh/Ve//q3/4fP9byg/B3T156bPjzwLmWOZm6kH5GlH+6N84b/98zc9y+iG+vz1utx38GlVH/+mmKffact9jfvkS4c+1PV1ousN2D261zzGvBV5XjDRlbeMJOxbia5cnmzgRw6+ka0bcg4I2XjZsOtG3jd/PvvBhrb18LPHdCCIH/Uggi+1X/G/+odM1Z2DDqALWxzE+YxMPWREZw4fkdnycdITuj9VZtUf5KrflfjUxxffKKs+Rl9iiM4aK6h9nKjxjzx6+Kx96ff4Qcym9pOdFT3uiXn09j5WaFfn6pZsJTZ6rC4FMejji4+MH3ZXY78C+T4fKEsMq870rdvIeKV81T510/MwEb3RU/3EF+ryPKYu5dGPPeqQm3yqsQt1Lp5L5svePPit337P63Hlc5KBo/oeCnFLvDL/8SvxTbz6mPaYRW6rTxPTeByh+hOq30frqn10Ju5Vf8q2+kYcz0l0Ket961S7xP0S81XkecRE90bIG8OeNOYNH29Gp7eK0xtTvtcLmdQdpb+15b7LrBLd+Fmvc97odh+4up70P1fq668Cc+Hjt/7qu7+8u7t79dV/93p91dnHoeuf3ugmDrl6PGDl56lkg8+GzuY5bbIhh8kcRr/wy5/G82YhGy+66kbeN3ZsTolu37gnOeAen3t5DiJVT/qTQ0L6m3vq68GnxyMHkEkmdmIXuXow4ns9fKOr3ndbsPIntpBNfexW+Q7lyBBHDrF1HNAZvSE68bX2K1Rfgfseh8Q2UI8c5dVXyqo/vb62734ic3RuYAffu19HmPrEd/ThU+rruD4GiWH6Aj1WPZ5bINvHot7TF/qUfmO/665le+0ppx6/t2KV2NZ4Yye6U19tpV3VmzhVn+MTdWmHbsj9Q0k/q40VmTv42ftcSZ97fy4JscHvPi7VdvePPvbY0f/puTyXxGgVm4m06WOwKofMA6CefiBb59gRX+j3a/1//308p7lFe/RkHKtf8aHKT3YnORE5honuDdF/bbUnkkcS3Sk55Dol2e1JWa6uo/uX8kskushPV2z1RLZetN2q5yJO8bP2q8ezx6InulNfuSijbs/P6Hkq2HzZoLNJU8b3HI5W9MPutHGvDk3cT4cywHYOwWlfDxz4m/qVnqoDefythwzgPn3IQaQeXiDl1TZvclb16EJnt8WhiTL8iW/ooW38rPIVktv6loZficRO+v7e933kXk9sToeqgJ/Yr2Xc93HrpB32sRnd8YHPyE26pnJ0HZkb6Q9jiDy2oc7Fidjbigd9QrbH5DHAnz071OMrPk/1FWQzd5BnHtS5mbGKTfpfn9laf6R94L7HOjKJ9TTW2M9zQJs+Ht0/dPY1JuXpN/fT3HoI2MNu7/cW6VOl+5TYVJmpf+eCHuISfRk/7NAX/Ind9C3lVQ/tpufyXNLvPt57IF/HGfB3ej64px/I8rkauz1fMvbEqNuu0H7yA7DfY9rt5r7LicgxTHRviJ7IJtnL29ReT1lNzJJ4JsmifiqL3lw10YuNSQdvRGuSl/Iknymv9MSx0pPy9LPW1bIfv/o3b+pDjcVUxif3XFVXrUtf05/aPiQuvS79qzHEzs9+9o93H/mjPz7s51MzHXoCB4AkWtxPh6HpgDHJAff1ULaqy4Eif5OZA038pD6Ht04OKshMB0ruKad+6+BBWWynrNut/uwdXokRMvhH29WhDNDDm3aSkBp/wGbaIpf6eqiiPLGkju97f98KNQ5VX77HbnRSV7+nbai+BuSPzA30cU/MkJ/ii+7qcyU+8/extJ36O0GbOuYPgT6gc2usgfqjdpElLsSxl9d+xGbGJ/eJ69H2E4lt5LqNCexOY9jL0TH51+UY99XYn8ORPuyBP8Rkyy/8px9TLM4BHfjNeoHtKXaQ/gE/NOs+pj7jP9F1py+T7BFWcaI8z8Nq3nRow9ghP9ma+Oq/+ct7O/SLdn2t7SCzek6xP9kA2iGT5+Yhc0zkecZE98YgYUriVb9TNyVbNZFM/XRVPUm0ctUkLXW1bMVjJrpTPVf0THW5anz45H7lY/qLvvq9y02xj+4a285RP0+BDXPaWPeoBxZ05MCRjTgb89bGDpGfbKxYHVrqISCHFnzk8IEfOYwgm/u9Q8lkK4cz6mMz/a9Qlr4nzrnv7Va2KlVHkq+VPPqA+nr4oqz3O35SxmftFza7jpA417JKdKCPe+S5r/2nbPKptq9jv0eNCb7V/wsaW1BtbPWh+9+hXdVX+1TlzoV44Dv9ip+9vxNH5lGNd/QmDrFb+8H3jB1ykT3afiLxgt/5vffutmEcpr718t6/lVzvx0Op/eH7JHMEfJr8r9AH+rIX4yOgC3s1ruitc6o/A9T32NF+K9FDx16/tqD90dhmLPB973kI9GcVz+jrcajs9R+2+nBkPmKD/mz5ISJrTHRvjCRbf/d3f3+fQNWEsydbSTS5aJf7rcRrj9ioOqL30m90t0Af/YzenlQmTnvJYtqtfEwfeAMLK7ke+5Snf3WcSG633ug+Bkc23Eo/9GQzjp6twxiHAg4/feOmnENDP6Bw3w9lFWzRjsNEZPCBtxX1EBIftw4M1E2HPO5zeMoBqB9eUo7tfK9xqPXcr/zB3+ilfQ6Kab93cERv7Tf26gG2kl9zTtzST2xkHKd2nfQBm11f9RedFcoqyCE/xaTqDdwjzye8JvPa38tVn7if/IaM65adkJjkPvFayZ9C/ExsYodxf+1f232jDer7HFxR51Hs1BinrPYNe5Gr8kfa81nrQ30G6vcugz6+o2OKby/H3iRX+819YltlHgq+MI+m/qYu8Uh8OvhELH7t13/3/nv8rdA3+jjZOZWMbY9XyNhUW/jeY0f91hykvsb/VPb0d/Axz/Uq1hX6s5KbYtAhfqwXW/3b6gP2e0yh9gMis+WviMyY6N4YScxy1QQxSdl0RW71BvGU5DfJW7+SzG29pcSPJIXTVRPCFVv9TCLa41Qvyv/oo3+yrO9vbGt/un+rWCSeq76mfs/PSyS/bMR9s93bUKnrbdjsOdTsHfyxN8nQfi+ZqeW1Hn31QJWDwtSvajuHmbTFN9pVXelXdKUNcjVGfI/u3gaiu5bxfbKVMnRO9VVHB/t7h6+ATI85uldjOI17pdvmHl30PTLpQy0LD5kbtIUt/bDVB/RsxY52dcy5n3Rhu47bEapf3U7tZ5U/kgQkHtGNDmJc9fO9z2egDeXVzl771E/6uK/jS5yQq2MVm5TBNB96eezv+YnuHjN0JTbnUn1OWexTlzFAptuiTdqmH73PWXPiO0w//DgK7TKfqm/Q4xPwrfvOfS+r0Cd09+cg/TyVaS5AYhhfkEF2JR+Qr/OjkpjXMe2ge2+tpf0qpnvxqxzxR0TejInuDZLEa0qE8oaQi3re/HLVhLjKcK3eUm7Rk9maHPa6el0i0YVJx9SPnohG/1aCWfsCsZXktNbtJbrI9MT8FD8fChs1v+qZ+34AWW3C/dCTgwaHGvSt2meznvRyWFglM1uHiRzUqk7acMiZDjFbfaQftOOzHv6qTO1D1dUPVfEr9bThb175Xv3a8oe6flBMrFeHp714VdLPyCZu8aXbwJ/qX2evHrrNcKm5wXf0Y6fKhi0f9/ynDpmproLclp49Jjv0p+qkfmsObI1jr489vte48Z2y7suR9hmHyMDkb9dV5wa6qEOmtunl2M6YV11bfscX/qadtg8ZL+j9gMQiZI5XmdrfQLsqA7Uv6GGdnWJzBNpgd2rb+xG7fNYY4fP0TFbox9S/ypYMdas5XmO5kqlx7HMBMm97OUQ/OqZ6oO97ay36V/71mG6xNWYissZEV+Q5hc2ZjTMHgVA33tVBIxs0n7RZbeTIRC+2PvIv/nR5MKAsByeoh62jh4GnIAegZ8mnytbhqx78Qg5yfNaDc/rZ5ScY2//ze/+vr49f5sVRsPOBD33sInMDWfyhP/lebU2gj7mZdlVfJXN+qguJ25aePY7YoX713D1vEAvGbpo7R8g82Yv5s8a5/e7P0FHqs8b3/ux1eAb2/ONf744//Znhvs/x+kwffcbqWlbHeOs523qOaTPFBKqtsPKz9uUI1zY/RZ4FTHRFnkPYYNmMjxyQ2FzdYH9FDjJ7h7znDebIsxCTHB6PHoLDdKiGeqitPwhYQf0qYT/K6gCOj/Xge2ofbxVidU7CV7nEuL0VbCVrK+gr8dqby5X6fB+NFfPzlHFBrid+p/ZNRKRioisicgImuiLPFpdIdEVE5PYw0RUREREREZGbwkRXREREREREbgoTXREREREREbkpTHRFRERERETkpjDRFRERERERkZvCRFdERERERERuChNdERERERERuSlMdEVEREREROSmMNEVERERERGRm8JEV0RERERERG4KE10RERERERG5KUx05XU+89kv3H3jpe/eve3tL4z1IiIiIiIi14CJ7o3wrnd/4O47L//g/vODH/74ZsL6pa988z6prWUvvOOd9+1pW8uPgC50TnUBX7769W/d+1fLuX/p29+/t1/LO7SnT+f4d2nwmb5sxXfl51asMgan/rABfXvxP4ejYyOPD/OJufHUY/FWPHf9B279Hl+2npHVvOUZybp3Tr/SBh3o5rvPxnXCXHj5lR+9aT86AmPO/Dqn7Tms5vveuk+7V3746sn0dabO+6r/oew9xwFf8KnbJ/6UP9U4VOpacgT6+las3yJionsz1M33t377PfeLcN3IV5teZFi4e93RhXxvww3YwR6+pGyyW8nmwGZIO9rjVza/qU3nyGZ6Ctgm0Z304ht+vfd9H3lDOeTAUPs/1RGTSSZ97nVT/Ik1shn/xH6KT5h0PI+JLvGd4jOR+VnbMwcm2Yke8xX4NNl6bE6xmzk89XOPzOlpjvf5zfrGfW1XWc1b2mRN23oWV6RN1p8XP/flN6yxR56xFW/F2D6vZI3+/Be/dj+ejOsktwU6jrQ9Z070NYE5Otnqz8Up1GfhCPiwN0fzfBydy6t+dfB1kiO22MrzB0fH5Sjonn6oPcVvJQt9rIgPvhMDvk8/OEH/ND8+8ckX79tOdXU9EpHXMNG9EabFkgMhVDnoi3TfxLjvCybfzznETXpyCO0bXa3jftrgkMkG0fuLHPKnbODnMtma4hboS49NjXkdkx6HwH36XstpC7UscZp8wc7qMFDrVn7cOsS3js2Ko3IriHUftxUPtXWEzK8+T48w+YbP0zzbmpu9n1vP9Goe13nL9yPr1tHY1ucU+D75VokP9G2qf5ahb0dj89hkLhx9ZiboT9boI/qOzp9K1Uf7aa7jx2SXspQj03XjLz9g6eUw7T2n+l+fp8l+QI4f5lbdNa7MF/pR2wT0Rn+1N1HXA+Tqb4Xxmdgih25sRrbrOhd0dj8pSz8gceaHJ902/vSzCmX4njUh/ledVba3n0AOP/mc6kWeV0x0r4gspnXTOEIWfxbWXsfCSH0WUT6njXkFCzPypyRE6Qftahv8yGYZmdXhkHZ98Ud2b+M8l/jT47dH7ePKv75pwnQIyBj2mNAeahn+TuNI2+pTb1vt0nZrXH/jN3//7qc//Yc7Lj65n+TCT37yt/eyX/ryn7+h/FN/+uLdL37xi0M6JlZ6w6l+9hitOCq3glj3cUPnNI+2eIgPW+BLnsepfg/aT/N9NTeBeEx93KPGYDVv0Z3nDJ/wDR9TT92k+whTPwP+bK1lzzLE5LHm16lkzPozcxTa9b5E52r8VnNpRX+mV3N9evaBsl6+eo6Qy3zGv74fwsp+bRu473Yoq3LVDhyJTfUfWfyZnqEQWez28eI79XxiP3tyYkY76i/9rKG/xqbGD1v4sLKJXPwLiUNtsxqrGr+tMtpt/UmVyPOKie4VsbWxUDZtdBN9k+N73WgqfTGtsNjmILzlW4U2ffOCbGr8Ws50uO6bRe3vlv+TrUvQ/dkrhx534kp86Uf3mxj0X4+mH31zBPR2m8Slb5pTWXyITvyLTeSOjOn3vvfX90nkKtEMb1WiG476uZqjnZUcccsBbI8+buicnrktW0fG6BymebXyb2IlO83DFXU+TvUV7PX41pjRlzx/6EMvbaqOPaaY7JH5cKqtZwHideRZeAoyZqfGP+225hE6L/F8Ea/q32qud7lAWS/Pc8R+kHre6lKW+Yx/2Q9r25V9dKRt4H6KUWxiA12Zx+g8Epv43/VO9moZNvvzHJDhjXLvG+2ou/Sz1vUmfnv2ErMe67Tr5RPTWGGP8lqGTC8TERPdq2JrY9lbcLc2jbqI1sWS7+hEd+pD9NX6vhF2aNP10ScOgbU8ZXXRpgwZ9GMHsrGvFnj8iHyveygrm6vy+ItPfLJJ0x/ku2yljsEqvtjrNokLsnxyT3v09LEPiVO1R9sjB5mjHE1IT+XSeonvFKOJh8yvaa5gO/Hv5ZOtS49R6PMnrPybWMmudE8Qn71npIN8jRX309iFU8ZwGrM96CfrGePE55F+nwO+df34WseAftLf9CH3q1gklvwAssaM8shER5Kvla7oW+mB7k/tD31Af41/YruKa57lbmcispP++HOES7aPT8B3YoBOYlT7TNyYXz0Gp9rPXOnjMMF4H1l7VusAY1L7uiqbQIY52fuc2PQ4XBrsH5lTyBCrLpu5jP89rkDMkKMfU4ynOB31SeR5w0T3ilhtWixwWTizQALlfTHcoy6gfO8bFGWxyT2f/UBDWd2E0676kg182gBDbPGZMnRA3dgjN9F9uxS9P3vl2ez5m+n4jV/1MNFjxve6yXX5Pbq+LfAZ3yFj0u2fColnrn/6+c9f//XhJKRJUHNNb3TzFrZeaT/V5UJ31XMKjNWReXNUbsU0VzJP+jOxsvXQMZrIWrI1j1fPbGUli8/0ZW9uUr93SO9zPL7XWNU5HblQ45e2kx3IM3K0/yH9yPOFLj4n2YdAH+h3dKc/NUZ8JvbVr+jge48d/tY+93axixxjHl3Eq+uq99GTNit/4n/6k3kZ+WmeQrUX2YzlRPRUv2l3yvOFzeoP7dHF55ZcoKz6AdNzRPvqN/7hJ3aq/Mo+bdBRy7jvdsLkAzpXMU0fVm0h/atlNS70Cd8n/ZkzyPa6rvNc8Be/u/494lvGhD7QrzpmIXO724bJfuJIH+v41fGvOkTERPeqYBHrm25d8Op3Ftu6iK4W7fx6bC+vUP9nn//K/fe6uAbK+uZS7WXhj2zVvUVt16kL+2QfaJ8DS697KCubW+W9f/lXP/GPeOUf2kAWpvGewF63SdvpgBOIDbaxW8uxm/Kj9ify68jTdTTRrYlyvUia/+APP/TMJbrEa+8wvSLP6mpcVj49ZIxWZK5iE7qvnfg+zfGjTH1DH33juZj6N8Uk8cg4ILPn12qseaZoW8tW47BF5gVt6/00zg8Fn+vzi6+QfvCZ+mndoF9dPuNb5ShPHNJmSxf2+C2W+o8jdlvV98jwnbjRlu/UI5cYdpuXBjsPeb4yBlP8Jt8p6+X0v8Ylfac8+olP3T+iY2Wf+sQ9cN/jH7oPgM4am0knTG0zll2+9h+96K++px06U/as0H1LPFZx2Yp36lmfIlPjiM6+joXpeRV5njHRvSL6xgJ1Ec2i2g8QMG0Qkc99L+P71kJ8Dkd0Tr4C/c+mXb+jc1rwAZlzDykh/kz6j1BjXDdvvqOXT2xcMtHtoINYTP6F2M34HLU/kSQ0CWf9B6GS6IbV3+hGB58p+/Grf3Mvn3tIwtz1ngvz7si8OSoHxPJIcoPOaWy2uMQcD/ETvf35A8r2+hBWstjAZz5reSXzFR3AvKz16ER3L+c5yK9UklTxTMHK5605jq6uf0t+RWLa44n+Sx9KsZH5gO/pA581Zvne51JIv/mc5hd24nvGKm1CbGC7liPXba1kK5HBFrYvHbuJc8a7smpPn6e+UtbLiTX9pv/oo9+rttGbsYh8jfcWsUPbPk4V5Eiua9+q3Ur1P2W0oW0fP3Skb5NM5gA6KWcu1Pqp7KmovvGddYjPrbhMzxbQrq9dUxw7b2X/RZ5VTHSviL7Q8cl9FlHq2dRY6PqCGNm+YWVTCehKGd+rnmkR5TuLcbW1RdcJfSOIr/QnZVA3BuyuDhBd/2Ow2rwo6zGt1M2b7/QnY5GDGzqg93HVN+x1m4nh5COsNs1qYxXjI0zJ5yoh3frHqKa3tr39YyS69RnZIvOxtmcsUp9xSSx5i595Hbk6dqtxqXO/lj9kjDqZM4Ct+FlZ+TexksVn9PNZyyt1HgJrTJWnvseDeuT6ARzZjMfEFFdgXPrzg9wqNivwi2d7ajP14yHEv49+7NP38cMm9okH36njPmPd+9dZ+YeurFex2XXFRuZ3n++1XZediAw68vfAQPkkH/11rI+SvtBPbKArtveocaD9JLNFYoCelPE986jqr6Q+40JZYoYfkZvKAL2reCYOta6X4ffkW+T4wVPGe2ULHX1+1NgEdNJH6vlM37mnXdX5ELAz2d+CNlXHKi7pX5ev1DgljtP4BGQuHQORa8dE94pg0csmAH2hzH1d6LLw/c7vvfd+kayLavRRNi3YUBfWuuhm8cYOh8u+uHZfa3lfrPtGQF33FarOqgdyEE45B73J/iVY+QfVx4mMUWILlPU+AN/7gT19rjqx123GR9rU8oDvk65qo9s/hUu80eXXkynjk/voQLa+1X2W3ugSt35PPOtbRu4Z/4wN8n0cOkd9egjYYB5hA1vcTzLTvJmgf9OzwLxCP5+9LvUcWqv9OheneuAeqmytB8qoW9mu4Ht/fjKeq+dqYuXvY4Hf+Aj0Nz6nPGPX7yfoZ02cannmI/C9j3XKkc33GoNaz/3kD9+Ry/f0g/vEtdvdgjbYPDL+gG/oj+29MUQ2/QG+TzGO3loGlJ3SnyP0ONMH7hPXFWmHP7ShH+xR8a/3ge+175AxYr2LzeidYll1INef1ToOVfcU46dmNUemuEDkaww7tEvfMgbsJfS5Q0z5B7qOjK3I84SJ7pVQF1EWvyxuWQSRSXkv4/7Xfv137z/TLvRFFvmU1UW2b0598eY7RG71E/eqk3s+ua+bw1QG1Sbfq5/dZ/zgM/KV2vYc8Gu1mVRfKpQl5jk4Jla9HB3A93pgT99qPKO720wMp/4DfZh0Vbr9U0jyOl1JSJOg9ot2f/mX//b+b3GnK3+jG1vTW98k2OewNb6VLbk6tsjVWO6NzcRRn6Ibu+fO8fiOzV5H2d68gS0dxII6Pntd/J98Rz4H263Y1Vgjl+driym2+ED7qoP+cF9jUO3V9iF+T7FYgeyR8Z6gLb5WH+kLZTVu8avGOm0jl773/tIuMhnrxCe60Js+9DYQ3Snbk5nmRvytdlfQPj9MTBnft8YucyC29+xEnu+TvwGZqZyyWo69xLB+73XcozO2O/GFWB2JV/cdee4pp4zfTMF21UN573v1r5bXPva66KAd7eNzBbuMHfV1PLuOVdljEDs9tjUuHWR7jJBPfGiHTnTXMYhsZ9In8rxjonslbC1gWWBzmEIuC2UW2WkRpjxyW2Upr/ajt8t1P5Gb9AXq6ga26iNl1KE/ByK+d3v4lM2AMg4xdSOselJ2Cmk/9R1W8QvVJ77jK5/4u3cIq32LDEwxzniv/KT/Ne7QZbv9UyGhzXXkX13OlTe2U7Lck9zQdb1ViS4xY27C1lgCY9blVhz1KfNvet6Pgo3VM0LZNAc7+LCSo7/on/q9ake/mKPEEFbzGqZYh+hPjHo90Met5yLxSfleTPAn69VUP4F/MNXtEXvV7/Sp+5C+pK99PqIjc4G6KSY1HvgcGcrqGMSv1CNLG77Hry1/iG/GLjohNqtPEyRn0bXX78gwjyiP7b0xTJ/4nph1vZBY9fLaPveRi889VpHv9RVk0tfKXn8CcnWOo6/P+e57J/6tnpWpf4l/ZOo4UI78qj5lk9xjMNmGrbikTcY495Hv40YdMlVHBT17MiLPGya6VwILWF9AIZtDFkrIYsnCmI02ZVUHbWq7VdkEeuoCXNna7CA+I9sX5bqwVz30IYdX/KMd33tySJvqP37W+6onZUeJ31sbSbffQUc2b76nH+g7kugmNkdJDPt4rQ5g6WPkjsyFW2NrbneIVcaHdjWufHIf2TqfQ57LqmcC3XsykPk3Pe9HyRzgtzKq/1vEt7TdekaICzJ9/k19pC9Vf8rzLEzzE739Gc+YZgwyNnVMInNkzsd+fnNlq01sHR2Lh4zdW0HGvMbyWSPjVanP6hRz2mQep77rmEgcmBOrmFCeOcNn2laf+OzPCbJ1rlUfucd/2uRPlbpPnWq7Enk+Uxa7jHf2sK5rZWeaI1NMa18mO2lDP6f4TG2QrXqPQrvq21HqHIKtuAC+Mu7I9T7RLr5P/Ug8tuyLPO+Y6D4n1A2iLuB8zybEfd1oL0kW81NssPDjF/5lka//D22V7X2qdRU2jmzYp5D47bXd0183Yr6jk7+rwe/0FR3pyzm+Qvzd2mBlhvmTsZjqw1G5S3DUFvXIPWTuRMfWczSRdntzjrmP3NYagO9H+oCP9dmhDL08Y/XvoVd68qzV9kdJ2731jDpkjsYz/p/qz1vF0XF/q8CvI77RD+YLn3W/pK7fr2CeXSoO6OnzFvt1vvHZnyXaHJ1rzzKMQ/ZKyPmhPqv0lbIK48R4Rc8lx2SL1Rw5Yj/PEP73MReRh2GiKyIiImeRQ/pTJBMiIiKnYKIrIiIiIiIiN4WJroiIiIiIiNwUJroiIiIiIiJyU5joioiIiIiIyE1hoisiIiIiIiI3hYmuiIiIiIiI3BQmuiIiIiIiInJTmOiKiIiIiIjITWGiKyIiIiIiIjeFia6IiIiIiIjcFCa6IiIiIiIiclOY6IqIiIiIiMhNYaJ7Rbzt7S/cfeOl79595rNfGO/hS1/55hvuj/DBD3/87jsv/+DuhXe8c6zfgja0PcXm1Ibv9IU+VdlzOScO54KdV3746n0cp/otMobntN3iMfuPbpjq9ljNtWkuPxbvevcH7r769W8t5xp9u8R4rPp6Tvwyx87hqZ4DERERkWcJE90roh+ckzDmUM7BnUM8ZdMBO3Q9qwP5UThIn9J+soeOrUSXfr38yo/edIhP3zskEk9xwMc+fr34uS+fHUP8RAd9nOrhEv3nvrffY4ph5tiWv4APvV9bSV5iudJLu/Q3ifHkc2WaU4wRie5UR3/p23vf95E3lAO2Jxuh60N+mhMPiV8H3ehazYNwztiHaQ6IiIiIPOuY6F4RPUlYHZiTBEwH1NTVg/HqQF7ZO+Rv0f3o/QBkeqJAv/Lmje8vffv7r/u4d8BH/2Mf0BOT+IDNKXkC/J8S1T2S6Dxm/5Hr49HZGv/X5uD77z9rOW2IRfWZPtAX7rFZ5ScyL9GDPuJR+zXNG9iLD/L9GYn++NehfjW+qcNu9FIW//k+9Q+Oxm+i2pjq93hoexEREZFnFRPdK4GDaD8IH6UmMRzAJ5kVW4dgDsn14I/uvYSJJAKdPZnoCUv6m7JVoseb1L0Esuq9FPg7JUX0f4pZ9/8IyCYxfGj//+zzXxnrjpD4Md51fCmjjvLqa+o7fX7wnbIqU5liRlmfP+ipeqnrCXHKpv5tUceyz/dK6pDlE9uU9fYPiR/QfvJzYuVriP2tMRARERG5Vkx0r5RzDqlTkgD9QL4FdjlsI5vDfQ7T+EId+ld/A0n9dACnbcqB71UOnVOihw9VT8DOYx3g0b0VL+z2JLj63+PW61PG9yQ/j9n/jNtU18k4YZ/P2Ki+9ja9PvOttp+YYrIiY4JOkrxVXMKqz1uxQGdPJis9Luln9Z/yLkd5jU9kJ46OK7bRX+cYbSe/t1jFQkRERORZx0T3Sjl6MA7Ic+ieDsnTgXwiCShJLLL9MI3uHIxzoO/JHAlgL6/y6OWz+5O2/SCOD9VuOJoQnEJ8OHL43+or4Hf8z/3WGFyi/xm/rmNF/DnS7vNf/NrmfIyP0YXf3E+6KvjwO7/33jfYT8xC13NkLk8x2yoH7G6NJ3WZv+ihbPJ/Yi9+Ad/6uE4+T77WtviJbzWW2K4/WNiKhYiIiMizjonulcIhdDowV+pBd+vQmgP5VnKQBKXq6IfpboPv0Zv23a9AW2RJ5iZf+iGczxzUqeN7TRKwjc7cPxTs4Bs2YrvHu5I+4kPadZ21Dz2WnUv0P2NAm1rexw26vb26+LOKxVf/zV++fh9bp45R9Z+20df7033pfYOpz1vl0MdoimfK0EM5fvQYnhO/2JxiNvncfYXaNvaq792vrViIiIiIPOuY6F4hOUzzZpU3QZMMB9Sjh9TVgbxy7qGXNuiPjU988sU3HcAB/f1QX+mH8H5Qx04O8dP9s8LKL/qx6jtcov+ZNz2RWrGaE6tEjTLquMc2PqQ+MthPO+qZw9Ob6kr6GP9z39mLYWXyb6scop+/i578JF6/9dvvuZdBD/JTDM+NH1BGXS2bZKdY1LbYw7epD/Fr5YOIiIjINWCie4XUAzSJbg7HgXvqe/mpiQ7UQ/XqcDzRD8jxczqAY4M2vbxC261Er9dPCcFbDX3DP3yrCQXg62P3P+OfNgG5Pl5dH236GIfX5tr77+VpN+mcbFNPopu/5+aeeuB772PXwefkT4X2R351eIv0I2NEoktZ9SfxWiW6W74eiV+gjLq9MuzhBz5Ocj220Md85YOIiIjINWCie2XkcJ0DK4fTJAq1/pQDaj2QT/WdLRv4tfpVXagH8By2c+DvB/NKP4T3gzrtiEPsTof/h5A+1wTlKFOcen+Q2RqzS/T/1D6s5kT3ZSrrSRJ+Vt34ii8kjecmuh3Kt+ZQZYoPdL+nunxWf9L/c9/o7sUvdL9XMZliUdv22MJRH0RERESuARPdK4PDZz881wPpVL/H6kC+RQ7YOUznfk9PDuAf/din7xOe6nc/mAP1lH/gQx97wyGcz35Qr9RD/WOx50MFX2qidwq07UnIJfuPXMZhRR3v977vI/e+8JY+Y5Zxzfjt6cR/dPCr7E/9q8tberb8TkwjU/XsJbqRhYfELz7knnY9Timv+qC2zfypcYb4i8zKBxEREZFrwET3iuAwTVJQD7SBQykH1a23qSvQVw+4p8BBOIfkya/OdAAH/J/K0Q/pe2zt2ayH+qkOprpTQEe1n+TtlPjTX/q9F/9L9D9z5BQSJz4zPvhCP/EXnXk7W+3xfSvG0YH/57zRzffJ5078jm3ar+K98ruObWSqPzUmaVPtIB8/LhE/oH3ig07mx9bzj77YqG1T3/vQfYgNYlrbiYiIiDyLmOheCTmY1sMw1AM/B2ZkVgfdFfVAPtV3epLBr5/W+xzop7bYmurpV/eh9rkfwlM3HbjjX48VbLU7BXRHR48HHNGfxAF/eLuXtpPfl+r/BHJ7SVWl+4IP+JJ7mHT2OFGPrlMTXd4CU8991Y8c9b28Ep2r2KxiUXVHJv7wnf5027TpcYFz41fJ3On9QNfkC6Av8j220P2qPqSvyHc5ERERkWcRE90rgQNnPfjmoJqEIeU5kFJeD7EcWik7B/T92ee/8vr91lsjyGE7VP+omw7hObjXdjAlChO9/ardJQ7pvX+hxps+9yQk1LGobWA1rnvs9R9dqTuVjFftd8pqAlT9qUlS7Gfe4BdjwHc4mujuxQa5aW6FtN+S6X6H+FbLpr5XH6HOAeTOjV+Ijj6+HdoiV/Wm7BTiQ/XzEs+QiIiIyGNjontl1IN0Pxx3crCdDsxvFfi8lWg8NqsE4ij4f6Q9/SOBIyngPmMBNfnZArkj43xt0K/EoCa6qU9SRd9rQkccthK8rbkVnXtj99D58Vhk/pzy7BBbfriQ+YOOo3MPeizQkzl8a3NSREREbg8TXREREREREbkpTHRFRERERETkpjDRFRERERERkZvCRFdERERERERuChNdERERERERuSlMdEVEREREROSmMNEVERERERGRm8JEV0RERERERG4KE10RERERERG5KUx0RURERERE5KYw0RUREREREZGbwkRXREREREREbgoTXREREREREbkpTHRFRERERETkpjDRFRERERERkZvCRFdERERERERuChNdERERERERuSlMdEVEREREROSmMNEVERERERGRm8JEV0RERERERG4KE10RERERERG5KUx0RURERERE5KYw0RUREREREZGbwkRXREREREREbgoTXREREREREbkpTHRFRERERETkpjDRFRERERERkZvCRFdERERERERuChNdERERERERuSlMdEVEREREROSmMNEVERERERGRm8JEV0RERERERG4KE10RERERERG5KUx0ZeRtb3/h7hsvfffugx/++Fh/Ci+84513L337+3fvevcHxvqHEl8/89kvjPfwpa988w33jwV2sI0PU72IiIiIiDw+JrqyhCT3Oy//4D5RneoDCeQrP3z1TSSx3Ep0KXv5lR+N7beofnU/+eQ+STpJJ3Yom/pDclp1k6j+1m+/5162llemZBZ71J36w4G0qxATfF7F5ymSdhERERGRa8VE94r4j/6T//zuAx/+k7uPfepzr/M773r/KHsKSQx7MrXFKW8t0X/0je7qzStlK5u0gdwnqe32aIuOrr/aJOmsie6UtCJb7cEpMez2YzN9q/ECvic5X/VBRERERER+hYnulfBf/PPfuPvoH/+ruz943794U9lDk91TElHoidmK6U1lZUoiT010T0kwO0lWT010ka+JbpLP6J3aAG3ypraWT3Hyja6IiIiIyPmY6F4JJLi8zeWt7pHyU3isRDegt75hTXK6SiJPSXQ7STpPSQT3Et2eyFLe37DGtySmNRFOIlvbVXo863iAb3RFRERERE7DRPfK4W3uJRJdkrAkckdIYpYkbqK+lUQ/n9UebbsvD010a5I41U9gs/qNna03uhXqa1ILSUarzj09Ez0BP1ePiIiIiMjzhonuFZNfXX7Hr//eWH+UU5NDkq2edCa5mxIx9Na3ko+Z6CJXE8yJrqcnlNSf849RwZb9qQ2xmX41+Qg9wRYRERERkdcw0b0y/tN/9l/effhj//L+H6IiySXZneRO4Zy3oB3afvXr3xqTP5JHksaa6GLv/R/62H3yNyVxR1i9ScWPz3/xa2+oC7Tp7bYS3Rc/9+U3JOmAbHTwWX2KnomeBHc/QnQinzbTDwVERERERGTGRPeKSdJb/4Gqc7hEoptkMclmTfj4XpM67JBETvaip5dTNr0RrdSEmkS361/ZrTZ7ovvRj336/j6J5tS/TmSOJKdJaitTu0muxlRERERERH6Fie6Vw68tP/TNLolf3lpOCdVETbJoR2KXt55V35QYrhJOQO85iW63g+76hjn1U3LY+4xc/RtddKZd7VvaU1/b79H7h41JjnLs+a8ui4iIiIichonuFbD15vYSiS4JVZLIVaJZqYkf1DY1aaQM3XnLGvlVoptklDa1HNAVH3td6rud6udUH6r/iUVNdGlDcvve933kvi6yK2o8ex22ev+6PPZiuyfWidGeDyIiIiIizzMmulcC/7oyf5db/8/cngDnH6c69VeZa0JYk74VVb6/cUwSxycJGnR91E1J56oc0LFKHuNDbFdoh1/5F6B7PewluilHz8qHgNzKVpLU7mdsmuiKiIiIiFwGE90rIoksCW+oie85iW5Pvk5NdLdAZkoMad8T2iR3K9uUT7pW7dIvklN+hRmZKfmsSSX3STp7oktf0EVZ9TtEz6oesE999wMb6O5Qjqy/uiwiIiIichomus85JFM1OUtCt8deotv19oQtCWRkKdtK3laJLn5UX5Jwdh9r4tttVz+574kuemIbP6oOPrmvOsKUpE59jM30LX2gHB2+0RUREREROQ0T3ecckriaNPX7CeprEvkQSOa2fq04YLMmg52a4CYJXYHvyKWvUJNSyqu+3tfUbfkjIiIiIiJvHSa6IiIiIiIiclOY6IqIiIiIiMhNYaIrIiIiIiIiN4WJroiIiIiIiNwUJroiIiIiIiJyU5joioiIiIiIyE1hoisiIiIiIiI3hYmuiIiIiIiI3BQmuiIiIiIiInJTmOiKiIiIiIjITWGiKyLy/2/vfVtty6o0zy/ZL8UvEAhNU5Qo0pagdFWAikmLaSGaZarVdpBtKaLYmq1CpKUloUSJCBlkk1CQFCQFSUHlG1/c7t+JfCKfeGLMudY+Z59z4+x4DvzYa8055vg351pzjrvPvbeUUkoppdwULXRLKaWUUkoppdwULXRLKaWUUkoppdwULXRLKaWUUkoppdwULXRLKaWUUkoppdwULXRLKaWUUkoppdwULXRLKaWUUkoppdwULXRLKaWUUkoppdwULXRLKaWUUkoppdwULXRLKaWUUkoppdwULXRLKaWUUkoppdwULXRLKaWUUkoppdwULXRLKaWUUkoppdwULXRLKaWUUkoppdwULXRLKaWUUkoppdwULXRLKaWUUkoppdwULXRLKaWUUkoppdwULXRLKaWUUkoppdwULXRLKaWUUkoppdwULXRLKaWUUkoppdwULXRLKaWUUkoppdwULXRLKaWUUkoppdwULXRLKaWUUkoppdwULXRLKXd86tOff/HGm3948YMf/XzsP+Jb3/7evccm6EHf1PdYKP6zdpF//Ze/ffHKRz429n/hi1998bPXf/3iQx9+ZewvjwP5Ju/TPDJnv3rjd3ef2XctsOvznvdPtS6ww3p+zFgfC3Lz45/+Yuk7sZ151+R75OiZPYvW2Ju/f+s9OU4bOf/34ZL3oXyb5PFtt/6P8g4v4918TZQf1tDUt4s/53aC3OTa5D7bSilPQwvdUsrdxs0B6Lvf/8nd53QIOEI6jsZyWOBwyCHR8cPgUx+mdPjBD2I4cxA+OvSQh+mAu4p/x6SnzOzmZTqECl8Dl6I1Pz0Decj96Mc/c3fv4wT3rldFlOQnpmJWfqxiXaFxaYO8rfLzGGsTfV/7+mtjbHp+6E+79OG/xhC/v0fyPqHPY5N92fS+nDuB7NlCV3pXuoTWxZEcpH0HX47WRI7Pe89h9q3WyI5L16iDH75G0DXZAOVOPrJ++Mw8oXO1B+xyK6Tf5xy/HhJnKeX+tNAt5QMOm7YfijkQ+OFhYnegmDjSl6Bfh6mnAHs63HCtXExcGrs4iof8+CH9ZXBm7p+S3aEzWR2yFc/uED7NDbnww6rYzRNj3F/ZnPTTlvrdJjo4VGNntSbpmw7eZ9do2nebrgtfFQs+qm+K4Zqkfvwjv1M+IedGvquPtTDlQXOGrPLsuYCjAkekbMZA/mRXa5M//JCs+3UWdGp+su8+6597tWU8mVPvk43UNyFZ5ftS8lkDdGl9rq5ll3v85Jo26ZD81J7x7pDNh8ZZSnkYLXSfGT/44V++0A/Xk8z7nd/85j//UwRv//yPf/zHF//63/zJKPu3f/tf7mSea6ziz7/x2os//vGPL/7+7//bi3/xL//VKPMQ0Ilufi6xwcbNQSgPJmzQHIB0OEjYtM8cZoBDAYcDbE39AjkOLnkIE491UCAOHQa5lx9H8R0desjddFhagT4/pL8M8Nlz8bJhDvIwu8IPsGrztUd7riGNmeZ6NX+7eUL/tHaPUIxu031H77T+kc/8EIv0rp4ZxtGfcaMHfRovkFOusm/K0X1Y6T8D8aAj54b43XfJrUBWOfP8w+5ZB+XUwRd+S8bbMl8+h27/DJovdEwxegy0p26NwS4yPPvuK/f6Zt3bHfme+tzOhGQviVd43N6OLkAvv4L82nd+eBe/58XzNOUMPG/efmYdJJfkpJRyfVroPkMoCikOH6toemxa6D7enCm3Z/LF5s5BJTd5oYPPtEFzmDi7ca8ODSumg4EOMC53DdA5FXY6SO1iVH7y4OcQB/FM4xP0YfNsnh4D1sKUj5cF+feD9I7p0Kq1R9u0BneHUMZM83fJPKH3kjXgNv258fWPTl9jHi99mj/F5vnTus5xwm2qDbvolb60d0l8l4AP+CLfj9rV53Mj3zN/K58ly7XnYmczSdnVOhLXyuE0P4qBNsUyjcEHbz9LxnqJPskq35ewyhm6FD/X+vV2b5ddz9NZdutAev3ZPMt9fCmlnKOFbnlpqGDfFbrl+mhDPlNASDaLHw4O04a9QuOxp4P2BAcY2fTDEvZA9w9lygGHDY9Tvq7s7g49gD5sYGvqT9Dnh/Qj0E/O/JBEzjwmxel+IJM513jlIL/F8RxIp+ZEMrlGpE/9qUekPy6zigc599v7PB+MY474Zkc+Kw+rMYI2+lweLpkn7KWfOzJfyil6ptw5xIq/uR53+T2L5wL9u+fiWhD39Hyt2tXnc4OPfKPqeeHXhJWTnHfaFRfy2EHXzmaSslpjPgeO5hj8mbsEfJ7WsmI4s/49XvqQvWTtgvSdGSdZ5fssOxvomvID5GCVX/T9xXd/9K57z5MgT9N7bgd5ZU1O/qov12Ep5Xq00L0R9I1hFo36ho9vRqdvFadvTLn2H2TUd5b81pb7lFkVuvLTf+7zjW76wE/qUfz6Ub//KjA/+PiL//jrf7p78eKtt/7fd/pdZ85D6p++0VUe9JP5gJWfl5Kb7u5gAHkI83FnDjOQByjB+OmQ44cvtSE3yd4HxZL6VocY5MgZcXi79Ex5E3lgwsYkd4b0YTooco2scpcHqYxF/ZpL+TfJyI7sIudrgGvPX+YzbcHKH9lCVv2y6/LOtG6Qy8O7dK/GCNroQ8bb0YUP0rmC/qP1kevNbbrv+DyNh9QhdvanMcrFJH/Eak4eAv4Rf+pdtavP54a8+XpzUhaQ1frw/MNuLj1+ZFf+3Rd0YWNap+Kh61/X5EDX/IEXdqeYHa0n1yEbKyTr/pwhY3LQpfhX1x6zxjm0049c9hEX8a7GTuBnrrMzfaWU69BC94bIX1vNQvJMoTsVh/xcUuxmUaaf1JH+qf0ahS7y049sZSHrP4zd9fNDnuSnx5X5zFxkoTvFyg9t9B35KT1PDQeHM4eZFRwiVv+Nw3Sokz0dNO4Dh7G/+A8/Gg/5gL1VH230uU+07Q60uwPTBPouPfSQD8bggw6A3JMv+vFB/Sv9rgN5cuVxAvd5mM3Y1O629Y/sTP3oypy+3f65uzb8kW/oYaz8dHkh/dO8K2bJoJd7dKETew9ZW5Nf6GM+WOeTz9jMcbThH37SrgM9OUMPfZ4v+rQGaXefpEeyjnK/8x+kE12vfvZLd2M0f4+Nx3am/RowZ4rP8z/ZRE7ryPHcIpPzkky593XAPf1apy7nPHT9c4+/4LFLv1jFDal/h2TRN/WvmOZiQrnPdsW8spu5dxiD7TPxCWTRx/PDM+x6iQVfpjyXUq5DC90bIgtZFXv6NjX7afPCTIWniiz6pzbp1Y8XerIx6eAbUS/y1K7iU+1OFo5OFuWK0/u87a/f+pv3xOC5mNr45J4f1+V9ilXx+HihvGSf4vMcYucf/uG/v/jSn/7ZaT+fmt1h5wx+mNBBQAeAPMjoQPQQe2fAJz8UTtDnBcIlTAda5z6HHh+jnH75K998J5/Mkw509E9+gXxb5YB72unXfEwHRdp8LiHtuj9H+WbOkcE/xu7WgPxCr9qIKQ/sbleHXh/jchkLMO5onlwvpN/yNdvdpvuueUTe88795KOTY1Zg2+fJ5+pITusnZS8BP1PvWdz+JXpy/XmuPP/g7yTQfOje8+L++JxKVkx6IeeMfq0nl3O0plzGY1Ab/av1L7srvyZ9zmpdT0h2WmM7Vr4Bunx+HcXIeOJfzQlyU5/85Vegs2BdofwqH/jn8eIL/at8llIeTgvdG4OCSYWXX9M3FVteSKp/+nE9KrT040Wa+rxtxWMWulM/P9Iz9enH88Mn9ysfFS/6/DrlptxLt+c2OevnJbDpTgeBI3R404bPgQAm2URj5QObvQ4erk/++UFD/WcOTw8B+3nw3SG/3FehvCimM9zn0OO5Iad86jCKbfTJB91PB0SBzJQD7mmnXzb9wCZoUz60znSf41a2HNehv2O3kpd+xQvKRY7JXE060SPfvR3Zo3lCt8edv71A/zQX2NQzA4oXf4FrHfKneOlnjOvYkfGhF79SDtuyl31Tjq7BLv+rQgfIrdZYzu+ub9c/2UQOed2LlM05TXIdTPNK/zQvoBytxmWMIN+zXznPPyyb7DrKg3yY8pJIVvk+yzQXE+j1XAh843nMZ1IoB8opv76tduaA3y5ZjU2w5fObMUvnUSyllPvTQvfGULH1d3/3X+8KKC84s9hSockP43S/K7yOkA3XIb3X/kZ3B/qIU3qzqFSejopFjVv5qBj4BhZWcpl7tSs+nyeK2903uo8BG+/ZA4cfjvxQMMlCHkx8DNc6LNHGIYKNn3aN1+HgzOHpIWDzqPAS+ILPnrOMk3v0nT3III/sGfsOvmCXHGksfnEYm/zx3Caaj5Tx3Gg+NIeSUTu2pznzfu5X/uCv9PpBUeNX+VS/60NOa9Vlz/Rje3omkN3N0xQXbZqLqV/QRgzE4r7hh3zhE99AsqlH7OLDVsY3ycv2lN8zPtyXXf6Vy+wDH5fx7PrUr/cRaM37vEgWPcjrXqR/09iVLHDN+nLdavPcJ9P8TDE62S9/+Ae8lCc+wWU9Js+DfJjykkhWds5yFJNAb+bLc4SPk5+KTXsRejIuZI781pylDdrRxSd9yHDtMqWU69FC98ZQYaYfLxBVlE0/klt9g3hJ8aviLX9UzO2+pcQPFYXTjxeEK3ZxqhDNPPkP7X/65X+37M9vbD2e9G+VC+VzFav6j/y8RvE7bdrcT4cA0GGIzVmHAg4Ckyy4vA4MOkjKLn3IUJylPvqODnnXAP062E79gIwOwPydK49lghwC10cHGuwic3SAS5DHH9cvm9O8eoyaD41VfK5L+Zcun0NfI1xLd44B6fY2ridbakPn1O86hPzydYL87lBMO/qyX3Zcl1iNAfkw+Yc8+cm8OdhjPHrcd/RJp3zzeZyQ3MoW7ennlC/ZnvKLDvmrNkAG2+jz9rPI91X+9T7JPvC4Mp5dX/Y7Uzv3tHsbpH8+p0eygE7Nr+Knf5UPMc3PFKNDO3rVL3naFBtxguvymDwP8mHKSyLZzOsRKxvKEc/XBPL4jQyyU+4BGR+jNo1zW55rRz4qR5MMoP9IppTyMFro3iAqvKZCSN8Q8kM/3/zy4wWxy/Cz+pZyRxazXhxmn/9co9CFSccURxai0r8rMD0WkC0Vp953VOgik4X5JX4+FDZ7/vRe92y8fjiYDiHIqN0PPCknVgeKBF3T4Z17P/Q9Fiv7Zzkb54r7jtehy+dKOdNBzdnNsXLApx8aXUaHONpcV+ZOfqmfMfxKJNfu184f+vyACfgmfb7u5Jfrgt2cTvoBH1brGl2MmXSuxilG5hc8fofxih+fkMWOtyt+4NrHC2R3/cpV+pFzJtC3yu8Ur/t7Hxi7y//uOSEm2fYcHvWtUE4yl+iZ5jH98/ma8PXnPmkcdlY+OKv5uXT9ux76uJYP7pvmx/Ow8mGH5uMSsCf72a5fS8ZH/NV/lab/YsnnDNtpn378Uq6JV+9El+M+cyfQueoTmtP7xF9KOU8L3VI+oGij3R08/EDjY7Tp85njJ85u+tKbB6anOAxge3coFGdjdlbx61AlnsOhR3PzfvNVfmkNATn3YibzDSnPXPmaT9CFTK4T9OQ8kyNsZLv88BzKtvxx35ED+rRGgWvp0PiMCfJ5gilGt6k22Z7ySxypZ5K7BGztnkPa8dHzCdjz+C5hZU+xKMcObcSve80H+lwev6Zcg8eyssV9+psw75/45KvvyXvO5279Z/7Ujn1wXR4TfcqDYvC8rNjl9gh88WcF0Ke/O4t9+SX9fMrn1OP+cq17zan3O7QzHj3cS5+3CenyHKc/pZTr00K3lA8gbMJssrkZT/jG7wec6X6CDX46mL7fIJbdAbu8DXPNnN/ngPp+RofU1aFWsD6Q260TcsNB9ihHrDnk0Pelf/uNu4O6nk21cy990wGavvfTun3I856Fw8RD9F8K/qzeb+T9aK1cwpl36cuAOKd1zDyocMN32vRuOJOXh75Hcm52+aNvta5WfdzTrthWaM3+b6/+73ef942nlPI4tNAtpZRymoceUEsp5RrwDloVsKWUAi10SymllFJKKaXcFC10SymllFJKKaXcFC10SymllFJKKaXcFC10SymllFJKKaXcFC10SymllFJKKaXcFC10SymllFJKKaXcFC10SymllFJKKaXcFC10SymllFJKKaXcFC10SymllFJKKaXcFC10SymllFJKKaXcFC10SymllFJKKaXcFC10Synlfc4PfvTzO6a+UkoppZTyXlrolvL/88pHPvbiV2/87sUXvvjV8f5DH37lxc9e//U794+F7Lxfihr8eOPNP7z41Kc/P/Y7yLz+y9/e5c7bv/Xt752KBzliJwfennPxMiA28vDm7996h/SHe/zM+OFMobpaY9hG75k5SLBJXqc+gb/YTb/xY5qPhHHM+338E9eaY5+DKW+rNQar+ZNvq/lD16uf/dK72rDJelnF47nN/KWP3E9+vR8hrl2efvzTX4zrRDle5essPoeXzv+18LlV25nn0H3nnvHo8ZwoT0e67kPad/B/Na/XIOc/76dc3BrE9thrs5QPIi10y1V4mYcxNggvQM7im0oegPKQRDt2OLzmZsQ1ba6bQwFjszhypoMDfpwtLB3GpX7Nxyo/R4cGzel3v/+TUxswPmehi40z60I5xObUL18mPYz1AzQyyE4xO57/o7mabH/045951z36Jv8ZtysEp7mTTWzk2oKjuYOjnDpa2/JxWtOJ1gTxffkr37xrQ89RLh3NgebM46JvGgPTM5Lx0o9Ol6NPfqsNNHbKq/xYPZeKN/vR5bbo0/Phfbk+3EflJeMX8ndaQ1qzyGQfTLE+FGLAd3+2BG3Emc8NvOz5vyY+t2ojFvklmcwRedFc8al4lBPNMfeZQ2IkJ56jI9J++ihyfSby+VI8RzkvOXe0Y4cYM7fK02Rjh8d6qQ7NyTXBn5yTUsrDaaH7zMhNRYeZlNOmKFYbGONdbnqB5yaaG43IzeploA1rioNNZNpINMZzxPgpt9OBLG1qw8rN2pkOFZnnHRmfbLqu6VBN3xRDgj4dJhXflDvHbXKP/sl34T75WNmbxjgaD1/7+mt3bR4T/k4+YyvnJX2/hFWcsr3qz/WluD0G5sHzxH2OO8rzikmPbOV68j75mblFRusqc8m1+nzMrh/9+OFygCz6ff5A9mV3mufM55l26eRaz4TLCOVlyjXjWKPKC77KXsbjvnA9reEk5dA12aKPtt1cPJRJv+fRZcU05inn/6F4jv1a/R4L/awHPiU/rZkjjmKFXBeCNrWv7B/1u31BPMTOGG8Ht+lojM814yf93NM+6U8mvSt2fjtn5e4DuZl8pX3K/5TLUsp7aaH7jODlmgctXna5IWSbNgd/MaotNxdeoP4Sn9ommyCdLvvU3GejJZ/k1TeRs5C/tEkbdlaHj2kDVu7QuTpMa9yUe3Slb5LTHCareZrmV7aB62xHFz7rcI0/6Mhf6QT54/axqXy4TvUn9KUvtLnf0uN5nmyD++7tZ5h8wSYx0Tb9uqb7St+0/hiHDvmU8R2heUSP+7ZD+fF4lEfZRma1RmHKpfLhciDdGTs2kM92kfalBzurfCaKB1Q4aSz20ZV2prYjiEN+KS/oV47dPvLI0sezg498cj/lTzBmFZ/mNKF90nUpK/1HENP//L/8r3ef2YfOp5p/j+W++HxmPvBJawDSro91nTt8LekevZ4TkG1vA9rUPtnXONqO3l/ernmg39vBbTpn52sCP1OfkC87GSHZycbEFN992MWuOZnytsplKeW9tNB9JuhFnC83Nho2HL3MeQHzkswXsV6oakd+2qjQrxesdKfNlS9A29T+VMi3SzbaRHGf3czSpg4J5Bw9fEpnbmLIZ57Rg4xv0FznOEc2dY/N6VBN3yo+xbGyAdhgLDrUxjW29I0Vn9KBvA6lspvj3Vfi4Bp2+c+YVigm6ZQvKUfbfQ5b+DH5ovnIeRGMyTzIV4+bsZNdmPQK7Er/2VwxZpLDDu2vfeeH7/FZ/YzVvc/nzn+3hSy6M3bXK5BFv88j49Dp4+lHp8tNMbodrjnYI7NaK7LFGPntOilMNY42+hhDm/LCvcZkPPIRP7hGxn+F3W0J5PBd9ytb9Mlnz9U1Wc3bqh0mn1bymS9g3H3n/xp4jv1a/cSCfz5Hik/yzDH+IrcDWdaY5hddU6yAfrcpaFP75K/GrcYzBnuyL9CBLvq9HdzmjmutT/lCDFO/s/PbOSt3Kcybzyf6NSdT3s7mspTSQvfZoBdsvty0KehlTr9ekC6X45GfNiofz8t2ddhbjWfM1P5UKM5pIyK2zN9EbjpHyKYfRrCzOnwk5DI3Y82r9K3mYUfmAhtnDu/Zl0g2c7nKGzqRX60L9CBDH+P1DZZiX4HMJz756jt5ytimeeGedrcPK9/PQD5SL/FQqIhcjxqz+kZL+DjlSdeZf/CYvZ/4VmtRY1LfNM9qkx+MlW7lwHPJWMk6tEmee2TRkfEqD4nPtcbS7uOnmFd2pZdr/UENhb3aE/7eOrLoU/64V8yeC/kAygt+uh+XgM0z7wP5pZycHfdQVnO+aoeXNf/XwudzmtuMXXPjbcTB+tjNz8p/xpCTzNMOfGLs5C92zry/0g/FlfKAPdncQSz3fRc7U45XSHbK08QU30PIeeVeuZrydjaXpZQWus8KXq55UOFlpwOWXtarFyDtepnqcOCbAPr9JU6fdEvGZadD05nN+jFRDqaN6OzmgExubInrSZvapI4OHytfdvanMZq3+4CvPs9HPoN84NPXB2PfnvvP3bVL3teY1p1ypdy57G4OV2jdeZE8rc+MT77Jd8VyCfiJTfxWG3qVJ3QTs/syjTkCffKXa+n3/syh21Cbz5nGSS9wjZ7U78hWziNjPZeSm3DffF1QRKIj/RKaa+UTOcXla2bKO/rcrnD73n4W9LH2uHZdIHueF2/XeO6nPCW5rtE1yZ1hyu9DWc3bqh1e9vw/FJ9PrrGr9wz+ZSzTesu4Jlb+T7EC8tj2NpBPXLvv6vdxk+5pDHBPu8cl3OYOZHKdJmf0yBfP+4qd385ZuUshHvfT77nOeKe2UspMC91nBpuNH9T9ZaeX8OoFSDv9yHEveeliM2OzlTwv2mwTvOinQmLawB8T2VMMl5KboPSRq2mDVM68Lzc/+hivAwLfDHneQfpzDmCXO8a57M5H6WLMNFfXBv06yE/9sFofjOWbA3yX/xlr4jGhd3dI1JxMfXDG9xXEMvnn9pAhbunHH60J5STH61vDbHewoTxN64a+XCOyl2tCeo44Wkuey8k+ePzcew6mOFbIhn7t08fiB23ua9oV6ABvewiyw5qWXs8LfrofWvNHsU8xJdKlXGL/KZ5/gb1pzlft8LLm3+3eB80tdr0dneiW3ewHjRVnfXH/xWpdEG/aAdpWvgsfh4zHpDz6b9Tch1wPygG2p7WitT31JfeRnXyc8HX2UBSzdMoX3ftciamtlDLTQveZoJcfcK12bVK8zCWzegHSrvHI5+FHL1yX8c3Nwe50eMqX9lOjHEz2z2wOxMx44kA2Y0dv5iRtooOxOnzQ7kXYmRwhsyvchGz7JjzNyyQH+Opy90X6V+tFTLFnrNKl+eKegoF+/AWu0aMxqQOZjDXBBrqRZ5yKkDNjPU5icV2y72vNY1K/xqTvgBwyus82rl3/NTijc/IVyIFy4tfom/IHHj/ytDEW3azhlJ9QPqSD/+YIvZPsBP6hw+fT9U1jYJLHtu413/4s+hrLNSN52qVDPngbOmiTTo1z357y+T/K0xHYdx0vY/4zpktBx5TzSyGGo/cA175uBGO0trwd+SlG2tSeaxFynNaP2lZ+SM7XrHCbK6SXOJDNeNDLPGf7hHxB59Tv7Px2zspdQsaUcznl7UwuSylv00L3mcDLcLWZ8iLXi5KXHy/i1QZEP3LITxsA+rGDvbM2vV26r7kRXMJuIzraHNJ3Pl1+lTfZzAMUeUOeT+41Dr05R/T7+CMyPnSnjOYO2ewD6VBck8wRikn2lT9sp+yE8uJtfJPJRs834fSTp0sL3YQx6Jr6wOcE2ZwfBxt+EPGxkpns+TjvX+UfGR+vXOna9eMDOuST2tKHHamTeIgLPWpb5dlzNuUDUj8gQ5t+3d1tOZnzRDlcjV+hGD3v3PMN4Wo9Tb5MbeTE58RlMkfyw/1HnufI38F8olP3AlseA5x9/q/JFIdgnnNNv+z5f78z5WxiNcc79Cwy1tciYFP9wudg6oej+Z/GiJxDPl1e/WfyAfLljPzOb+es3KWgjznhM3M75W1qK6XMtNB9JvDy8wNP9rEBsBH4C9NlGMd42nU9bQAup40lX6h62U8vWsawGU5+PgU7+0ebA33ERXzepjxN/ZCbnzYqfCB/fMLbfu0PdEI6sh1bKvq8PeXdNrbcb83rzgcfP/U72GbN+P8TSjv6M4azttGDPj+YJf48HK27VT6F93M9zbOQfx5nyl9ib/KdPmRgih1cP9fgaxF9XKdv0q17b3edrkttqzy7TteDPDr4VLvi8vH057pwnZnzZBoPbguZ3RpxdrKTL7kGkGF9Mk9TDCk/5ZpxPOv+HPKpe88Pn8p5yqWtVa6uwS5v7m8y+fQy5/9SNH/5jK5IP7mf5Fb4uw+I0efY231dCNrUju0cuxonVv1H87/TSV/6QZvmb+rfoTnR+AmtmynHZ9jpvhRypndGPgeZt6mtlDLTQveZoBdyvui1QfpLj2tkGeNjUyY3S8n5WOnPF6/LOMit+nbITvp0KWw8q80Qvz0HDvZXthmDb6u4tKEqRzoEoIsx0kl7ztUEcitbtE0HCdnUvdvGL88JOuiTvwlyWUxzPR003Z9JBp/cryPbIH/5NUTGuj/ECVx7bt0P2SDXR8g3PtHLNZ+rNQQZZ+YXcj4S+tS/8lf++Bi1+XjPBT74WpQs9/SzxvkDBOQ13uW8zXO6a3ObunY/02fF6z5mW9qR754fz/mkE1u06R+JAvqn3CZTnII2n3/wOJUD2rCHDy4LtLv/iXKFLcZPfrhNPrlXn49LW1OuIOfuPjB2FZf7m6RPmX8+n3L+n5qcIzHlLHOjefP5F4yd2mlT+2R7NU74eIdxu/lf6cSH++6/K5SXp5rrh9rTGiZWz9OUt6mtlDLTQveZwctNG73wzV3wsnWZ6eWrTd+ZXp55yFhtZHCfF7Bv3KsN/wzyc8oHrHxbjcuNZ7XRMp4+Prkn18h7uzbBXf7kxy5+fJz8yPkGHRymeYZVnvSvnnLtOQDpzDFAexYAxOFFs/Ttcg3Egwx5dB20A9fKrcZjmyIO/103aE6yHTRWupDdzQFyHucqvzt7+I4d3bt9YKz6d21ql7/A9TS3HpfkJn2gfo9HY1PW5wK7WiNuDzn8VE4yh8qJ/GYsNmmjL+UTH6/rlb9Tv8erd0HOiUhfNFa+E6P8Vp/iFsimf+6DdKFj8iPblS/n0ucfWfxOW2dhnHI39ZOD1XrTnGjsU8//ywa/J3+mnOG/zz1jV+9lxubaA9fL+FwbMI0D5S/9OjP/k87VONmRL1zT5jI79Dyln0cgn/nEPn6sYgPk8XGahyPkK3Z0rfUg28mUy1LKe2mhW66GNqbdZjDhGzdjpw3/CDYnXv4722wMuTlMm6E2XvR5u+LLTRAZ95l77Gjj0395I9t8ug75PsVNPNrYxBSjbOpetvnMnO7mSb447qvyNY1FZncYhbQtfbTR5zqQISZkjgpdPqc5E5mfXR/3mYNE/iKf+U2ditnH53z4wVU58TimthU7/6d5czyPmS/uJz2Knzj4RE7XypHGu/9c6145QpfPrWLh72vv1paPTzsTkv/zf/+du898ptWveBP65Ev6m7qUH18f3qa85jjheXdolwx2/d59SvueK8nD5OdZsIP/7kNC32pe3Cf3/bHnP3NwH+Tjpfh8r3LvsXCtsS67i5d2+rn28Ue2fZxypbFpX/K07/KJPukU6ECX+6+1hD5vlx/5nHhclyJ/3Wb6KOQrMviRa3E1h0coLrfreZnyNrWVUmZa6Jar8ZCXrzbK3MTOwNhp40mO/NNmd+SDb3jaiNjkgDa1++bJvetQ333z9RjgY/o5QZ6JP/NNTNNh1PMFu8OAcsk1n5kfHQpSD37v9NI/5Rr5/DXtI12rOO8LelToYpvYtAZBa+jMGr8Pvm7P2CAv5Ec5Um5XecmYvE+6ZHv6O+zo05wn6HZ918LnJPsyTq2X3T9gBRnH++nZB/y5Tz4V19HYSf/7df7fL9x3Tp4S/GN+9DysIJbdmue54R0xvSccXzPXyA06jmwmrM8cc5+50tr29Z5MeTvKZSnln2mhW67C2c2ulFJKKaWUUh6bFrqllFJKKaWUUm6KFrqllFJKKaWUUm6KFrqllFJKKaWUUm6KFrqllFJKKaWUUm6KFrqllFJKKaWUUm6KFrqllFJKKaWUUm6KFrqllFJKKaWUUm6KFrqllFJKKaWUUm6KFrqllFJKKaWUUm6KFrqllFJKKaWUUm6KFrqllFJKKaWUUm6KFrqlvGS+9e3vvfjBj34+9pVSSimllFIup4XuM+NTn/78i9d/+dsXr3zkY+9qp1j62eu/fvGhD7/yrnbBuDfe/MOLN3//1kUwhrGui6LsZRZm+POrN373Hr+egi988avLPCvHzEX27bik0MXGNP+Ab9N8lVJKKaWU8kGjhe4zY1XoHBW6Oy79RhEfzhSa6HyMwitj5ZN72nVN0edjuJ8K+de+88M7+akPJj1TnmWXvEy54f4+f9AA8kE2prna9ZVSSimllPJBo4XuM2Eq1Ciovvb1197TLrJIozhmzCQ7gawK6sm+eLuw+9x7dDOGAmz69vG+qKDz2NRGocu9ispdQZi5SZD78U9/8Z6ClXGMp9/bvfjm2nO3gn7+0AI7yK++qRXo9fw6jJ3aocVvKaWUUkr5oNFC95lB4bX6RlcFzaqYYwwFVbb7WIFMFmu0uZzbUdGWheG1wVYWmvKDONS2inXK39TGNTrVNhWZyg99+c01eUo/Hcb4eOS5ps3jEMSBTfoyBxpH+2p9lFJKKaWU8kGihe4zQ4XMd7//k7tih1+9pUgSyHgB6mO9IPJ2FVrehowKMW9HVgUgnyrKuH/sQldxpa/g8e+YYsVnvlX1ojSLScFYb0ff6tezkc0c0qaCVW3pE/fIqG2aT67Vz6fr875SSimllFI+iLTQfUZQTOnveaqwoY0iiDYVQlNhBCp0kT2DijTpm2QEhfdjF7rEg62piKMNf6e/B6tcrYpx9HrxCll8gvIgWcZNfxjgoAeZv/z5L9/xPf07gjFn5mBiylUppZRSSim3TgvdZwIFE4XOq5/90nt+NVUFICBDH5+0U9RJHii6aE/dWRDtijjXqTbp9iLLffIi8j6o0MMuvnrMTsbmZJGp+DJ+2Upd/ocK/i1u6hWZU0DnUT5kH7+m/gQ7Z2VLKaWUUkr5INBC95mRRaYKTAodXVNMUfzw6YWV97vOaxW6tKn4m3Q+BOlb6d35q36KT8l4DOjMItVRvviHv/SvNH/5K9/c2lshP86AX5OORHmZ+koppZRSSvkg0kL3meEFGlBsTd8QToWh5KeiasILuV2Bhhz/6vJjFrqv/V8/uPNlpRe7b/sx/+o0Y0AxeR4neVC+iJ1rxlPger5pU5Hp1z5W+oD7ab6c/EZXuqbcn+HIXimllFJKKbdGC91ngheaFFQqfrie5L048mLLi7FdG2MYjx5vh6lIzDb0rXx7CCu9WRxOeExnCl1kkOcTvZCFqt+vrl3nqt2hD5ldLCvOxFVKKaWUUsqt00L3A4aKKBWLXsylrKNxoL8nrH/5mb4s4FYF6UPZ6aXdfUjwMQvd1f9DzN/BpU+50TfKGSdt6EHGc4kvU6HK+MneRAvdUkoppZRS7kcL3WeEF1J+nX3cU1DtCk36LimovIjEhoopxvJf89DnerhO+9zjl7ddyqRXZA4Aefk9Fbq7gnDSl4Uun4pd1/w93pXuHD/hOtXGOC+CL0E5Jw79q9RqK6WUUkop5RZpofuM8KItiyHdqwiciiWxKpom2YksEtGnAlIy6PKCFH/07elDiqzUm9CnHOle8hl3+pxgK2XQ4fonjnx8KFMB7n1Tka31gP8rmVJKKaWUUm6FFrrPBIoSihsvEimovOiizwszL4govFTgrYow9HkhmPJeKMquF1Cpa7KDnP/XPJdyVEQqT/j00Y9/5l058/ysij3PE2DP+9Gh2Ff5SpA7KzuR8eKzYkv/VnG10C2llFJKKR8kWug+E7zAUhsFC0WjCjkKFy/sQEWW7t8P4M+uWN1xZqyKOorEzNlDmebhZeKxrgpjge+S8TVSSimllFLKrdFCt5RSSimllFLKTdFCt5RSSimllFLKTdFCt5RSSimllFLKTdFCt5RSSimllFLKTdFCt5RSSimllFLKTdFCt5RSSimllFLKTdFCt5RSSimllFLKTdFCt5RSSimllFLKTdFCt5RSSimllFLKTdFCt5RSSimllFLKTdFCt5RSSimllFLKTdFCt5RSSimllFLKTdFCt5RSSimllFLKTdFCt5RSSimllFLKTdFCt5RSSimllFLKTdFCt5RSSimllFLKTdFCt5RSSimllFLKTdFCt5RSSimllFLKTdFCt5RSSimllFLKTdFCt5RSSimllFLKTdFCt5RSSimllFLKTdFCt5RSSimllFLKTdFCt5RSSimllFLKTdFCt5RSSimllFLKTdFCt5RSSimllFLKTdFCt5RSSimllFLKTdFCt5RSSimllFLKTdFCt5RSSimllFLKTdFCt5RSSimllFLKTdFCt5RSSimllFLKTdFCt5RSSimllFLKTdFCt5RSSimllFLKTdFCt5RSSimllFLKTdFC9xnyoQ+/8uLHP/3Fi099+vPv6aONPmSyT/2/euN349hvfft7L372+q+XY1cw7gc/+vnY5yDzhS9+9bBtF99DmXzd5WTiMf0rhfXFc/jGm3+41xp75SMfu1vP93mWgfGv//K3z2Z9K19TvGffTdfkmvlDB7rQOfW/XyHnrMGzfiPPXE19mt/cJ8rjQ85X88icPeazhU1sa97z/qnWhew89XuklHIdWug+U6YNKDeCidXB7yGbxtnDJIc2Du9+oKENn/1QiC4Odx/9+GfeabsWk6+TDzsYr0M1+Xrz928tyTkqZYeeQ3jtOz+81/phfTIun7VLkI6dbT3Pvta/9vXX3rX+J/L5S/z5mvon9O7LePW8y9fp/YbM5GdyyR88oPNMDPg22ZKf2FsVukfvnhVH+X8o7tfZ9YdPK9nd3rTK345JT5lZzQvrcfeHOfddm/7M5DOELZ5x2aQdOzyX+axpzbhuYmGsv7OS6dnAj0uefcG41K936io/XZulXJ8Wus+Y3IS4n17UsHrBa4NY9fsLHt3Zf0RuQOjyzQqIQX5zrc1A/dfEbYnJpxWMz5hKuQYq1nx9Xvo8MFbyrGee39Xh6b6HUdevIgxd13ouiOGMLuQm/wQ+6XnHR/7gDN9pcz1nnmnGTwd75Xiyv8Ln9wjP8dR/Fs21v88fA+WDnHJNvlf2JJv5OeLM80COL8nzY3Dps/uYsLZZ42dzsno3aPyqf4pXthnj7bCaJ43xZ5Xxk37uaXf9aRM92NmtSfrdHlyyRjM+2XRdq/flFEMp5Tq00H1G6OU9vWQn/EXqL1np85ctL+R8yU6bwqQnX+j0oddlJhg3+e1c68WPf6n7u9//yV182S5y00OH5/Sh/It/+a9e/P3f/7cX/PDJ/SRXnhc/+OFf3s0pP1xPMomehWm907bqc6b1yfPKQW2l99L17M+/X2M7n5f7cs3nLN9NE2feQzAVidP7cMcZf2Dn0+THCvzSO+6M3YcgW26HOGg7yg9jkJ36WAesh6P176DvseM94mzsT4FyeDYn07tBa5e26a/uMGaKdzd/q3lC933+EATwM23Kd/TiY/oueV+D/uysnjmNm+JGV/omOfzKPphyVEp5GC10nxHTy3gFL0xkGcM9L+lVofvlr3zzXbJitSmwYfiLXZsI19oc0PepT3/uXeMSH5co1mu/+CebGeeUZ/zwcfR5/0P4zW/+80VFUXn/86//zZ+8+B//+I+Hf4DBuuKAs3oOhNakP3dCz5x08OnPjfpzver5R/f0XHi/2vw9omue87c/33sQvA/4kXYnlJM8LAIH8dVBOQ+txH5kj3inGD0f3r5iyvMO5sDnHHv+rtqBnSnexwD92JliI+Zp3TrydYev6SPQd0meH4MzcT8VelbO5mR69rV2V2s416qQ7Wn+zs4TOtF9dg2kTfnsz490an15vOqTb+hBBj2ywXWOczJP2NS7An2TvbPxlVLO00L3GaGXt79sV+SL1F+yKcOhkBdy6p3GCJf3F/qkR35rQ9HL3MclGnPtF/9kM+M8yjM+PcXhsdwuWmPAdT4jidYsa461p7XJJ/3+nKSMQMdu3SLv/dzLv5QF5Hhu+Hu5yOlXg9P3id1zjZ/TGHD/lLPUxXjFzjXvt0lOKIdHTLnjnvZJfoXmcmeXPOpArGvZ4z79SKRbth4TfMSWcq55cdv07daez1mymucd6Lsk9sk/xmNX6585IPfSq/ucM41HJ23599Y9Tung7+Nja6VL+lZ6IP2ZnhXPCX3ITPNCrj12wB7Pksj5mMbAbv7OzhP+rc4iE7Lp+cIOeshRxpsQ6yX5PUvmAhv30VNKOU8L3WeEXpL5Ap7ITWfaKFxGL3HfjKYxE/hzZrNKG7txuSFcC7dJfPiT/+jPLs8eA+PZpHwznfB5OMuff+O1F3/84x9f/MM//Pc79MO3v/Tr156R+bu/+6//1PvPvwKtbxQBGT7/+q2/eZdM2kxkQz/o+MV//PU/3b3ti/x0nX/7t//lrl/fUOten/ygCx/d3g7F4z8Zh3zRj/frW3P9EIf0Ifer//Sbd65dp3xW3nc2nhKt0dXaWj27WrOrd4ieCT6PnmvZ4FnQmJSh79L1j80zY5SDfEcwXvFxrSJi9S5B9sgeeSTWjFE5yDyvmHK60g2ZP2RWuXbOxHQNiCUP6pqXjBOZ1dpDdnp3Oj5/sjHJnSF90Htd7dLvsXnup1i4pl9rgXts5fz5ONlFzuMjH6nL76VHY1b+yP+cE8nnHIlcd4A+H69c7MaAbHt8An0rHxxkfP4mXE/alO+KexoPK1929qcx2J1kz+BzWEp5OC10nxF6eU8vxwnfdFYv+JTxzYuXtTZXXr459ix6cWtTz82H62S3OT4Ej4M/aefXtrn2PMh2bjjyXznxPodxru8+ZEGlH9roo7iiyJp+KM6mwtB/zvya9M4GP5cWuvlDu9tbsfNDBSi2ph/5lYWu/0gGf5RfdGZsRzbc5+fC7jnbPZ/Ae0JF3koWvZc+C+g5M0a+63l28Ef9+qsZ136XgOdg6j8Dfq3ynO+Ss/aO3kF6l025O8OP/5+/utM/+a28r2Ka5pc2fHY5IX2XzB/6VvZXuF/aC0F+eU4n/cqpy6vQdDnatYdozE4X9l797Jfe9b8QpC33XTJckzPGck0/cvizK3KBcdO8+xhkFAf3+IKNT3zy1bv2afwZFJPwHGUfKDbvU5vWDH2KHV36wy/Pl/RrrPu0W3uMc9mdj9LFmGltlFKuTwvdZ8T0Ql/By9Rf5LxQ84CUMsALWG30+0Y2gS96we82A9CGJTkfu+JI51l8M+J66tPGM+VZhwNyeCYnmddLUZGlbz692KPg8vv8thH+6q/+091Yije1c61iTUXoGSZbIotB2lTYyobusyg9WyD6t9P6Fhi7f/3W39xdZ25WbaCCd7Itv/DXZWm/xMYlsL61LnN9Ts9HHo60LlNuYjpYsUY5QLNep3dBPisOuvROAcbrWs85qJ1Pf6ZWYDN9OcJ9URvXtHHQR1++S/Tc3wfpmuxegt416PO8qR8fPWf0Hb1/4BrvoPuimHZrBx6S/6N1hO4j+4nnFv3KPZ+KiXtdT36BfONzmivs6FnUnGuMWOUQubR1Jt+SwRa2p3eBg4/IM05t2HIbaZf+HONyvq4FY3d+g/SSK2SnfGae06Z8J2Zkaee5VQ40D5OPAhkfs0K2fZ5W796UA3x1uVLKw2ih+8zh5clLdPeCBuTyQMYYXrS+MfnLfOp3tHnok3/FeLcJ5Gaicdxro6INm1zzeRTXpcim7t0nIJc6GCMrOcXpvqovUQyrvJ3hqIBUkYUMsvR721ToUripmLukMJNeLzTFJYWu7qcxR0zfUGv81Oc/HqsXr64fPM4v/emfvSvmS2xcAuvJ14qvz2mtnjloJVrjrmvCfYF8BhJ/pyDP39ujjTF6RlznmWcH8PPs86McyRfeQfJZbSrksZ/jBTo8Vul1mQnFR0x85qF1wu3gI3lTrJ4vzZv7fTaH2Dibw2uDTWyfyZ8gLnLjsYJ0XRoLti+xD8q3/waA1pDyzr188nmcoH+aK3Sp8JHN1JU55JP86N7Hncm3ZNChbzNhlVN8zH5spQ3lB3+mfpDtnFtAfue34tRYPl3+KH965pQ7/EWeT+41boqXfh9/RMaH7pTRvCObfZA6SikPp4XuM4IXJy9pHdz0kp5e9lz7huAbktqml7uz60e39MvWbkOD3LSE20HXzqeHknnhHp88L4AMffjm/Xk/cY0Yzha6/OibUo2Bl1XoekEoG9codPFdcYLiQLfn4iiuXaHr/fJZNi+xcQm+9rn39ZlrlTXHM8yzrLYj9MxN6xHd02HrDPjt7xT5pucD37Hh8QHXHtME/WeeH/pVXMsX/xeg0QOyiy+My7wii898qg2ZKW6QHslNNlYgq9z4GF27DeQyD7QfvX9gGvtUKBbP8Qqtz/zGy/Oke/LibTuQP2M/YQy+A755LJ7PvJ/A14xL7ZpDxZ++qh1ZXfva8n7uJ3+4Rk7XioN7fMK3tCuwlfqwtZKHVT8+rN5byO900pd+0LaLGxSvcibf8IG88Ql6Z2R+J1bxYUvvIW9Pebed+Z3muJRyHVroPhN4ObIx8SLUS1wv+xW8ZHl58hLVS10bH+TLNkF/9uuF7C9wf6HLt2lD8Jc5yH9kJZ82Xbdw+Utxfcqp/HCQoT39wW/lNMeIHHMfLil08wc5FZxc37fQ3dlQAbj7plM23G/uLy10VXxOP/JDcU0/9K10pA8eDz7iq/qObEjuEvIZ9PXp18CaWx0YtZb9YK3n7dK1eHacbKo40zPjz0fGx737OIGeMz67bvTp/YYP+j+ykaEfOa4ZJz+lh+ssorj23K+QrrSxwm0jq9x5TuhHl/z38eo7ys1ZucdAudjlTzJaN56LCXKhgoR75XAFOnf2V8gPzx160qbWvtvQWMnxmbo0TjJ61pDzuUYv7fTnGJButR3JTHMif92u97nfgJ5dTumb+hmXusRqDOCDPxcOY/BdOcp+xavY5Du63l5L//ysoWflg0BuZYu26b2c+XLbmV+tg5wLxYEuby+lnKeF7jNALzt/aXI9vfzyhYkc8HJl0+Cl7qw2oMmmNoV8GecLXW0pK99olzz9vpkxzn3iHlJH+nAW+So96XfKgdvHLuMY7/IO8qu8nuVsoYvM7l9dfuxCF7wARF7+yMZDC12QDv9xH0B69cO1CtWzhS7IFp/eDjsb94H1pGdRaE1qDfKpvqN1JVnWKM/Van2vkD/Y4VsK2Z2eN55Z/8Oz6dnk2n3We8WfqQSfj+Kkz79FSV9ch2zii19rnHzmU8+2ci97E8jpgJt6V2g+pz4hXZP9s7lB5kjusdj5f5Yzedpx3/HMZRaMzOn0DGi96xnJogwdWlu+97pu6aANnyWjdSg5+aV+xce1/Nr5s5oT2XSfQDEnOV54HN4uvzN3An2TztU4j5FxmSfBePoUv/Lr7coJulbPivzYPUv4OPmh+XE0J6v8Zrzur7eXUs7TQveZsnpRwvRS5kXpB0HpkKy/9IW/vNkkVi97bSLZrk1Jfb4huD1/uaPL7TDWN88pjjP4poO9tJPIdz8sgMfg8g4+T/m4Jl7oPqTQKi8Xfwa592fJry9h9WztwA7yud6Be9rpv/RZ3D1nsnkf5AefalOuiDnjcDk9v4rLc+RyO5ADxeY5P4JxsjfhernHP42d5kdj3MZK7ilQLo7W7iU5c6b86X0tmZcZ/yXI76M18dTkewnwUXOa+YZJnvbdOwh9uU60LjwnelbR5+3yI+cbGfdHviODvP4dDtnm03XI94wJ/HkUU4yyqXvZ5jPzqzhST8qVUi6nhW55MPlCP0Ib2fQCzw2Ua9rUf6mta8PGkz6lz6uN75q00L19HrrWOVBxeJvWop7BS9erHwhhKnTvq/sayDa5m/qF5O7rW44/q4/8Hfn23FEuXuZ7+rmgvePW1gTx5D45wRrZrRO9w7KQTbTmeN/ovcmzCHoP0S59uncd6ns/rVt8ubW1UcpT00K3lFJKKeWJudVCt5RS3i+00C2llFJKKaWUclO00C2llFJKKaWUclO00C2llFJKKaWUclO00C2llFJKKaWUclO00C2llFJKKaWUclO00C2llFJKKaWUclO00C2llFJKKaWUclO00C2llFJKKaWUclO00C2llFJKKaWUclO00C2llFJKKaWUclO00C2llFJKKaWUclO00C2llFJKKffmlY987MXrv/zti099+vNjfymlvAxa6D5zPvThV178+Ke/eNDm8q1vf+/Fm79/68UXvvjVsd9ZbWaM/dnrv77zx9vLDHkiX+Q++8jlr9743V2us+/a/OBHP1/OO3PM2prm9Fo+Yh+4Jhe+hnY5Ah/r4NtuPX/045+5w7tzrnEAABjJSURBVNuwsYsHO/IDvfIzfdT95Ne1wP619F9T18vA5+U+MN/MO+tF8y+dXO8O7hpLDpG/1A/GvfHmH96jHz3+HEy47akfnehe9ScPzeOl4Jc/b3mP/+Re9w6yZ3zVs7jKgfqZ+2vEjs/EsFovDnGt1ha+7J5J4tn173SLXX7hyIeJM3bPgn3mRfjaENhZrXHGHz1D7wfI8Wp9Et9q/y2lnKeF7jOHl+B3v/+TcSM4Ay9ZNovXvvPDUzqmzYzrsxv8+xXy4BvrhOdHm+wkl0yH2V3OdABbHTQY4xvgGd8hN1TGa/6zjzjxj7U1bbTIez4kP9mF6dCROcjDCZ/c0+7jgDHTQc39WB10dIjKfvLttrjWHHgfsWts+kifx+0oXxqT/W4r+zzXGq85W+lzVmtQc39Gh+fmGuT8C+I8c2D2NahYJr+B2IhxilN5FJpr9H75K9+8k5lid/vSi9wql26HMYyd9NImf7l33ZJBl8s4kl/1J6t5WDGtzzPI/ymejJn8sCf5OKHc5bwlsuNyakufYBfX9Pwkl+SRGFZrHJ/0Lpg4in+nW9A3vT/Fzof7zr/mF9u7ZxVyzlfgP89otuPjbn2gf7K74qw/l0Au8FHvYO/THK/231LKeVroPhPObA4TvCxXmxkvV2T0kmVz8MPGRG6iR35N9mV3t5nTt/P9vkz+cq94QJtMbj4O8sj4uImVnB8k6Dszt9ps8Y9C1/Oz85lxu3lljOtCDvnd/OQYPleHK2Qn++h3G+mn/MhDxlE7OnXt+pJd3hnHQVv+8Sl7Ho/7outpDpxJjvGTLchcw2pdnWW3Xp4KYsSHM2tfyN+Mn8/VwZ0xmi9vX+Ug87/KNXKaM1g9A9N8+1jk/Q+usC1/kVHc/lsIanc0hvHZB7TLl6n/iHxPAvdT3nfrizGZT8+Hw3hkU/+q3Znynn0+z9j3e7Ga12SKa8VOJz5MuXAUP2vi7Hz6/PHp85b3Z3xwkMcPdODXlMcjztjEP/RP8QE+kJNJxuOXv6wD151zMq2Ta5NrWTYvyX8pZU0L3WdCbkRn2I3hxT0dXHi5+kvX2xnjmwEvaHTw6RsG0E/faoNY2YGjsdfA48g+2o5yjQz+T+OdSS5t83lkT/nPNtD9ZGvKM215CDgD9tHN3Hj72zY/d/fp7U4eKtxX9E5jEsXKepM+xqJHBz63owND2t7hc4Nu2eRT+Xf7skEfcP3qZ7/0znPhuoXGrOKb5ifnEGTT286gOVz59xQQCzFNPvgcZB9M/qst8yamNbDy4Uxe00dfH4nmGzu61lwL+tSGHvkt37CjdwTX+SuNyKFX34J6TFyTG/nqKG8ufwnul7evcgse3yV4DJ7T6XmZ8GdI433OVnOYc62cTTZWuO/Y0W9h0UcMRzmZ/ELPlN/0d4I+n7e8xx76lSd8WNkiDuTdLvee72lMxrhjpWsC2/is5yNjk8xkZwXyGvtQzq7X5Jo+lPJBooXuM2F6WR+xGsOLdrdx8ELNg5E2vK99/bU7nfpEhzYNNkLJ5fgE2dXLm7ZLNrb7gG78l4/cH22+vtEzDvldjDDJEZ8fIji0Hs0t8lOuEuyQe3Ty6Rv+RObhqF2QC5+jnTyy6ce0BonP5ZQfj9vtcI0ODve7WLGl9TitO9ayxiGjudA8SYfGeDzykYOr+6ViN22Bxvh6WtmCzPVDwDZrQ/OETny5hu5LID7lUHNyBHLpv3Ll85a2fL7O2lrBeHRi0+ck58zx+UaecZNuQIfnRjoU3yc++eo7utyGx8V6xgZt6NLad3mxs3VmTaxkFWf6OYHMtda343lXG/7quXTIA3OY7cJzuIqZduKQnEAOedrlk++j6HYf5Yvud2sLlOvJbyH/IePHH95Xikk+qp92mPLo8+Zxul+euwnZ28WY+LrFL11Pfnn/NF5t6T/cx7dLmGzu2kspl9NC95mhF69vOmfRJuCb6ArJntkMAH/YFI82NaE4Ur/a5SN6fdMCrmnzHKhNm3OOSTKOvE/ZtKf8yN4Oz4nbQR+xelG0g81WeYbM3eTT0Qa9inuXD8h5UY7ctuO+Koacozx8aC14DB4/sE6AYhdZ7xPkRMUw8ShPjJPfsuE+cK11yKf7cRbF4HGtwC9yjk9nx0luijvJfGusYnwqlH/FNq0lX3vyEznX4+Okc4obpjwyjvGT3l1O5I/7vFsfK/8TdCFH8ZP+al1+/k++8p446UO3j5l8TFbx+zr09omV7Er3hD9nR/g8e7z8QZPWi9jlXXp8zlZzSCy+Hlcx007M6YePV15U6NLGtY/JfLhfyGX8mev0N++lx2NwvUI+eB4lx1hw+SMY96V/+407X6f+M+ADuUCHfAd8xUfe8/6HjvRlPtXm6wemPCl25f/aTDZ37aWUy2mh+8zYbd5CMv5yR56NhhcnL9GjzUabAC94jUOPXsAUZ8hI3m2d3RxSN+An+hQfn7mpyX/JMB49bo/rHOcojoxL94xXDtIeIEeb+z6RcnziKzEqdsD2ytcJfME/L5Llr8sRh+Yocw0Z91G70LzwK8vMPb86vJKXr55LxvDpMXvOud+tI9m/JGcO/gLXrgu/ZI9PrWtvB+JU3o/IeUHXJHcE9r7x7//DO3an+C/Ji+f7rE/on3SdRXOKPdlOn8mtPw8a47bpY8xD/Fnp4N7njE//Fpm8kQv3OdeHk/7zmXl1ffIr+328/MMmZBvyR/+Qjc+Bt2f+d6xkFYN8XrGKNUk9Hi8Qa8bCNW2TD7ShdzVnO1Yx004sWicCOb0bJYN9tbks4BNzo/tpbXn8mWu3N90D14pBuUAH9/S7D1Med7l16He9ifIx5WECOZ5Fn2eBv9iTb8rZlD/ufX0dkeOvxTQ3u/ZSyuW00H1m7DYYXoo6BNPPy3LaEB7CmRdwbjQr0MUml5s6Y+X3tFFqnHLAGNfhMisfMo68Z5z8SHuAHG27PMBKDv3yjT5sYy83WCfz4veO8u/+rsi4j9oFuvGJ2JCdZCYYR9x85ljPOfeKQ3kS03w8BNnhsOx6sat1xaf7oTk7ij1jmkAXz+3b6+Ttv+t8Zkzaz3wp1+p3aGf+Vv1w7TwDfpNndCpGrn2dr5AfipOcoU9+TmMcZDxf0zjm2XMrW9zzByMawzdHnv9cH450yH+PXTLTfK7w8dgE2hgP6sOnjNl1EC9jsa19YwdjNO4+aL7SD3z0P0hwaKN/Guc5zByv2gS5wSfydTYHsofsNFcrX5FDnnbFy3OuNpcFfAO/z7Xl8aMfnZPPInPPtceQ99iTD+6/xiu3k60E36TXOeO3yDnEP+UEX3L94Dv+rf4AlrHKn9p2cWb+r8Vkc9deSrmcFrrPDL149eL3zSJf3I8BG8h0YHEu2RzQp41Qsfg4HQzoU5vk6JOt3BjFygd0+EaS94zzjV72NB452o42okkOPT5X9GFb88o9Gzd2tYHjj49xHUc5EOhg3NR3Bs27dGhe0JuyE75u0KGcHh0wna/82f9xF6vmRhzFlfJ8Ey5fgGv88Bz7GuCTe5dnzohfbYrJ23LeZMd9834xyXn+ztjn09e0IBZ0IesxJYzXHE39DwGdU9yQfmt9M0bXMMWWZJ64z7xmfLKvfLqfjKdQT725Phz3n/spdteXawa8zcfTDqmTNo8RtH6wQVy0IScbImPbsZKVDcU8ga/4jA/oIa8pQ171DDpTDmnDpnyR/vQBW8gJ8pIyk37B+FxDRyj30oGP5I22aa4mXIf757nWtcu6Ldnn2uct7/EJ/ejCduZilduEfnRIr8CecrjTsbLD+xu9eu7SP/TTz/6ZfSumPF0b4vA5vYRcQ6WUc7TQfWboxa+X37SJTOS4S9BBQy9pXrjawFJ2YrfRSCefbFj5Mpcdj5Fr2uhTXIxV/xlyU8t7P2C5PY1HThv1ER5TzgN9+vulbMrYQPaSQlc+Cdlwf1eg2w84IvMhuNc3cru1h7/TAVUcjV+B/cw7tnb5mHzJNuXM21yGT+7VN+WNfvxxP2hLv2TLY/Bx2Mq+zFXal86c88yLxvFNB+0eU4LuXPfXIv3y/E65FfTxTPg3NVO+Vngsu/ikk8/sg/TR/U9ybvhMv0Bz7GuGa/rcD88d/eBtfq0xjFcb1/gOk8+7/Ccr2V1uBX2+rvHL5bnO/cD7MkZwHfQh4zqBmFUAKXeeX1jph1XMtBNP+osc8t4+takdHau4xeQf8ozTb6b4mvKxkvUY8p68ZE6cVW4T+tMH2vCN//8WHVr/OyY7R7nC/xyrMan/DKtcPoTMu+B+Wh+llMtpofvMOLvBwLTJOHrpn9XFy97/EQ3a+eTQ4BuufJwOUYlk0QnTgSM3Mq5pk9+MQYf7cIRi1ybG4UBxqU/+T3lCjjb3a+KMnA4V2phXeIz4sopZOXV/V6z0EPNuo2UccSHHfcofHZRyPOCDCnvJnJ3XnezkC/e+Prkmx77WfFzKI0O88l++6wAtPxjDvRdm9NGGz9InOfrS1pSrtI9Mxgi0EZfrA/mQ7Q66set+XoucL9mijT/4mWJxkPf1prx5jiDz5KziIyf5vKVs6s05c5Rrjc3YwfXJ/jRvwHj1S4Y2fOATP9En/bTThm7aWaNc48Okf5ezZIoFGDvlNvvdPm2a06nfWdl1Jh9kQ//GhPRrjjyvySoWgd/Y43PqdzxWb1dcR89Axo+s3l2uG2jPXNGODHrwWfs6Y+knL25f+bkkXwL90otd5Ug6dnndybgPmSvvW60hh/HIkwOejzNjrkHOo1itj1LK5bTQfWac2RwEL+vpJSp4ubue1cvVbU4yaUfyZzcL5LQpZlzYYaOWLul2Wcn4ZkfftMlJlr7cHMH1i/QJ0HPmUHNGDj/wU/OBrA6jfHJPv+cYOd0r1jN4LLt5Otpo0eMHGPeHe3SmbbeT4/nkXnFLjpzoAKe2ibTvKLe6z9j4xAY6kHNZQduUJ5DvjEdm8sNtKu/Iq9/Hpa3MFaAHfbTJfubbyfHyYRUTSK/76eAD/crjJaAz8ySf8HdlU+CbzyFjGaN5lJznSW0i40OW8dKRfR5r6t2tD8UlXXzm/AD60TetIbfP+OxXG6ADf1KvZEE+TT5nbCt2Ohjr+UvwL2MAjcNvZLzPmXIAPh5Shtgo6na+w0r/Dp+jqd/BT1+/alPOzuaPP0BDznM16fY15TlSG7I+58jvdCp/K/8E/diSXkc6NFc70o7G4iM+8cxqLtUHfGs8jRcaS7/H6PmaxgFyxKacXIr8nNZg5ruUcn9a6D4zdi/HhE3ANyuH8Xr5S+duYxGrFzB2Ut8ZHwFdbDarDRG98ms6hALjtHlL7tJNAn8Z6zlb+Ub7mU1uJZcx0a8ccn220OVP/j0PoPxne4LOjEvQttto0a2xvn6UO3Sv1h74eK4Zu1ovUz9+kTfasa1fg1N+nPSFscSGbcAP9Utv5o7+9E+ynkPGTX54u+fLUT+2si/nCRmtm6P8AfIek3zYjVFuMheCsVOsZ8g8KZfAmlbcK/34duYgiJ3MnXAdnk/1M9ZznP5qDXE/rQ+hXCuPqQtc35TXtJcwBh90jw3y522OfJp8PrIlGLvL7WrtrMbJZ/rwbeW7dOd8XcIufpjm6Ah8wa8zPhGD1h738sdjpo8YPYeSO3o+Vkw61b7zHflpzh6CYklfnElGMeR6xz8+6fO80EaufK7V5nI5J7KzyjH6Vn1nOHp+3JdSyv1pofsM0Uv6CF7S04tyNZ52ybCJTIeAMy9gbU6rQ8T7Dfwk/tXBCnJT0iaYOZzwedA42UKvrvlkDpA5KnTl8zTHyr/PZ6LxK5mjeWac8iHfuOaTdn4VfJdPjd/966OO5P/8W9+589tzoX7le8J9SX9TF7LI6N7bGIMf6Mxx4P2Jcj3Nj3yiL+0rdnRLP7L6r6XS1zPIh91Y5gRbq7mZ8nQWYsK+vnFRfCmHfuXP1zqyq3VDG7Ia53MPrlM5937HdXmstGNfPu9yoTnTfCt2t+v60JP90xjhcylb+Ct7Exrjf5/zCOVfY1dzBhmzYDztfKpN8+HzC4yl3eOWXvKt/lXed3jOdK04d+xyOsW2gji0foHYc51C9nGf627ycyLzm2geVhC78j/1H5H275N35WOaB/k2rQeN+4vv/uju09eU8Dnxdo1N/3fP/BHK9Wo9rXwppVxOC90PGLxYpw01YRNQkeXtuxewb7psOMimzK1A/GcONTs58sOGqzyRv9z4uFdOtan6Ic1lhfpXmyjtuWknq3nmnrH4I39zrt1n58jmQ8DmdHgB8qQ177nbjYGMg/tJ7inBV77xlM+Kx/1c4fn3PLh+7n3MKj+r9fFBgbiJ359dz2WuHc+jrzvPt9YoOnmmfDy4/px3rvVN+Jl1upr/IzROvq5QDDtfFLtyMcmA3jnw1X/3f94V55Jf5WrizPp/COhevesTPT/8GjV+7fIkX4/y9NxQXGdiP7OmH4rm5JL5OyObEIuvxYmH6C+lvJsWuqWUUkoppZRSbooWuqWUUkoppZRSbooWuqWUUkoppZRSbooWuqWUUkoppZRSbooWuqWUUkoppZRSbooWuqWUUkoppZRSbooWuqWUUkoppZRSbooWuqWUUkoppZRSbooWuqWUUkoppZRSbooWuqWUUkoppZRSbooWuqWUUkoppZRSbooWuqWUUkoppZRSbooWuqVcgU99+vMvfvXG7+4+p/5SSimllFLK09FC9xnx3e//5D2F1Ic+/MqLn73+6xdf+OJX32n71re/9+IHP/r5u+Qcxvz4p7+4uChDr9u5BGzi0ysf+djYL+Q7nxSOk7xifvP3b919cp8yK9CH3owDeztd5OqNN/9wZ9ORHsZDjiullFJKKaU8PS10nwkUYF/7+mvvKcZU9F1S6NInPYzL4s3xYvPLX/nmu761RM80xtF4bFGor4pX4b578Zl+3reoxPfXf/nbd/mwKmJ3drxg1hxM4+G+vpZSSimllFLuRwvdZwZFoBexlxa6XjxO/Uf4eGzsiripqGTMzv7Od1C8bldtU5GZhbX061NFbsqRT9pV1Cde6EL6fBRHKaWUUkop5fFoofvMoPDi144/+vHP3BVaU3HneAFH4fWQIhfQRfGKHyoY1UfB5/qnQpc+7pGd/J3wgnFX6KJTbZD2+VRxynjyqHHcy3fud0UuSBffcjNOY9WPzy10SymllFJKeTm00H3mTEXe9G0i/d6GjBeL9wF90pPFqQrKLHSPmHwH2tKGULHpOYAsdOlHns/JjuI4KnJBha788j9QmIrxUkoppZRSytPRQveZc7bQdZA9U8wJ2cgiEBtezKEXOX2zqULzE5989Z3xKjQ1JkkdCTrxwe1OOZCsCl2PAbnMkRes6Ofa+318wt+dVmGPLPaweza/pZRSSimllOvSQveZoEIMjoq8XaGrbyKRV9HoRduECs8s4LChf2BqGsevBvs3qm7bfXLok72pn9jQfWmhi/z0q8ry3cfya+F8Kud8po2MBRn55Ha5L6WUUkoppTwtLXSfESq2KKhABeURKsBUnMGuCFMRmMUmY7LQle6JLPhkn+IQ0k+K7te+88PRto9HFr2yfabQpSB/9bNfekeOsfif8vgw5WdlQ9AuvyfdpZRSSimllKejhe4zQsWWF5dT266Io/C7dqE7Fa307Qrdlc4c4zCOPnA7qyI0dbmc54hPdHnMik26VjaEYuPXmD2eUkoppZRSytPTQvcZoWLLCzAKKgosL6y8iBMq3CjUHlro8s0o+uRL6pT9LDRVDHqxKJ3yP++FYtc/PIUN6Tv7j1F5sSofufZxjOEPBOjTrzDnWLUl6FTxPfWXUkoppZRSnoYWus+IqdDlmjYvSlXE6d6hULtvoasiENCjgpRrfcMqjgpdimX6afPCdlVQyifkMwerMWnf5TJHyBIX/YqbNv5eL/eTDcbnPbEf5beUUkoppZTyuLTQfUao2FKRR5FFYZUFXhZxDrL3LXQZq/a8nnRmockncvw9XBXLtHmhC/juMWLnB//324Vz5gDUhqzaIO1PcshkgQv4IB9p97HYJu/yQX3SwdhVPtA5zVkppZRSSinlerTQfUZQHOnbUhVXXvAJ2h6j0BUqWI+KtSw0Nc6LRG9TbOiV/Yxliltt0uF4rJLb+e059nb30/vwgzb3x9tly21nXkoppZRSSinXpYXuM4HCiW8D9S8HrwrZIyi0vPibQPdO/67fv7UEfKXI8z5iUSEIqcuLQvq8iFTf1KaiUmRBuZID7KS/TuZNulbyoOIY3W67hW4ppZRSSimPSwvdZwKFnRdoXige4UVhFmyggszHTMXgQ6HA47/5mfoS+URhzLhJ5lKy0NX9Y8WbYOMx81tKKaWUUkp5mxa6pZRSSimllFJuiha6pZRSSimllFJuiha6pZRSSimllFJuiha6pZRSSimllFJuiha6pZRSSimllFJuiha6pZRSSimllFJuiha6pZRSSimllFJuiha6pZRSSimllFJuiha6pZRSSimllFJuiP/pxf8HFD6vQJFxPIwAAAAASUVORK5CYII=;" parent="1" vertex="1">
                    <mxGeometry y="-1010" width="954" height="791" as="geometry"/>
                </mxCell>
            </root>
        </mxGraphModel>
    </diagram>
</mxfile>